<svg width="10" height="13" viewBox="0 0 10 13" fill="none" xmlns="http://www.w3.org/2000/svg">
<path fill-rule="evenodd" clip-rule="evenodd" d="M6.10138 8L9.84025 4.26074C9.94309 4.1578 9.99984 4.02047 10 3.87404C10 3.72753 9.94325 3.59004 9.84025 3.48727L9.51261 3.15969C9.40959 3.05651 9.27228 3 9.1257 3C8.97935 3 8.84204 3.05651 8.73903 3.15969L5.00016 6.8987L1.26113 3.15969C1.15828 3.05651 1.02088 3 0.874387 3C0.728043 3 0.590644 3.05651 0.487803 3.15969L0.16 3.48727C-0.0533335 3.70062 -0.0533335 4.04763 0.16 4.26074L3.89894 8L0.16 11.7391C0.0570737 11.8422 0.000409153 11.9795 0.000409153 12.126C0.000409153 12.2724 0.0570737 12.4097 0.16 12.5127L0.487726 12.8403C0.590576 12.9434 0.728051 13 0.87431 13C1.02082 13 1.15821 12.9434 1.26106 12.8403L5.00008 9.10121L8.73895 12.8403C8.84196 12.9434 8.97928 13 9.12562 13H9.12578C9.2722 13 9.40952 12.9434 9.51253 12.8403L9.84017 12.5127C9.94301 12.4098 9.99976 12.2724 9.99976 12.126C9.99976 11.9795 9.94301 11.8422 9.84017 11.7392L6.10138 8Z" fill="#9298A8"/>
</svg>
