<svg width="28" height="29" viewBox="0 0 28 29" fill="none" xmlns="http://www.w3.org/2000/svg">
<path fill-rule="evenodd" clip-rule="evenodd" d="M13.1959 25.1181C13.6863 25.1181 14.0839 24.7205 14.0839 24.2301C14.0839 23.7396 13.6863 23.342 13.1959 23.342C12.7054 23.342 12.3079 23.7396 12.3079 24.2301C12.3079 24.7205 12.7054 25.1181 13.1959 25.1181Z" fill="#2D3898"/>
<path fill-rule="evenodd" clip-rule="evenodd" d="M3.77223 16.0505C4.20128 16.0505 4.54909 15.7034 4.54909 15.2753C4.54909 14.8471 4.20128 14.5 3.77223 14.5C3.34318 14.5 2.99536 14.8471 2.99536 15.2753C2.99536 15.7034 3.34318 16.0505 3.77223 16.0505Z" fill="#2D3898"/>
<path fill-rule="evenodd" clip-rule="evenodd" d="M6.55847 22.2339C6.99534 22.2339 7.34949 21.8797 7.34949 21.4429C7.34949 21.006 6.99534 20.6519 6.55847 20.6519C6.12161 20.6519 5.76746 21.006 5.76746 21.4429C5.76746 21.8797 6.12161 22.2339 6.55847 22.2339Z" fill="#2D3898"/>
<path fill-rule="evenodd" clip-rule="evenodd" d="M6.55933 9.87744C6.99619 9.87744 7.35034 9.52329 7.35034 9.08643C7.35034 8.64956 6.99619 8.29541 6.55933 8.29541C6.12246 8.29541 5.76831 8.64956 5.76831 9.08643C5.76831 9.52329 6.12246 9.87744 6.55933 9.87744Z" fill="#2D3898"/>
<path fill-rule="evenodd" clip-rule="evenodd" d="M13.5 6.25437V1.65576C13.5 1.65576 20.1504 2.39029 22.2486 5.16961C24.3468 7.94893 26.4719 12.7477 26.3515 13.861C26.2312 14.9743 21.4266 13.861 21.4266 13.861C21.4266 13.861 21.552 10.1889 19.7995 8.92829C18.0469 7.66773 13.5 6.25437 13.5 6.25437Z" fill="#1089FF"/>
<path fill-rule="evenodd" clip-rule="evenodd" d="M18.8595 22.2332C19.2964 22.2332 19.6505 21.879 19.6505 21.4421C19.6505 21.0053 19.2964 20.6511 18.8595 20.6511C18.4226 20.6511 18.0685 21.0053 18.0685 21.4421C18.0685 21.879 18.4226 22.2332 18.8595 22.2332Z" fill="#2D3898"/>
<path fill-rule="evenodd" clip-rule="evenodd" d="M13.5 1C13.0631 1 12.709 1.35416 12.709 1.79101V2.58203C5.71282 2.58203 0 8.29527 0 15.291C0 22.2872 5.71329 28 12.709 28C19.6877 28 25.3652 22.2988 25.3652 15.291H26.209C26.6458 15.291 27 14.9369 27 14.5C27 7.07732 20.9216 1 13.5 1ZM12.709 26.418C6.57355 26.418 1.58203 21.4264 1.58203 15.291C1.58203 9.15558 6.57355 4.16406 12.709 4.16406V6.53711C12.709 6.97396 13.0631 7.32812 13.5 7.32812C17.4255 7.32812 20.6191 10.5454 20.6191 14.5C20.6191 14.9368 20.9733 15.2857 21.4101 15.2857H23.7832C23.7832 21.4212 18.8153 26.418 12.709 26.418V26.418ZM22.1659 13.7085C21.7928 9.54008 18.4638 6.16113 14.291 5.78138V2.60746C20.2334 2.99895 25.0005 7.76604 25.392 13.7085H22.1659Z" fill="#2D3898"/>
<path fill-rule="evenodd" clip-rule="evenodd" d="M12.709 8.91016C9.21965 8.91016 6.38086 11.7726 6.38086 15.291C6.38086 18.7803 9.21965 21.6191 12.709 21.6191C16.1983 21.6191 19.0371 18.7803 19.0371 15.291C19.0371 11.7726 16.1983 8.91016 12.709 8.91016ZM12.709 20.0371C10.092 20.0371 7.96289 17.908 7.96289 15.291C7.96289 12.645 10.092 10.4922 12.709 10.4922C15.326 10.4922 17.4551 12.645 17.4551 15.291C17.4551 17.908 15.326 20.0371 12.709 20.0371Z" fill="#2D3898"/>
<path fill-rule="evenodd" clip-rule="evenodd" d="M13.0275 17.6327C14.3289 17.6327 15.3839 16.5777 15.3839 15.2763C15.3839 13.9749 14.3289 12.9199 13.0275 12.9199C11.7261 12.9199 10.6711 13.9749 10.6711 15.2763C10.6711 16.5777 11.7261 17.6327 13.0275 17.6327Z" fill="#1089FF"/>
<path fill-rule="evenodd" clip-rule="evenodd" d="M12.709 12.127C10.9643 12.127 9.54492 13.5464 9.54492 15.291C9.54492 17.0357 10.9643 18.4551 12.709 18.4551C14.4537 18.4551 15.873 17.0357 15.873 15.291C15.873 13.5464 14.4537 12.127 12.709 12.127ZM12.709 16.873C11.8367 16.873 11.127 16.1633 11.127 15.291C11.127 14.4187 11.8367 13.709 12.709 13.709C13.5813 13.709 14.291 14.4187 14.291 15.291C14.291 16.1633 13.5813 16.873 12.709 16.873Z" fill="#2D3898"/>
</svg>
