<svg width="25" height="25" viewBox="0 0 25 25" fill="none" xmlns="http://www.w3.org/2000/svg">
<g clip-path="url(#clip0_1124_14844)">
<path d="M7.8125 16.6667H17.1875L16.4062 18.2292H8.73319L7.8125 16.6667Z" fill="#1089FF"/>
<path d="M17.0204 15.8333H7.97871C7.60151 15.8329 7.26458 16.0691 7.13622 16.4237C7.00786 16.7784 7.11567 17.1755 7.40577 17.4166L8.7562 18.5416C8.91716 18.6761 9.12019 18.7498 9.32995 18.7499H15.6691C15.8788 18.7499 16.0817 18.6761 16.2425 18.5416L17.5933 17.4166C17.8834 17.1755 17.9912 16.7784 17.8628 16.4237C17.7345 16.0691 17.3976 15.8328 17.0204 15.8333ZM17.062 16.7766L15.7112 17.9016C15.6995 17.9111 15.6847 17.9161 15.6695 17.9157H9.33077C9.31556 17.9162 9.30071 17.911 9.28911 17.9011L7.93827 16.7761C7.91596 16.7608 7.90801 16.7315 7.91953 16.7069C7.92601 16.6805 7.95078 16.6629 7.97785 16.6653H17.0195C17.0466 16.6629 17.0713 16.6805 17.0778 16.7069C17.0897 16.7314 17.0821 16.7609 17.0599 16.7765H17.062V16.7766Z" fill="#2D3898"/>
<path d="M20.012 16.0416L18.657 17.1666C18.3659 17.4073 18.2574 17.8049 18.3859 18.16C18.5144 18.5152 18.8522 18.7513 19.2299 18.7499H22.4999C22.9602 18.7499 23.3333 18.3768 23.3333 17.9166V16.6666C23.3333 16.2064 22.9602 15.8333 22.4999 15.8333H20.5853C20.3758 15.8339 20.1731 15.9075 20.012 16.0416ZM22.5 16.6666V17.9166H19.23C19.2027 17.9193 19.1777 17.9015 19.1712 17.8749C19.1597 17.851 19.1678 17.8223 19.1899 17.8078L20.5454 16.6803C20.5569 16.6704 20.5718 16.6652 20.587 16.6657L22.5 16.6666Z" fill="#2D3898"/>
<path d="M4.9879 16.0416C4.82751 15.9078 4.6255 15.8342 4.41665 15.8333H2.49997C2.03973 15.8333 1.66663 16.2064 1.66663 16.6666V17.9166C1.66663 18.3768 2.03973 18.7499 2.49997 18.7499H5.76912C6.14665 18.751 6.48419 18.5149 6.61272 18.1599C6.74124 17.805 6.6331 17.4075 6.34247 17.1666L4.9879 16.0416ZM5.82875 17.8749C5.82223 17.9015 5.79721 17.9192 5.76998 17.9165H2.49997V16.6666H4.41665C4.43186 16.666 4.44675 16.6712 4.45831 16.6812L5.81415 17.8087C5.83424 17.8244 5.84035 17.8522 5.82875 17.8749Z" fill="#2D3898"/>
<path fill-rule="evenodd" clip-rule="evenodd" d="M5.4167 20H2.50003C2.26992 20 2.08337 20.1865 2.08337 20.4167C2.08337 20.6468 2.26992 20.8333 2.50003 20.8333H5.4167C5.64681 20.8333 5.83336 20.6468 5.83336 20.4167C5.83336 20.1865 5.64681 20 5.4167 20Z" fill="#2D3898"/>
<path fill-rule="evenodd" clip-rule="evenodd" d="M22.5 20H19.5833C19.3532 20 19.1666 20.1865 19.1666 20.4167C19.1666 20.6468 19.3532 20.8333 19.5833 20.8333H22.5C22.7301 20.8333 22.9166 20.6468 22.9166 20.4167C22.9166 20.1865 22.7301 20 22.5 20Z" fill="#2D3898"/>
<path fill-rule="evenodd" clip-rule="evenodd" d="M16.25 20H8.75003C8.51992 20 8.33337 20.1865 8.33337 20.4167C8.33337 20.6468 8.51992 20.8333 8.75003 20.8333H16.25C16.4801 20.8333 16.6667 20.6468 16.6667 20.4167C16.6667 20.1865 16.4801 20 16.25 20Z" fill="#2D3898"/>
<path d="M25 12.0833C25 11.3929 24.4404 10.8333 23.75 10.8333H22.9167C22.5536 10.8346 22.2093 10.9945 21.9742 11.2712L21.1917 8.92416C20.9087 8.0731 20.1123 7.4991 19.2154 7.5H5.78456C4.8877 7.4991 4.09122 8.0731 3.8083 8.92416L3.02581 11.2712C2.79071 10.9946 2.44635 10.8346 2.0833 10.8333H1.25C0.559656 10.8333 6.41311e-06 11.3929 6.41311e-06 12.0833C6.41311e-06 12.7736 0.559656 13.3333 1.25 13.3333H1.91082L0.366257 14.8779C0.130866 15.1118 -0.00105982 15.4302 6.41311e-06 15.762V21.2499C0.00217989 21.7778 0.335706 22.2473 0.833349 22.4233V23.75C0.833349 24.4403 1.393 25 2.08334 25H5.00002C5.69037 25 6.25002 24.4403 6.25002 23.75V22.5H18.75V23.75C18.75 24.4403 19.3096 25 20 25H22.9167C23.607 25 24.1667 24.4403 24.1667 23.75V22.4233C24.6643 22.2474 24.9978 21.7778 25 21.2499V15.762C25.0011 15.4302 24.8691 15.1118 24.6338 14.8779L23.0892 13.3333H23.75C24.4404 13.3333 25 12.7736 25 12.0833ZM4.59875 9.18789C4.76894 8.67753 5.24657 8.3333 5.78456 8.3333H19.2154C19.7534 8.3333 20.231 8.67753 20.4012 9.18789L21.505 12.5H3.49499L4.59875 9.18789ZM1.25 12.4999C1.0199 12.4999 0.833349 12.3134 0.833349 12.0833C0.833349 11.8532 1.0199 11.6666 1.25 11.6666H2.08334C2.31344 11.6666 2.49999 11.8532 2.49999 12.0833V12.4999H1.25ZM5.41667 23.75C5.41667 23.9801 5.23012 24.1666 5.00002 24.1666H2.08334C1.85324 24.1666 1.66669 23.9801 1.66669 23.75V22.5H5.41667V23.75ZM23.3333 23.75C23.3333 23.9801 23.1468 24.1666 22.9167 24.1666H20C19.7699 24.1666 19.5833 23.9801 19.5833 23.75V22.5H23.3333V23.75ZM24.0446 15.4671C24.1228 15.5453 24.1667 15.6514 24.1667 15.7621V21.25C24.1667 21.4801 23.9801 21.6666 23.75 21.6666H1.25C1.0199 21.6666 0.833349 21.4801 0.833349 21.25V15.762C0.833267 15.6514 0.877188 15.5453 0.955433 15.467L3.08917 13.3333H21.9108L24.0446 15.4671ZM22.5 12.4999V12.0833C22.5 11.8532 22.6866 11.6666 22.9167 11.6666H23.75C23.9801 11.6666 24.1667 11.8532 24.1667 12.0833C24.1667 12.3134 23.9801 12.4999 23.75 12.4999H22.5Z" fill="#2D3898"/>
<rect x="0.520874" y="0.520752" width="23.9583" height="2.08333" fill="#1089FF"/>
<path d="M24.1667 0H0.833343C0.373099 0 0 0.373099 0 0.833343V1.66669C0 2.58717 0.746199 3.33337 1.66669 3.33337H3.75002V3.75002C3.75002 3.98012 3.93657 4.16667 4.16667 4.16667C4.39677 4.16667 4.58332 3.98012 4.58332 3.75002V3.33337H7.08331V3.75002C7.08331 3.98012 7.26986 4.16667 7.49996 4.16667C7.73006 4.16667 7.91661 3.98012 7.91661 3.75002V3.33337H10.4166V3.75002C10.4166 3.98012 10.6032 4.16667 10.8333 4.16667C11.0634 4.16667 11.2499 3.98012 11.2499 3.75002V3.33337H13.7499V3.75002C13.7499 3.98012 13.9364 4.16667 14.1665 4.16667C14.3966 4.16667 14.5832 3.98012 14.5832 3.75002V3.33337H17.0832V3.75002C17.0832 3.98012 17.2697 4.16667 17.4998 4.16667C17.7299 4.16667 17.9165 3.98012 17.9165 3.75002V3.33337H20.4165V3.75002C20.4165 3.98012 20.603 4.16667 20.8331 4.16667C21.0632 4.16667 21.2498 3.98012 21.2498 3.75002V3.33337H23.3331C24.2536 3.33337 24.9998 2.58717 24.9998 1.66669V0.833343C25 0.373099 24.6269 0 24.1667 0ZM24.1667 1.66669C24.1667 2.12693 23.7936 2.50003 23.3333 2.50003H1.66669C1.20644 2.50003 0.833343 2.12693 0.833343 1.66669V0.833343H24.1667V1.66669Z" fill="#2D3898"/>
<path fill-rule="evenodd" clip-rule="evenodd" d="M6.25005 5.41674V4.5834C6.25005 4.3533 6.0635 4.16675 5.8334 4.16675C5.6033 4.16675 5.41675 4.3533 5.41675 4.5834V5.41674C5.41675 5.64684 5.6033 5.83339 5.8334 5.83339C6.0635 5.83339 6.25005 5.64684 6.25005 5.41674Z" fill="#2D3898"/>
<path fill-rule="evenodd" clip-rule="evenodd" d="M2.91668 5.41674V4.5834C2.91668 4.3533 2.73013 4.16675 2.50002 4.16675C2.26992 4.16675 2.08337 4.3533 2.08337 4.5834V5.41674C2.08337 5.64684 2.26992 5.83339 2.50002 5.83339C2.73013 5.83339 2.91668 5.64684 2.91668 5.41674Z" fill="#2D3898"/>
<path fill-rule="evenodd" clip-rule="evenodd" d="M22.9167 5.41674V4.5834C22.9167 4.3533 22.7301 4.16675 22.5 4.16675C22.2699 4.16675 22.0834 4.3533 22.0834 4.5834V5.41674C22.0834 5.64684 22.2699 5.83339 22.5 5.83339C22.7301 5.83339 22.9167 5.64684 22.9167 5.41674Z" fill="#2D3898"/>
<path fill-rule="evenodd" clip-rule="evenodd" d="M9.5833 5.41674V4.5834C9.5833 4.3533 9.39675 4.16675 9.16665 4.16675C8.93655 4.16675 8.75 4.3533 8.75 4.5834V5.41674C8.75 5.64684 8.93655 5.83339 9.16665 5.83339C9.39675 5.83339 9.5833 5.64684 9.5833 5.41674Z" fill="#2D3898"/>
<path fill-rule="evenodd" clip-rule="evenodd" d="M12.9167 5.41674V4.5834C12.9167 4.3533 12.7301 4.16675 12.5 4.16675C12.2699 4.16675 12.0834 4.3533 12.0834 4.5834V5.41674C12.0834 5.64684 12.2699 5.83339 12.5 5.83339C12.7301 5.83339 12.9167 5.64684 12.9167 5.41674Z" fill="#2D3898"/>
<path fill-rule="evenodd" clip-rule="evenodd" d="M16.2501 5.41674V4.5834C16.2501 4.3533 16.0635 4.16675 15.8334 4.16675C15.6033 4.16675 15.4167 4.3533 15.4167 4.5834V5.41674C15.4167 5.64684 15.6033 5.83339 15.8334 5.83339C16.0635 5.83339 16.2501 5.64684 16.2501 5.41674Z" fill="#2D3898"/>
<path fill-rule="evenodd" clip-rule="evenodd" d="M19.5833 5.41674V4.5834C19.5833 4.3533 19.3968 4.16675 19.1667 4.16675C18.9365 4.16675 18.75 4.3533 18.75 4.5834V5.41674C18.75 5.64684 18.9365 5.83339 19.1667 5.83339C19.3968 5.83339 19.5833 5.64684 19.5833 5.41674Z" fill="#2D3898"/>
<path fill-rule="evenodd" clip-rule="evenodd" d="M7.91668 6.24999V5.41665C7.91668 5.18655 7.73013 5 7.50002 5C7.26992 5 7.08337 5.18655 7.08337 5.41665V6.24999C7.08337 6.4801 7.26992 6.66664 7.50002 6.66664C7.73013 6.66664 7.91668 6.4801 7.91668 6.24999Z" fill="#2D3898"/>
<path fill-rule="evenodd" clip-rule="evenodd" d="M4.16665 6.66664C4.39675 6.66664 4.5833 6.4801 4.5833 6.24999V5.41665C4.5833 5.18655 4.39675 5 4.16665 5C3.93655 5 3.75 5.18655 3.75 5.41665V6.24999C3.75 6.4801 3.93655 6.66664 4.16665 6.66664Z" fill="#2D3898"/>
<path fill-rule="evenodd" clip-rule="evenodd" d="M11.2499 6.24999V5.41665C11.2499 5.18655 11.0634 5 10.8333 5C10.6032 5 10.4166 5.18655 10.4166 5.41665V6.24999C10.4166 6.4801 10.6032 6.66664 10.8333 6.66664C11.0634 6.66664 11.2499 6.4801 11.2499 6.24999Z" fill="#2D3898"/>
<path fill-rule="evenodd" clip-rule="evenodd" d="M14.5833 6.24999V5.41665C14.5833 5.18655 14.3968 5 14.1667 5C13.9365 5 13.75 5.18655 13.75 5.41665V6.24999C13.75 6.4801 13.9365 6.66664 14.1667 6.66664C14.3968 6.66664 14.5833 6.4801 14.5833 6.24999Z" fill="#2D3898"/>
<path fill-rule="evenodd" clip-rule="evenodd" d="M17.9167 6.24999V5.41665C17.9167 5.18655 17.7301 5 17.5 5C17.2699 5 17.0834 5.18655 17.0834 5.41665V6.24999C17.0834 6.4801 17.2699 6.66664 17.5 6.66664C17.7301 6.66664 17.9167 6.4801 17.9167 6.24999Z" fill="#2D3898"/>
<path fill-rule="evenodd" clip-rule="evenodd" d="M21.2499 6.24999V5.41665C21.2499 5.18655 21.0634 5 20.8333 5C20.6032 5 20.4166 5.18655 20.4166 5.41665V6.24999C20.4166 6.4801 20.6032 6.66664 20.8333 6.66664C21.0634 6.66664 21.2499 6.4801 21.2499 6.24999Z" fill="#2D3898"/>
</g>
<defs>
<clipPath id="clip0_1124_14844">
<rect width="25" height="25" fill="white"/>
</clipPath>
</defs>
</svg>
