<svg width="33" height="33" viewBox="0 0 33 33" fill="none" xmlns="http://www.w3.org/2000/svg">
<path d="M9.79736 22.6874C9.75559 22.6874 9.71383 22.6823 9.67155 22.672L7.60905 22.1563C7.33267 22.0872 7.1651 21.8073 7.23367 21.5314C7.30225 21.2555 7.5843 21.088 7.85913 21.156L9.92163 21.6716C10.198 21.7407 10.3656 22.0207 10.297 22.2966C10.2382 22.5312 10.0284 22.6874 9.79736 22.6874Z" fill="#9298A8"/>
<path d="M23.2026 22.6874C22.9716 22.6874 22.7617 22.5312 22.703 22.2966C22.6339 22.0207 22.802 21.7408 23.0783 21.6717L25.1408 21.156C25.4177 21.0875 25.6972 21.254 25.7663 21.5314C25.8354 21.8088 25.6673 22.0873 25.3909 22.1563L23.3284 22.672C23.2861 22.6828 23.2444 22.6874 23.2026 22.6874Z" fill="#9298A8"/>
<path d="M18.5625 22.6875H13.9219C13.6373 22.6875 13.4062 22.457 13.4062 22.1719C13.4062 21.8867 13.6373 21.6562 13.9219 21.6562H18.5625C18.8471 21.6562 19.0781 21.8867 19.0781 22.1719C19.0781 22.457 18.8471 22.6875 18.5625 22.6875Z" fill="#9298A8"/>
<path d="M25.2656 24.75H23.7188C23.4341 24.75 23.2031 24.5195 23.2031 24.2344C23.2031 23.9492 23.4341 23.7188 23.7188 23.7188H25.2656C25.5503 23.7188 25.7812 23.9492 25.7812 24.2344C25.7812 24.5195 25.5503 24.75 25.2656 24.75Z" fill="#9298A8"/>
<path d="M9.28125 24.75H7.73438C7.44975 24.75 7.21875 24.5195 7.21875 24.2344C7.21875 23.9492 7.44975 23.7188 7.73438 23.7188H9.28125C9.56588 23.7188 9.79688 23.9492 9.79688 24.2344C9.79688 24.5195 9.56588 24.75 9.28125 24.75Z" fill="#9298A8"/>
<path d="M29.0003 15.9998L26.9378 15.4842C26.6625 15.4146 26.3814 15.5827 26.3123 15.8596L25.8942 17.5312H7.38684L8.56556 13.4062H22.688C22.9726 13.4062 23.2036 13.1757 23.2036 12.8906C23.2036 12.6055 22.9726 12.375 22.688 12.375H8.86927C9.07603 11.8171 9.72469 11.3437 10.3125 11.3437H22.6875C23.3042 11.3437 23.9941 11.864 24.1642 12.459L24.997 15.3295C25.0764 15.6028 25.362 15.7611 25.6358 15.6812C25.9091 15.6023 26.0664 15.3161 25.9875 15.0428L25.1553 12.1744C24.8567 11.1308 23.7729 10.313 22.6875 10.313H10.3125C9.22711 10.313 8.14327 11.1308 7.84472 12.1744L6.73612 16.0545L6.68766 15.8601C6.61856 15.5837 6.33806 15.4156 6.0622 15.4847L3.9997 16.0003C3.77025 16.0576 3.60938 16.2638 3.60938 16.5005V18.0474C3.60938 18.3325 3.84038 18.563 4.125 18.563H5.42386C5.01755 19.0766 4.64062 19.7783 4.64062 20.6255V28.8755C4.64062 29.7283 5.33466 30.4224 6.1875 30.4224H9.28125C10.1341 30.4224 10.8281 29.7283 10.8281 28.8755V28.3599C10.8281 28.0747 10.5971 27.8442 10.3125 27.8442C10.0279 27.8442 9.79688 28.0747 9.79688 28.3599V28.8755C9.79688 29.1601 9.56536 29.3911 9.28125 29.3911H6.1875C5.90339 29.3911 5.67188 29.1601 5.67188 28.8755V27.3286H27.3281V28.8755C27.3281 29.1601 27.0966 29.3911 26.8125 29.3911H23.7188C23.4346 29.3911 23.2031 29.1601 23.2031 28.8755V28.3599C23.2031 28.0747 22.9721 27.8442 22.6875 27.8442C22.4029 27.8442 22.1719 28.0747 22.1719 28.3599V28.8755C22.1719 29.7283 22.8659 30.4224 23.7188 30.4224H26.8125C27.6653 30.4224 28.3594 29.7283 28.3594 28.8755V20.6255C28.3594 19.7783 27.9825 19.0766 27.5761 18.563H28.875C29.1596 18.563 29.3906 18.3325 29.3906 18.0474V16.5005C29.3906 16.2638 29.2292 16.0576 29.0003 15.9998ZM4.64062 17.5312V16.9027L5.81213 16.6098L6.04261 17.5312H4.64062ZM27.3281 26.2968H21.4897L20.9715 25.0006C20.6843 24.2813 19.8526 23.7187 19.0786 23.7187H15.4693C15.1846 23.7187 14.9536 23.9492 14.9536 24.2343C14.9536 24.5195 15.1846 24.75 15.4693 24.75H19.0786C19.4355 24.75 19.8815 25.0521 20.014 25.3837L20.3796 26.2968H12.6215L12.987 25.3837C13.1196 25.0521 13.5656 24.75 13.9224 24.75C14.207 24.75 14.438 24.5195 14.438 24.2343C14.438 23.9492 14.207 23.7187 13.9224 23.7187C13.1484 23.7187 12.3167 24.2818 12.0295 25.0006L11.5108 26.2968H5.67188V20.625C5.67188 19.603 6.55153 18.8156 6.87328 18.5625H26.1267C26.4495 18.8167 27.3281 19.6035 27.3281 20.625V26.2968ZM28.3594 17.5312H26.9574L27.1879 16.6098L28.3594 16.9027V17.5312Z" fill="#9298A8" stroke="#9298A8" stroke-width="0.4"/>
<path d="M3.60938 12.8906C3.32475 12.8906 3.09375 12.6601 3.09375 12.375C3.09375 10.9534 1.9372 9.79688 0.515625 9.79688C0.231 9.79688 0 9.56639 0 9.28125C0 8.99611 0.231 8.76562 0.515625 8.76562C1.9372 8.76562 3.09375 7.60908 3.09375 6.1875C3.09375 5.90236 3.32475 5.67188 3.60938 5.67188C3.894 5.67188 4.125 5.90236 4.125 6.1875C4.125 7.60908 5.28155 8.76562 6.70312 8.76562C6.98775 8.76562 7.21875 8.99611 7.21875 9.28125C7.21875 9.56639 6.98775 9.79688 6.70312 9.79688C5.28155 9.79688 4.125 10.9534 4.125 12.375C4.125 12.6601 3.894 12.8906 3.60938 12.8906ZM2.37342 9.28125C2.87925 9.58598 3.30464 10.0119 3.60938 10.5172C3.91411 10.0119 4.34002 9.58547 4.84533 9.28125C4.3395 8.97652 3.91411 8.55061 3.60938 8.0453C3.30464 8.55061 2.87873 8.97703 2.37342 9.28125Z" fill="#9298A8"/>
<path d="M30.4219 15.4688C30.1372 15.4688 29.9062 15.2383 29.9062 14.9531C29.9062 14.1003 29.2122 13.4062 28.3594 13.4062C28.0748 13.4062 27.8438 13.1758 27.8438 12.8906C27.8438 12.6055 28.0748 12.375 28.3594 12.375C29.2122 12.375 29.9062 11.681 29.9062 10.8281C29.9062 10.543 30.1372 10.3125 30.4219 10.3125C30.7065 10.3125 30.9375 10.543 30.9375 10.8281C30.9375 11.681 31.6315 12.375 32.4844 12.375C32.769 12.375 33 12.6055 33 12.8906C33 13.1758 32.769 13.4062 32.4844 13.4062C31.6315 13.4062 30.9375 14.1003 30.9375 14.9531C30.9375 15.2383 30.7065 15.4688 30.4219 15.4688ZM29.9047 12.8906C30.1001 13.0376 30.2749 13.2119 30.4219 13.4078C30.5688 13.2119 30.7436 13.0376 30.939 12.8906C30.7436 12.7437 30.5688 12.5694 30.4219 12.3735C30.2749 12.5694 30.1001 12.7437 29.9047 12.8906Z" fill="#9298A8"/>
<path d="M9.79688 7.73438C9.51225 7.73438 9.28125 7.50389 9.28125 7.21875C9.28125 6.36591 8.58722 5.67188 7.73438 5.67188C7.44975 5.67188 7.21875 5.44139 7.21875 5.15625C7.21875 4.87111 7.44975 4.64062 7.73438 4.64062C8.58722 4.64062 9.28125 3.94659 9.28125 3.09375C9.28125 2.80861 9.51225 2.57812 9.79688 2.57812C10.0815 2.57812 10.3125 2.80861 10.3125 3.09375C10.3125 3.94659 11.0065 4.64062 11.8594 4.64062C12.144 4.64062 12.375 4.87111 12.375 5.15625C12.375 5.44139 12.144 5.67188 11.8594 5.67188C11.0065 5.67188 10.3125 6.36591 10.3125 7.21875C10.3125 7.50389 10.0815 7.73438 9.79688 7.73438ZM9.2797 5.15625C9.47512 5.3032 9.64992 5.47748 9.79688 5.67342C9.94383 5.47748 10.1186 5.3032 10.314 5.15625C10.1186 5.0093 9.94383 4.83502 9.79688 4.63908C9.64992 4.83502 9.47512 5.0093 9.2797 5.15625Z" fill="#9298A8"/>
</svg>
