<svg width="28" height="28" viewBox="0 0 28 28" fill="none" xmlns="http://www.w3.org/2000/svg">
<path d="M11.4917 5.10424C10.6517 5.10424 10.0139 4.11257 9.79999 3.61674C10.01 2.87007 14.8069 2.93618 17.1792 3.06257C17.5583 3.0723 18.3167 3.19674 18.3167 3.61674C18.3167 4.14174 17.4417 5.10424 16.7125 5.10424H11.4917Z" fill="#EBEEF7"/>
<path d="M22.4089 2.8H16.8V2.33333C16.7985 1.04533 15.7547 0.00151667 14.4667 0H13.5333C12.2453 0.00151667 11.2015 1.04533 11.2 2.33333V2.8H5.59115C4.82319 2.80076 4.20077 3.42318 4.20001 4.19113V26.6089C4.20077 27.3768 4.82319 27.9992 5.59115 28H22.4089C23.1768 27.9992 23.7993 27.3768 23.8 26.6089V4.19113C23.7993 3.42318 23.1768 2.80076 22.4089 2.8ZM12.1333 2.33333C12.1333 1.56012 12.7601 0.933333 13.5333 0.933333H14.4667C15.2399 0.933333 15.8667 1.56012 15.8667 2.33333V2.8H12.1333V2.33333ZM17.6489 3.73333C17.4517 4.29117 16.925 4.6648 16.3333 4.66667H11.6667C11.0755 4.66422 10.5496 4.29071 10.3525 3.73333H17.6489ZM22.8667 26.6089C22.8664 26.8616 22.6616 27.0664 22.4089 27.0667H5.59115C5.33839 27.0664 5.13358 26.8616 5.13335 26.6089V4.19113C5.13358 3.93837 5.33845 3.73357 5.59115 3.73333H9.38001C9.60325 4.81897 10.5583 5.5986 11.6667 5.6H16.3333C17.4417 5.5986 18.3968 4.81897 18.62 3.73333H22.4093C22.662 3.73357 22.8669 3.93843 22.8671 4.19113L22.8667 26.6089Z" fill="#9298A8"/>
<path d="M15.82 8.19136C15.705 7.96071 15.4248 7.86691 15.1941 7.98188C15.083 8.03724 14.9986 8.13466 14.9594 8.25243L14.0368 11.0212L13.5174 9.2049C13.4464 8.95716 13.1879 8.81395 12.9402 8.885C12.8268 8.91755 12.7299 8.99181 12.6691 9.0929L11.9803 10.2409L11.6662 7.41523C11.638 7.15903 11.4075 6.97417 11.1513 7.00235C10.97 7.0223 10.817 7.14602 10.7594 7.3191L9.28105 11.7524L8.36452 9.61417C8.29008 9.44255 8.12039 9.33201 7.93332 9.33323H6.06665V10.2666H7.62578L8.90445 13.2504C8.97801 13.422 9.14665 13.5333 9.33332 13.5333H9.35292C9.54647 13.5252 9.71493 13.3984 9.77618 13.2146L10.9709 9.63056L11.2042 11.7184C11.2326 11.9746 11.4632 12.1592 11.7194 12.1308C11.8641 12.1148 11.993 12.0322 12.068 11.9074L12.915 10.4962L13.5529 12.7288C13.6091 12.9255 13.787 13.0627 13.9916 13.0671C14.1955 13.0694 14.3779 12.9407 14.4443 12.7479L15.4877 9.61656L15.9171 10.4757C15.996 10.6333 16.157 10.7329 16.3333 10.7333H21.9333V9.79996H16.6217L15.82 8.19136Z" fill="#9298A8"/>
<path d="M21.9333 16.3333H6.06665V17.2666H21.9333V16.3333Z" fill="#9298A8"/>
<path d="M21.9333 18.2H6.06665V19.1333H21.9333V18.2Z" fill="#9298A8"/>
<path d="M21.9333 20.0667H6.06665V21H21.9333V20.0667Z" fill="#9298A8"/>
<path d="M21.9333 21.9333H6.06665V22.8667H21.9333V21.9333Z" fill="#9298A8"/>
<path d="M21.9333 23.8H6.06665V24.7334H21.9333V23.8Z" fill="#9298A8"/>
</svg>
