<svg width="44" height="32" viewBox="0 0 44 32" fill="none" xmlns="http://www.w3.org/2000/svg">
<path fill-rule="evenodd" clip-rule="evenodd" d="M17.84 6.94482H26.2226V15.3275H17.84V6.94482Z" fill="#1089FF"/>
<path fill-rule="evenodd" clip-rule="evenodd" d="M29.4166 27.0524H28.9972C29.0015 26.9932 29.0015 26.9339 28.9972 26.8747V4.48438C28.9972 3.79739 28.4403 3.24047 27.7533 3.24047H15.5985C14.9116 3.24047 14.3546 3.79739 14.3546 4.48438V13.7248C13.1974 14.0056 12.1846 14.7043 11.5114 15.6867C10.6858 16.8761 10.4307 18.3707 10.8148 19.7667C11.3266 21.7285 11.3906 24.33 10.3315 25.4105C9.72172 25.9509 8.86396 26.1121 8.09957 25.8298C7.27735 25.6997 6.57534 25.1658 6.23016 24.4082C5.09998 21.7996 7.92187 16.8666 7.92898 16.8453C8.09957 16.5894 12.0303 10.4836 8.01427 6.89401C7.85079 6.72341 3.97691 2.62918 0.984423 3.02723C0.6802 3.0665 0.465362 3.34496 0.50463 3.64919C0.543905 3.95341 0.82236 4.16825 1.12658 4.12898C1.84574 4.0858 2.56258 4.2459 3.19502 4.591L2.39892 5.55059C1.96746 6.0852 2.05116 6.86833 2.58577 7.29978C2.59448 7.3068 2.60327 7.31373 2.61216 7.32049L5.28478 9.4529C5.50451 9.629 5.77799 9.72434 6.05956 9.723H6.16618C6.49386 9.68604 6.79329 9.51971 6.99782 9.26098L7.7726 8.28718C10.1751 11.3579 7.0618 16.2482 6.9836 16.3264C6.85566 16.5467 3.87028 21.7711 5.20659 24.856C5.7006 25.9272 6.69386 26.6835 7.85789 26.8747C8.2164 26.9616 8.58371 27.0069 8.95253 27.0098C9.74952 27.0337 10.5211 26.7277 11.0849 26.1639C12.5065 24.6783 12.3928 21.6503 11.8384 19.5037C11.2487 17.5276 12.3671 15.4466 14.3404 14.8479V26.8747C14.3362 26.9339 14.3362 26.9932 14.3404 27.0524H13.985C13.2982 27.0367 12.7287 27.5807 12.713 28.2675C12.7128 28.2771 12.7127 28.2867 12.7127 28.2963V30.1657C12.7125 30.8527 13.2692 31.4098 13.9562 31.41C13.9658 31.41 13.9754 31.4099 13.985 31.4096H29.4166C30.1036 31.4096 30.6605 30.8527 30.6605 30.1657V28.2963C30.6605 27.6094 30.1036 27.0524 29.4166 27.0524V27.0524ZM6.95518 7.62614L6.16619 8.59994C6.13607 8.63655 6.09253 8.65956 6.04535 8.66391C5.99968 8.66987 5.95348 8.65698 5.91741 8.62837L3.24479 6.49596C3.17708 6.42683 3.17708 6.31631 3.24479 6.24718L4.03378 5.26627C4.0639 5.22966 4.10744 5.20665 4.15462 5.2023C4.20029 5.19634 4.24649 5.20923 4.28256 5.23784L6.95518 7.37025C6.99241 7.39984 7.01561 7.44364 7.01916 7.49109C7.01871 7.54333 6.99535 7.59273 6.95518 7.62614ZM15.4066 4.48438C15.4066 4.3862 15.4862 4.30668 15.5843 4.30668H27.7675C27.8657 4.30668 27.9452 4.3862 27.9452 4.48438V26.8747C27.9452 26.9729 27.8657 27.0524 27.7675 27.0524H15.5985C15.5007 27.0602 15.4151 26.9873 15.4072 26.8895C15.4068 26.8846 15.4065 26.8796 15.4066 26.8747V4.48438ZM29.6227 30.1657C29.6227 30.2639 29.5432 30.3434 29.445 30.3434H13.985C13.8868 30.3434 13.8073 30.2639 13.8073 30.1657V28.2963C13.8073 28.1981 13.8868 28.1186 13.985 28.1186H29.4166C29.5134 28.1029 29.6048 28.1687 29.6204 28.2656C29.6221 28.2757 29.6228 28.286 29.6227 28.2963L29.6227 30.1657Z" fill="#2D3898"/>
<path fill-rule="evenodd" clip-rule="evenodd" d="M25.3578 5.99854H17.9939C17.3069 5.99854 16.75 6.55546 16.75 7.24245V14.6135C16.75 15.3005 17.3069 15.8574 17.9939 15.8574H25.3578C26.0448 15.8574 26.6017 15.3005 26.6017 14.6135V7.24245C26.6017 6.55554 26.0448 5.99854 25.3578 5.99854V5.99854ZM25.5355 14.6206C25.5317 14.7159 25.4533 14.7913 25.3578 14.7912H17.9939C17.8957 14.7912 17.8162 14.7117 17.8162 14.6135V7.24244C17.8162 7.14427 17.8957 7.06475 17.9939 7.06475H25.3578C25.456 7.06475 25.5355 7.14427 25.5355 7.24244V14.6206Z" fill="#2D3898"/>
<path fill-rule="evenodd" clip-rule="evenodd" d="M24.5265 17.8691H18.8401C18.5456 17.8691 18.307 18.1078 18.307 18.4022C18.307 18.6967 18.5456 18.9353 18.8401 18.9353H24.5265C24.821 18.9353 25.0596 18.6967 25.0596 18.4022C25.0596 18.1078 24.821 17.8691 24.5265 17.8691Z" fill="#2D3898"/>
</svg>
