<svg width="30" height="32" viewBox="0 0 30 32" fill="none" xmlns="http://www.w3.org/2000/svg">
<path d="M4.32141 26.0003H8.64375C8.76808 26.0003 8.8873 25.9509 8.97521 25.863C9.06312 25.7751 9.1125 25.6559 9.1125 25.5315V24.8448H10.8914L12.3281 26.133C12.9552 26.6955 13.7681 27.0063 14.6105 27.0058H17.2355V27.9433C17.2355 28.7093 17.5398 29.444 18.0815 29.9857C18.6232 30.5274 19.3578 30.8317 20.1239 30.8317C20.89 30.8317 21.6247 30.5274 22.1663 29.9857C22.708 29.444 23.0123 28.7093 23.0123 27.9433V27.0058H23.115C23.5402 27.0197 23.9536 26.8649 24.265 26.5751C24.5765 26.2852 24.7606 25.884 24.7772 25.4589V24.6648C24.777 24.3854 24.6966 24.112 24.5456 23.8769C24.8085 23.755 25.0318 23.5615 25.1897 23.3186C25.3476 23.0757 25.4339 22.7931 25.4386 22.5034V21.7122C25.4376 21.5094 25.3952 21.309 25.3141 21.1231C25.2331 20.9373 25.115 20.7699 24.967 20.6312C25.115 20.4926 25.2331 20.3252 25.3141 20.1393C25.3952 19.9535 25.4376 19.7531 25.4386 19.5503V18.7586C25.4339 18.4689 25.3476 18.1865 25.1896 17.9436C25.0317 17.7008 24.8085 17.5074 24.5456 17.3856C24.6967 17.1504 24.777 16.8767 24.7772 16.5972V15.8055C24.7606 15.3804 24.5765 14.9791 24.265 14.6893C23.9536 14.3995 23.5402 14.2446 23.115 14.2586H23.0105V11.6575C23.9573 11.141 24.7479 10.3796 25.2996 9.45297C25.8514 8.52629 26.1439 7.46838 26.1468 6.38989C26.1496 5.3114 25.8626 4.25197 25.3157 3.32241C24.7688 2.39286 23.9822 1.62734 23.0381 1.10593C22.9668 1.06647 22.8864 1.0463 22.8049 1.04741C22.7234 1.04851 22.6436 1.07084 22.5734 1.11221C22.5031 1.15357 22.4449 1.21254 22.4044 1.28328C22.3639 1.35402 22.3426 1.4341 22.3425 1.51561V6.09671L20.123 7.28921L17.9034 6.09671V1.51561C17.9034 1.4341 17.882 1.35402 17.8415 1.28328C17.801 1.21254 17.7428 1.15357 17.6726 1.11221C17.6023 1.07084 17.5225 1.04851 17.441 1.04741C17.3595 1.0463 17.2791 1.06647 17.2078 1.10593C16.2635 1.62709 15.4766 2.3925 14.9295 3.32206C14.3823 4.25162 14.0951 5.31114 14.0979 6.38975C14.1007 7.46836 14.3934 8.5264 14.9452 9.45312C15.4971 10.3799 16.288 11.1412 17.235 11.6575V11.8919H14.7834C14.2362 11.892 13.697 12.0234 13.2111 12.275C12.7251 12.5267 12.3066 12.8912 11.9906 13.338L10.8281 14.9837H9.1125V14.297C9.1125 14.1727 9.06312 14.0535 8.97521 13.9656C8.8873 13.8777 8.76808 13.8283 8.64375 13.8283H4.32141C4.19709 13.8283 4.07786 13.8777 3.98995 13.9656C3.90205 14.0535 3.85266 14.1727 3.85266 14.297V25.5315C3.85266 25.6559 3.90205 25.7751 3.98995 25.863C4.07786 25.9509 4.19709 26.0003 4.32141 26.0003ZM8.175 25.0628H4.79016V22.9722H8.175V25.0628ZM22.0781 27.9405C22.0781 28.4579 21.8726 28.9541 21.5067 29.32C21.1408 29.6858 20.6446 29.8914 20.1272 29.8914C19.6098 29.8914 19.1135 29.6858 18.7477 29.32C18.3818 28.9541 18.1763 28.4579 18.1763 27.9405V27.003H19.0514C18.9807 27.1881 18.9561 27.3877 18.9797 27.5845C19.0033 27.7813 19.0744 27.9695 19.1868 28.1327C19.2992 28.2959 19.4496 28.4294 19.6251 28.5216C19.8005 28.6138 19.9958 28.662 20.194 28.662C20.3922 28.662 20.5874 28.6138 20.7629 28.5216C20.9384 28.4294 21.0888 28.2959 21.2012 28.1327C21.3136 27.9695 21.3847 27.7813 21.4083 27.5845C21.4319 27.3877 21.4072 27.1881 21.3366 27.003H22.0781V27.9405ZM20.3972 27.6423C20.3571 27.6824 20.3059 27.7097 20.2503 27.7207C20.1947 27.7318 20.137 27.7261 20.0846 27.7044C20.0322 27.6826 19.9874 27.6459 19.9559 27.5987C19.9244 27.5515 19.9076 27.4961 19.9076 27.4394C19.9076 27.3826 19.9244 27.3272 19.9559 27.28C19.9874 27.2328 20.0322 27.1961 20.0846 27.1744C20.137 27.1526 20.1947 27.1469 20.2503 27.158C20.3059 27.169 20.3571 27.1963 20.3972 27.2364C20.4505 27.2906 20.4802 27.3637 20.4798 27.4397C20.4795 27.5158 20.4491 27.5886 20.3953 27.6423H20.3972ZM18.1725 13.2315V11.8408H22.0739V13.2315V14.2562H18.1725V13.2315ZM15.0356 6.37655C15.0363 5.60948 15.2102 4.85246 15.5445 4.16205C15.8787 3.47163 16.3647 2.86565 16.9659 2.38936V6.37655C16.9659 6.46129 16.9889 6.54444 17.0324 6.61715C17.0759 6.68987 17.1383 6.74944 17.213 6.78952L19.9008 8.23467C19.969 8.27135 20.0453 8.29055 20.1227 8.29055C20.2002 8.29055 20.2765 8.27135 20.3447 8.23467L23.0334 6.78952C23.108 6.74938 23.1703 6.68978 23.2137 6.61707C23.2571 6.54435 23.28 6.46124 23.28 6.37655V2.38983C23.9493 2.91833 24.4747 3.607 24.8075 4.39222C25.1403 5.17744 25.2698 6.03387 25.1841 6.88238C25.0983 7.73089 24.8001 8.54411 24.317 9.24689C23.8339 9.94967 23.1814 10.5193 22.4198 10.9033H17.8261C16.9856 10.4834 16.2791 9.83718 15.7861 9.0374C15.293 8.23762 15.0331 7.31607 15.0356 6.37655ZM11.0709 15.9212C11.146 15.9213 11.2199 15.9033 11.2866 15.8688C11.3532 15.8342 11.4106 15.7842 11.4539 15.723L12.7561 13.8803C12.9855 13.556 13.2893 13.2915 13.6421 13.1089C13.9948 12.9263 14.3862 12.8309 14.7834 12.8308H17.235V14.2562H15.2883V15.1937H23.1164C23.2929 15.1803 23.4677 15.2366 23.6032 15.3505C23.7386 15.4644 23.8241 15.6269 23.8411 15.8031V16.5948C23.8248 16.7715 23.7396 16.9347 23.6041 17.0493C23.4685 17.1638 23.2934 17.2204 23.1164 17.207H20.123V18.1445H23.7792C23.9557 18.1311 24.1304 18.1874 24.2658 18.3013C24.4012 18.4152 24.4865 18.5777 24.5034 18.7539V19.5456C24.4872 19.7223 24.4022 19.8855 24.2667 20C24.1312 20.1145 23.9561 20.1712 23.7792 20.1578H20.123V21.0953H23.7792C23.9561 21.0819 24.1312 21.1386 24.2667 21.2531C24.4022 21.3676 24.4872 21.5308 24.5034 21.7075V22.4987C24.4872 22.6754 24.4022 22.8386 24.2667 22.9531C24.1312 23.0677 23.9561 23.1243 23.7792 23.1109H20.123V24.0484H23.1164C23.2929 24.035 23.4677 24.0912 23.6032 24.2052C23.7386 24.3191 23.8241 24.4816 23.8411 24.6578V25.4495C23.8242 25.6258 23.7388 25.7883 23.6033 25.9023C23.4678 26.0162 23.2929 26.0725 23.1164 26.0589H14.6119C14.0003 26.0593 13.4101 25.8336 12.9548 25.4251L11.3836 24.0189C11.2976 23.9419 11.1863 23.8994 11.0709 23.8994H9.1125V15.9212H11.0709ZM8.175 14.7658V22.0347H4.79016V14.7658H8.175Z" fill="#9298A8" stroke="#9298A8" stroke-width="0.5"/>
<path d="M6.48283 23.4851C6.37619 23.485 6.27192 23.5166 6.18321 23.5757C6.0945 23.6349 6.02534 23.7191 5.98447 23.8176C5.94359 23.916 5.93285 24.0245 5.9536 24.129C5.97435 24.2336 6.02565 24.3297 6.10102 24.4052C6.17639 24.4806 6.27244 24.532 6.37702 24.5528C6.4816 24.5737 6.59001 24.563 6.68854 24.5222C6.78707 24.4815 6.87129 24.4124 6.93054 24.3237C6.9898 24.235 7.02142 24.1308 7.02142 24.0242C7.02142 23.8813 6.96469 23.7442 6.8637 23.6432C6.76271 23.5421 6.62572 23.4852 6.48283 23.4851Z" fill="#9298A8"/>
<path d="M18 27H22V28.5C22 29.3284 21.3284 30 20.5 30H19.5C18.6716 30 18 29.3284 18 28.5V27Z" fill="#EBEEF7"/>
<rect x="18" y="12" width="4" height="2" fill="#EBEEF7"/>
<rect x="5" y="15" width="3" height="10" fill="#EBEEF7"/>
</svg>
