<svg width="28" height="29" viewBox="0 0 28 29" fill="none" xmlns="http://www.w3.org/2000/svg">
<path fill-rule="evenodd" clip-rule="evenodd" d="M9.33838 2.11108H13.1092V4.37356H9.33838V2.11108Z" fill="#1089FF"/>
<path fill-rule="evenodd" clip-rule="evenodd" d="M15.6458 8.6499L19.9119 12.9161L18.3121 14.5159L14.0459 10.2497L15.6458 8.6499Z" fill="#1089FF"/>
<path fill-rule="evenodd" clip-rule="evenodd" d="M15.9979 19.3057L15.9453 22.3218L13.6832 22.2823L13.7358 19.2662L15.9979 19.3057Z" fill="#1089FF"/>
<path fill-rule="evenodd" clip-rule="evenodd" d="M16.8178 8.41556C16.0625 7.61148 14.793 7.56602 13.98 8.32971C13.1726 9.09005 13.134 10.3591 13.8947 11.1668L16.9675 14.4318C17.7154 15.226 18.9864 15.2879 19.8047 14.5171C20.6122 13.7567 20.6508 12.4876 19.8901 11.68L16.8178 8.41556ZM18.8871 13.5427C18.6215 13.7929 18.1981 13.7869 17.9415 13.5143L14.8686 10.2494C14.6137 9.97864 14.6296 9.55553 14.8965 9.3042C15.1656 9.05133 15.5894 9.06221 15.8427 9.33192L18.9156 12.5969C19.1692 12.8662 19.1564 13.2891 18.8871 13.5427L18.8871 13.5427Z" fill="#2D3898"/>
<path fill-rule="evenodd" clip-rule="evenodd" d="M23.7694 11.1365L17.4412 4.41291C17.2918 4.25413 17.0833 4.16406 16.8652 4.16406H14.4922V1.79101C14.4922 1.35416 14.138 1 13.7012 1H8.95508C8.51823 1 8.16406 1.35416 8.16406 1.79101V4.65433L5.19982 7.9891C5.07114 8.13391 5 8.3209 5 8.51465V22.463C5.00005 23.0702 5.22929 23.6248 5.6057 24.0449C5.22928 24.4651 5 25.0198 5 25.627C5 26.9354 6.06455 28 7.37303 28H21.6113C22.9198 28 23.9844 26.9354 23.9844 25.627C23.9844 25.0196 23.7547 24.4651 23.3782 24.0449C23.7548 23.6247 23.9844 23.0702 23.9844 22.4629V11.6787C23.9844 11.4772 23.9075 11.2833 23.7694 11.1366L23.7694 11.1365ZM9.74704 2.5825H12.9111V4.16454H9.74704V2.5825ZM21.6123 26.4182H7.37397C6.93781 26.4182 6.58297 26.0634 6.58297 25.6272C6.58297 25.191 6.93781 24.8362 7.37397 24.8362C7.81083 24.8362 8.165 24.482 8.165 24.0452C8.165 23.6083 7.81084 23.2541 7.37397 23.2541C6.93781 23.2541 6.58297 22.8993 6.58297 22.4631C6.58297 22.027 6.93781 21.6721 7.37397 21.6721C7.81083 21.6721 8.165 21.3179 8.165 20.8811C8.165 20.4442 7.81084 20.0901 7.37397 20.0901C7.09664 20.0901 6.83054 20.1383 6.58297 20.2261V8.81563L9.31123 5.74633H16.5244L22.4033 11.9927V20.2261C22.1557 20.1383 21.8896 20.0901 21.6123 20.0901C21.1754 20.0901 20.8213 20.4442 20.8213 20.8811C20.8213 21.3179 21.1754 21.6721 21.6123 21.6721C22.0484 21.6721 22.4033 22.0269 22.4033 22.4631C22.4033 22.8993 22.0484 23.2541 21.6123 23.2541C21.503 23.2541 21.399 23.2763 21.3043 23.3163C21.0205 23.4364 20.8213 23.7175 20.8213 24.0452C20.8213 24.3728 21.0205 24.6539 21.3043 24.774C21.399 24.814 21.503 24.8362 21.6123 24.8362C22.0484 24.8362 22.4033 25.191 22.4033 25.6272C22.4033 26.0633 22.0484 26.4182 21.6123 26.4182L21.6123 26.4182Z" fill="#2D3898"/>
<path fill-rule="evenodd" clip-rule="evenodd" d="M15.0421 17.9665C14.9172 17.7857 14.7114 17.6777 14.4916 17.6777C14.2718 17.6777 14.0661 17.7857 13.9411 17.9665C13.9269 17.9872 13.5877 18.4794 13.2439 19.072C12.5632 20.2453 12.4845 20.7474 12.4845 21.0229C12.4845 22.1297 13.3849 23.0301 14.4916 23.0301C15.5984 23.0301 16.4988 22.1297 16.4988 21.0229C16.4988 20.7474 16.42 20.2453 15.7394 19.072C15.3956 18.4794 15.0564 17.9872 15.0421 17.9665H15.0421ZM14.4918 21.6918C14.1229 21.6918 13.8228 21.3916 13.8228 21.0234C13.8282 20.8189 14.1065 20.2359 14.4919 19.5865C14.8771 20.2352 15.1551 20.818 15.1608 21.0232C15.1605 21.3919 14.8605 21.6918 14.4918 21.6918Z" fill="#2D3898"/>
</svg>
