<svg width="31" height="31" viewBox="0 0 31 31" fill="none" xmlns="http://www.w3.org/2000/svg">
<circle cx="10.3334" cy="22.7333" r="3.1" fill="#EBEEF7"/>
<circle cx="23.767" cy="22.7333" r="3.1" fill="#EBEEF7"/>
<path d="M23.4125 18.4307C21.2578 18.4307 19.5049 20.1836 19.5049 22.3382C19.5049 24.4929 21.2578 26.2458 23.4125 26.2458C25.5675 26.2458 27.32 24.4929 27.32 22.3382C27.32 20.1836 25.5671 18.4307 23.4125 18.4307ZM23.4125 24.292C22.335 24.292 21.4587 23.4157 21.4587 22.3382C21.4587 21.2607 22.335 20.3845 23.4125 20.3845C24.4899 20.3845 25.3662 21.2607 25.3662 22.3382C25.3662 23.4158 24.4899 24.292 23.4125 24.292Z" fill="#9298A8"/>
<path d="M10.0619 18.4307C7.90719 18.4307 6.1543 20.1836 6.1543 22.3382C6.1543 24.4929 7.90719 26.2458 10.0619 26.2458C12.2166 26.2458 13.9694 24.4929 13.9694 22.3382C13.9694 20.1836 12.2166 18.4307 10.0619 18.4307ZM10.0619 24.292C8.98438 24.292 8.10808 23.4157 8.10808 22.3382C8.10808 21.2607 8.98438 20.3845 10.0619 20.3845C11.1391 20.3845 12.0157 21.2607 12.0157 22.3382C12.0157 23.4158 11.1394 24.292 10.0619 24.292Z" fill="#9298A8"/>
<path d="M19.6338 13.4333V8.2666H24.8005C25.2138 8.2666 27.0393 11.711 27.9005 13.4333H19.6338Z" fill="#EBEEF7"/>
<path d="M26.0443 7.24597C25.8782 6.91611 25.5406 6.70801 25.1713 6.70801H20.0263V8.6618H24.5688L27.2289 13.9526L28.975 13.0747L26.0443 7.24597Z" fill="#9298A8"/>
<path d="M20.4826 21.394H13.0908V23.3478H20.4826V21.394Z" fill="#9298A8"/>
<path d="M7.13095 21.394H3.74444C3.20485 21.394 2.76758 21.8314 2.76758 22.3709C2.76758 22.9105 3.20491 23.3478 3.74444 23.3478H7.13101C7.6706 23.3478 8.10787 22.9104 8.10787 22.3709C8.10787 21.8313 7.67054 21.394 7.13095 21.394Z" fill="#9298A8"/>
<path d="M30.7945 15.4218L28.873 12.947C28.6884 12.7086 28.4035 12.5692 28.1016 12.5692H21.0028V5.73101C21.0028 5.19142 20.5655 4.75415 20.026 4.75415H3.74444C3.20485 4.75415 2.76758 5.19148 2.76758 5.73101C2.76758 6.27055 3.20491 6.70788 3.74444 6.70788H19.0491V13.5461C19.0491 14.0857 19.4864 14.523 20.0259 14.523H27.6232L29.0459 16.3556V21.3938H26.3431C25.8035 21.3938 25.3663 21.8311 25.3663 22.3706C25.3663 22.9102 25.8036 23.3475 26.3431 23.3475H30.0228C30.5623 23.3475 30.9996 22.9102 30.9997 22.3706V16.021C30.9997 15.8041 30.9274 15.5931 30.7945 15.4218Z" fill="#9298A8"/>
<path d="M7.0663 16.4443H2.57257C2.03297 16.4443 1.5957 16.8817 1.5957 17.4212C1.5957 17.9608 2.03303 18.3981 2.57257 18.3981H7.06624C7.60583 18.3981 8.0431 17.9607 8.0431 17.4212C8.04316 16.8817 7.60583 16.4443 7.0663 16.4443Z" fill="#9298A8"/>
<path d="M9.31302 12.6018H0.976863C0.43733 12.6018 0 13.0391 0 13.5787C0 14.1183 0.43733 14.5556 0.976863 14.5556H9.31302C9.85261 14.5556 10.2899 14.1183 10.2899 13.5787C10.2899 13.0392 9.85261 12.6018 9.31302 12.6018Z" fill="#9298A8"/>
<path d="M10.9087 8.75952H2.57257C2.03297 8.75952 1.5957 9.19685 1.5957 9.73638C1.5957 10.276 2.03303 10.7132 2.57257 10.7132H10.9087C11.4483 10.7132 11.8856 10.2759 11.8856 9.73638C11.8856 9.19685 11.4483 8.75952 10.9087 8.75952Z" fill="#9298A8"/>
</svg>
