<svg width="28" height="28" viewBox="0 0 28 28" fill="none" xmlns="http://www.w3.org/2000/svg">
<rect x="10.2667" y="10.2666" width="7.46667" height="7.46667" fill="#EBEEF7"/>
<rect x="6.53333" y="18.6667" width="14.9333" height="7.46667" fill="#EBEEF7"/>
<path d="M25.8961 8.86566L14.4881 0.716543C14.196 0.508223 13.804 0.508223 13.512 0.716543L2.10478 8.86482C1.66322 9.17898 1.40002 9.68998 1.40002 10.2321V25.76C1.40002 26.6863 2.1535 27.44 3.08002 27.44H24.92C25.8465 27.44 26.6 26.6863 26.6 25.76V10.2321C26.6 9.68998 26.3368 9.17898 25.8961 8.86566ZM21.56 25.76H14.84V19.04H21.56V25.76ZM17.36 17.36H10.64V10.64H17.36V17.36ZM13.16 19.04V25.76H6.44002V19.04H13.16ZM23.24 25.76V19.04C23.24 18.1138 22.4865 17.36 21.56 17.36H19.04V10.64C19.04 9.71378 18.2865 8.96002 17.36 8.96002H10.64C9.7135 8.96002 8.96002 9.71378 8.96002 10.64V17.36H6.44002C5.5135 17.36 4.76002 18.1138 4.76002 19.04V25.76H3.08002V10.2321L14 2.43182L24.92 10.2321L24.9211 25.76H23.24Z" fill="#9298A8"/>
</svg>
