<svg width="28" height="28" viewBox="0 0 28 28" fill="none" xmlns="http://www.w3.org/2000/svg">
<path fill-rule="evenodd" clip-rule="evenodd" d="M11.247 20.7439C14.9739 20.7439 16.8704 17.4709 16.8704 13.4335C16.8704 9.39604 14.9739 6.12305 11.247 6.12305C7.52013 6.12305 4.4989 9.39604 4.4989 13.4335C4.4989 17.4709 7.52013 20.7439 11.247 20.7439Z" fill="#1089FF"/>
<path fill-rule="evenodd" clip-rule="evenodd" d="M23.9993 0.5H19.334C17.709 0.5 16.3304 1.57456 15.8711 3.05033C14.4592 2.44393 12.921 2.125 11.375 2.125C5.10283 2.125 0 7.22783 0 13.5C0 19.7722 5.10283 24.875 11.375 24.875C12.921 24.875 14.4591 24.5561 15.8712 23.9497C16.3304 25.4255 17.7091 26.5 19.334 26.5H23.9993C25.9985 26.5 27.625 24.8735 27.625 22.8743V4.12569C27.625 2.12646 25.9985 0.5 23.9993 0.5H23.9993ZM26 18.4885L22.4792 20.8975V17.9012L26 15.4922V18.4885ZM20.8542 7.96973V10.966L17.3333 8.55702V5.56073L20.8542 7.96973ZM11.3741 14.8546C10.6274 14.8546 10.0199 14.2472 10.0199 13.5005C10.0199 12.7538 10.6274 12.1463 11.3741 12.1463C12.1207 12.1463 12.7282 12.7538 12.7282 13.5005C12.7282 14.2472 12.1207 14.8546 11.3741 14.8546ZM15.7088 12.6871H14.2411C14.1866 12.495 14.1132 12.3108 14.0231 12.1364L15.7088 10.4508V12.6871ZM14.241 14.3125H15.7087V16.8197L13.9263 15.0373C14.0618 14.8133 14.1679 14.5698 14.241 14.3125ZM17.3333 10.526L20.8542 12.935V15.9313L17.3333 13.5223V10.526ZM12.9123 10.9498C12.6883 10.8143 12.4448 10.7081 12.1875 10.6351V7.05172C13.3752 7.20057 14.4979 7.67393 15.4363 8.42577L12.9123 10.9498ZM10.5629 10.6344C10.3056 10.7075 10.0621 10.8136 9.8381 10.9492L7.31626 8.42731C8.22978 7.69486 9.34432 7.20337 10.5629 7.05078V10.6344ZM6.18369 9.5929L8.72741 12.1367C8.63728 12.311 8.56399 12.4952 8.50945 12.6874H4.92578C5.07002 11.5357 5.51679 10.4768 6.18369 9.5929ZM8.50946 14.3125C8.58253 14.5698 8.68864 14.8133 8.82417 15.0373L6.30232 17.5591C5.56989 16.6456 5.07842 15.5311 4.92578 14.3125H8.50946ZM10.0114 16.1479C10.1857 16.238 10.3699 16.3113 10.5621 16.3659V19.9496C9.41046 19.8053 8.35162 19.3585 7.46766 18.6916L10.0114 16.1479ZM12.1875 16.3659C12.3796 16.3113 12.5639 16.238 12.7382 16.1479L15.2839 18.6936C14.3776 19.3765 13.3111 19.8081 12.1876 19.9491V16.3659H12.1875ZM17.3333 15.4922L20.8542 17.9012V20.8975L17.3333 18.4885V15.4922ZM26 13.5223L22.4792 15.9313V12.935L26 10.526V13.5223ZM26 8.55702L22.4792 10.966V7.96974L26 5.56073V8.55702ZM25.9387 3.63419L22.4792 6.00127V2.125H23.9993C24.933 2.125 25.7191 2.7679 25.9387 3.63419ZM19.3348 2.125H20.855V6.00127L17.3954 3.63419C17.615 2.7679 18.4012 2.125 19.3348 2.125ZM1.625 13.5C1.625 8.12384 5.99885 3.75 11.375 3.75C12.9003 3.75 14.357 4.09179 15.7083 4.76437V6.62662C14.4197 5.81304 12.9222 5.375 11.375 5.375C6.89488 5.375 3.25 9.01987 3.25 13.5C3.25 17.9801 6.89488 21.625 11.375 21.625C12.9207 21.625 14.4193 21.1867 15.7083 20.3733V22.2356C14.357 22.9082 12.9003 23.25 11.375 23.25C5.99885 23.25 1.625 18.8762 1.625 13.5ZM17.3333 22.8743V20.457L20.8542 22.866V24.875H19.334C18.2308 24.875 17.3333 23.9775 17.3333 22.8743L17.3333 22.8743ZM23.9993 24.875H22.4792V22.866L26 20.457V22.8743C26 23.9775 25.1025 24.875 23.9993 24.875V24.875Z" fill="#2D3898"/>
</svg>
