<svg width="36" height="26" viewBox="0 0 36 26" fill="none" xmlns="http://www.w3.org/2000/svg">
<path fill-rule="evenodd" clip-rule="evenodd" d="M26.0245 9.07373V12.6058H31.8801L30.0208 9.07373H26.0245Z" fill="#EBEEF7"/>
<path fill-rule="evenodd" clip-rule="evenodd" d="M27.5636 25.905C29.6084 25.905 31.2662 24.2473 31.2662 22.2024C31.2662 20.1575 29.6084 18.4998 27.5636 18.4998C25.5187 18.4998 23.861 20.1575 23.861 22.2024C23.861 24.2473 25.5187 25.905 27.5636 25.905Z" fill="#EBEEF7"/>
<path fill-rule="evenodd" clip-rule="evenodd" d="M7.3417 25.905C9.38659 25.905 11.0443 24.2473 11.0443 22.2024C11.0443 20.1575 9.38659 18.4998 7.3417 18.4998C5.29681 18.4998 3.6391 20.1575 3.6391 22.2024C3.6391 24.2473 5.29681 25.905 7.3417 25.905Z" fill="#EBEEF7"/>
<path fill-rule="evenodd" clip-rule="evenodd" d="M1.18147 17.7298H17.1311V14.7998L7.67944 3.88013V8.36199C8.86538 8.67107 9.61705 9.83687 9.40916 11.0447C9.20126 12.2525 8.10306 13.0998 6.88204 12.9946C5.66101 12.8894 4.72399 11.8666 4.72582 10.641C4.72582 10.3148 4.9903 10.0503 5.31654 10.0503C5.6428 10.0503 5.90727 10.3148 5.90727 10.641C5.90727 11.2935 6.43622 11.8225 7.08871 11.8225C7.74121 11.8225 8.27017 11.2935 8.27017 10.641C8.27017 9.98852 7.74121 9.45957 7.08871 9.45957C6.76247 9.45957 6.49799 9.19509 6.49799 8.86884V2.37081C6.50123 2.34711 6.50596 2.32363 6.51216 2.30052C6.46647 2.02687 6.55427 1.74786 6.74846 1.54971L8.03978 0.259551C8.36699 -0.0676845 8.89091 -0.0880084 9.2425 0.212884L21.3925 10.7279C22.0054 10.852 22.5737 11.1382 23.0383 11.5567L23.0383 7.68738C23.0383 7.03488 23.5673 6.50592 24.2198 6.50592H31.5188C31.9822 6.50592 32.4028 6.77688 32.5945 7.19885L35.3366 13.232C35.4075 13.3859 35.4439 13.5534 35.4435 13.7229V21.2742C35.4435 21.9267 34.9146 22.4556 34.2621 22.4556H31.8519C31.7231 23.3539 31.3014 24.1845 30.6522 24.8185H35.4435V26H6.68769e-06V24.8185H4.79138C4.14217 24.1845 3.72043 23.3539 3.59162 22.4556H1.18145C0.528956 22.4556 0 21.9267 0 21.2742V18.9112C0 18.2587 0.528956 17.7298 1.18145 17.7298L1.18147 17.7298ZM10.5675 18.9112C11.2167 19.5453 11.6385 20.3759 11.7673 21.2742H23.6763C23.8051 20.3759 24.2268 19.5453 24.8761 18.9112L10.5675 18.9112ZM8.68072 1.28919L7.77928 2.1936L17.2799 13.1664C17.6191 12.0231 18.5132 11.1288 19.6564 10.7893L8.68072 1.28919ZM20.9194 11.8361C20.8384 11.8267 20.7569 11.8222 20.6754 11.8225C20.048 11.82 19.4455 12.0681 19.0018 12.5118C18.5581 12.9555 18.31 13.5579 18.3125 14.1854V17.7298H23.0383V14.1854C23.0419 12.9736 22.1251 11.9571 20.9194 11.8361L20.9194 11.8361ZM34.2621 15.9718L32.4852 15.9576L32.4946 14.7761L34.2621 14.7903V13.7223L31.5188 7.68738H24.2198V17.7298H34.2621V15.9718ZM34.2621 18.9112H30.6522C31.3014 19.5453 31.7231 20.3759 31.8519 21.2742H34.2621V18.9112ZM30.7177 21.8649C30.7177 20.2336 29.3954 18.9112 27.7641 18.9112C26.1329 18.9112 24.8105 20.2336 24.8105 21.8649C24.8105 23.4961 26.1329 24.8185 27.7641 24.8185C29.3946 24.8166 30.7158 23.4953 30.7177 21.8649ZM24.8761 24.8185C24.2268 24.1845 23.8051 23.3539 23.6763 22.4556H11.7673C11.6385 23.3539 11.2167 24.1845 10.5675 24.8185H24.8761ZM7.67945 24.8185C9.3107 24.8185 10.6331 23.4961 10.6331 21.8649C10.6331 20.2336 9.3107 18.9112 7.67945 18.9112C6.04821 18.9112 4.72583 20.2336 4.72583 21.8649C4.72778 23.4953 6.04902 24.8166 7.67945 24.8185ZM1.18147 21.2741H3.59163C3.72044 20.3759 4.14218 19.5453 4.79139 18.9112H1.18147L1.18147 21.2741Z" fill="#9298A8"/>
<path fill-rule="evenodd" clip-rule="evenodd" d="M25.4012 12.7085V9.16417C25.4012 8.67479 25.7979 8.27808 26.2873 8.27808H29.9321C30.2868 8.27808 30.6071 8.48937 30.7467 8.81523L32.2654 12.3594C32.3827 12.6331 32.3547 12.9475 32.1909 13.1961C32.027 13.4448 31.7492 13.5945 31.4514 13.5946H26.2873C25.7979 13.5946 25.4012 13.1979 25.4012 12.7085H25.4012ZM26.5826 12.4132H31.003L29.7377 9.45953H26.5826L26.5826 12.4132Z" fill="#9298A8"/>
<path fill-rule="evenodd" clip-rule="evenodd" d="M25.4012 14.7761H26.5826V16.5483H25.4012V14.7761Z" fill="#9298A8"/>
<path fill-rule="evenodd" clip-rule="evenodd" d="M20.6756 15.9575C19.6969 15.9575 18.9034 15.164 18.9034 14.1853C18.9034 13.2065 19.6969 12.4131 20.6756 12.4131C21.6544 12.4131 22.4478 13.2065 22.4478 14.1853C22.4478 15.164 21.6544 15.9575 20.6756 15.9575ZM20.6756 13.5945C20.3494 13.5945 20.0849 13.859 20.0849 14.1853C20.0849 14.5115 20.3494 14.776 20.6756 14.776C21.0019 14.776 21.2663 14.5115 21.2663 14.1853C21.2663 13.859 21.0019 13.5945 20.6756 13.5945Z" fill="#9298A8"/>
<path fill-rule="evenodd" clip-rule="evenodd" d="M26.7091 20.7781H28.1332V22.2022H26.7091V20.7781Z" fill="#9298A8"/>
<path fill-rule="evenodd" clip-rule="evenodd" d="M6.77203 20.7781H8.19611V22.2022H6.77203V20.7781Z" fill="#9298A8"/>
</svg>
