<svg width="28" height="29" viewBox="0 0 28 29" fill="none" xmlns="http://www.w3.org/2000/svg">
<circle cx="14" cy="14.5" r="13.55" fill="white" stroke="#1089FF" stroke-width="0.9"/>
<path d="M15.0563 16.6274C14.2199 16.6065 13.1091 14.2692 11.4818 15.0647C10.9609 15.3193 9.16983 14.4393 9.2466 14.0567C9.43294 13.128 8.57591 13.0072 8.86809 12.421C9.02699 12.1021 9.23285 11.7432 9.66024 11.9579C10.0877 12.1726 9.88345 12.8131 10.2182 12.8013C10.553 12.7896 10.5889 12.2147 10.7186 11.7721C10.8483 11.3294 11.3829 11.4713 11.5197 11.227C11.6564 10.9826 11.8909 10.5308 12.4266 10.2399C12.9622 9.94903 12.564 9.72186 12.7297 9.56202C12.8955 9.40221 13.6523 9.51461 13.8295 9.26312C14.2158 8.71471 14.2791 8.12621 14.1076 7.74651C13.5562 7.7467 13.0197 7.8086 12.5049 7.92531C12.1575 8.4198 11.7824 9.18012 11.4764 9.04054C11.2994 8.95979 11.0807 8.73295 10.9516 8.47226C9.63215 9.11736 8.5511 10.154 7.87141 11.4251C7.52788 12.0676 7.42321 12.808 7.58536 13.5144C7.59014 13.5353 7.59515 13.5564 7.60038 13.5778C7.9375 14.9531 10.5434 15.7605 10.512 15.8652C10.512 15.8652 9.60738 17.6696 10.9285 18.3138C12.2496 18.958 12.2487 19.3538 12.11 20.3903C12.077 20.6365 12.0597 20.8612 12.0605 21.0649C12.5248 21.2022 13.0096 21.2942 13.5094 21.3354C14.0505 20.9579 14.8642 20.5166 15.0092 20.0016C15.2054 19.3046 17.1037 18.593 16.9602 17.6124C16.9136 17.2945 15.8927 16.6483 15.0563 16.6274Z" fill="#1089FF"/>
<path d="M20.837 14.42C20.9136 11.4536 18.8114 8.88759 15.8498 7.97632C16.319 8.53178 16.9826 9.36911 16.9236 9.59539C16.8336 9.94074 17.1468 10.3727 17.1468 10.3727C17.1468 10.3727 16.4759 11.2307 16.4965 11.9999C16.5172 12.769 17.3848 14.1265 17.7784 14.1943C18.172 14.2622 19.0097 13.4756 19.3895 13.8138C20.2122 14.5465 19.3311 17.4703 18.8732 18.7609C20.0542 17.6241 20.7934 16.105 20.837 14.42Z" fill="#1089FF"/>
<path d="M20.4615 11.958C20.4587 11.9508 20.4555 11.9439 20.452 11.9372C20.1509 11.1682 19.7143 10.4527 19.1547 9.82624C19.0794 9.74194 18.9504 9.73489 18.8664 9.8106C18.7825 9.88623 18.7755 10.0159 18.8508 10.1002C19.9317 11.3101 20.527 12.8727 20.527 14.5C20.527 14.5483 20.5263 14.5964 20.5252 14.6446C20.5249 14.6615 20.5244 14.6784 20.5239 14.6954C20.523 14.7257 20.5218 14.7561 20.5206 14.7863C20.5196 14.8078 20.5188 14.8292 20.5177 14.8506C20.5168 14.8683 20.5156 14.8859 20.5145 14.9036C20.446 16.0296 20.0922 17.1134 19.4901 18.0561C19.622 17.5188 19.7567 16.8859 19.8409 16.2654C20.0188 14.9544 19.9135 14.1367 19.519 13.7657C19.1975 13.4633 18.7529 13.7247 18.3956 13.9346C18.2519 14.0191 18.0114 14.1602 17.9344 14.1478C17.8688 14.1308 17.6241 13.9165 17.3245 13.3908C17.0577 12.9224 16.8826 12.4347 16.8675 12.118C16.8338 11.4061 17.3897 10.5596 17.3952 10.5512C17.4416 10.4816 17.4409 10.3902 17.3937 10.321C17.3243 10.2192 17.1543 9.90661 17.2005 9.68619C17.2219 9.58403 17.2629 9.38789 16.5692 8.44924C16.8362 8.56504 17.0959 8.69889 17.3463 8.8504C17.348 8.85144 17.3498 8.85223 17.3515 8.85319C17.6469 9.03237 17.9291 9.23556 18.1966 9.46243C18.2827 9.53555 18.4115 9.52456 18.4842 9.43804C18.5569 9.3515 18.546 9.22214 18.4599 9.14907C17.7416 8.5398 16.9242 8.08994 16.0305 7.81202C16.027 7.81093 16.0234 7.81054 16.02 7.80967C15.3589 7.60546 14.6674 7.5 13.9676 7.5C13.896 7.5 13.8246 7.50145 13.7534 7.50361C13.7456 7.50386 13.7379 7.50421 13.7302 7.50446C13.671 7.50643 13.612 7.50916 13.5531 7.51261C13.5474 7.51293 13.5418 7.51329 13.5362 7.51364C11.8374 7.61722 10.2546 8.33081 9.0408 9.55026C7.72479 10.8724 7 12.6302 7 14.5C7 16.1498 7.58223 17.7517 8.6394 19.0108C8.67976 19.0589 8.73744 19.0837 8.79552 19.0837C8.84198 19.0837 8.88874 19.0678 8.92703 19.0354C9.0132 18.9623 9.02411 18.833 8.95142 18.7464C7.95628 17.5612 7.40826 16.0531 7.40826 14.5C7.40826 14.168 7.43259 13.8397 7.4803 13.5172C7.48079 13.5195 7.48123 13.5217 7.48172 13.5239C7.48656 13.5456 7.49165 13.5676 7.49699 13.59C7.76981 14.7317 9.32448 15.462 10.0716 15.813C10.1318 15.8413 10.1959 15.8714 10.2492 15.8974C10.1758 16.0858 10.0669 16.4126 10.0274 16.7777C9.94207 17.565 10.2162 18.1415 10.82 18.4448C12.0113 19.0432 11.971 19.3613 11.8513 20.3054C11.8323 20.4553 11.8193 20.5939 11.8116 20.7243C10.9989 20.4403 10.2433 19.9961 9.59078 19.4084C9.50678 19.3328 9.37777 19.3399 9.30252 19.4242C9.22729 19.5085 9.23431 19.6381 9.31825 19.7137C10.0814 20.4011 10.9772 20.904 11.9409 21.198C11.9435 21.1989 11.9459 21.2003 11.9487 21.2011C12.037 21.2279 12.1262 21.2524 12.2157 21.2757C12.2243 21.2779 12.2329 21.2802 12.2416 21.2824C12.283 21.293 12.3245 21.3032 12.3662 21.3131C12.3805 21.3165 12.3949 21.3198 12.4093 21.3231C12.4474 21.3318 12.4855 21.3404 12.5237 21.3485C12.5427 21.3525 12.5619 21.3563 12.581 21.3602C12.6158 21.3672 12.6506 21.3744 12.6855 21.3809C12.7117 21.3858 12.7379 21.3902 12.7641 21.3948C12.7927 21.3998 12.8213 21.4051 12.85 21.4098C12.9051 21.4187 12.9603 21.427 13.0156 21.4346C13.0293 21.4365 13.0429 21.438 13.0566 21.4398C13.1015 21.4458 13.1464 21.4514 13.1914 21.4564C13.2062 21.4581 13.2209 21.4595 13.2356 21.461C13.2807 21.4658 13.3259 21.4702 13.3711 21.4741C13.3763 21.4745 13.3815 21.4752 13.3867 21.4756C13.3887 21.4758 13.3908 21.4757 13.3928 21.4759C13.5833 21.4916 13.775 21.5 13.9676 21.5C15.8287 21.5 17.5784 20.7719 18.8944 19.4497C20.096 18.2426 20.8043 16.6721 20.9185 14.9849C20.919 14.9775 20.9193 14.97 20.9198 14.9626C20.9227 14.9178 20.9254 14.8729 20.9275 14.828C20.9285 14.8054 20.9291 14.7828 20.9299 14.7603C20.9311 14.7289 20.9324 14.6976 20.9331 14.6662C20.9345 14.6109 20.9352 14.5555 20.9352 14.5C20.9352 13.6231 20.7758 12.7679 20.4615 11.958ZM11.9504 8.22647C11.861 8.37131 11.7705 8.51385 11.6853 8.62457C11.5734 8.76993 11.513 8.8049 11.4937 8.81299C11.4102 8.76998 11.2954 8.66413 11.197 8.52339C11.4417 8.40871 11.6932 8.30962 11.9504 8.22647ZM13.5962 20.8868C13.509 20.9466 13.4257 21.0038 13.3463 21.0602C13.3359 21.0592 13.3256 21.058 13.3152 21.057C13.279 21.0534 13.2428 21.0497 13.2067 21.0455C13.172 21.0415 13.1373 21.0369 13.1027 21.0323C13.09 21.0306 13.0772 21.0292 13.0645 21.0274C12.7766 20.9874 12.4926 20.9281 12.2142 20.8506C12.2195 20.7011 12.2334 20.5382 12.2563 20.3572C12.3926 19.2818 12.3942 18.777 11.0026 18.078C10.561 17.8561 10.3691 17.4366 10.4323 16.8312C10.4835 16.3405 10.6864 15.9115 10.6884 15.9074C10.6934 15.8969 10.6975 15.886 10.7007 15.8748C10.7514 15.6975 10.5825 15.6082 10.5103 15.5701C10.4457 15.536 10.357 15.4943 10.2446 15.4415C9.60909 15.143 8.12091 14.4439 7.89403 13.4944C7.88918 13.474 7.8845 13.4539 7.88004 13.4339C7.73386 12.7812 7.82367 12.0896 8.13283 11.4866C8.73118 10.3197 9.68462 9.34062 10.8309 8.71138C10.9712 8.92685 11.1577 9.108 11.3306 9.18927C11.5252 9.28065 11.7306 9.20305 11.941 8.95841C12.0811 8.79549 12.221 8.56736 12.3564 8.34675C12.4137 8.25332 12.4726 8.15734 12.5298 8.06927C12.946 7.97578 13.3731 7.92317 13.8024 7.91243C13.872 8.19563 13.832 8.63509 13.5145 9.10467C13.4728 9.16638 13.1757 9.19627 13.0489 9.20901C12.8092 9.23313 12.6022 9.25394 12.4808 9.37595C12.3435 9.51384 12.3794 9.67864 12.3986 9.76718C12.4204 9.86775 12.4295 9.90937 12.2346 10.0197C11.6902 10.328 11.4374 10.8016 11.3016 11.0561L11.2842 11.0885C11.2704 11.1143 11.168 11.144 11.1002 11.1636C10.9012 11.2212 10.6005 11.3083 10.4974 11.6764C10.4679 11.7815 10.4438 11.8916 10.4204 11.9981C10.3808 12.1785 10.3095 12.5039 10.2235 12.5502C10.2083 12.5124 10.1922 12.4429 10.1808 12.3935C10.1343 12.1933 10.0642 11.8907 9.76867 11.7378C9.59189 11.6463 9.42304 11.6267 9.26659 11.6794C8.99965 11.7693 8.84938 12.0446 8.72949 12.2955C8.54449 12.6827 8.72576 12.9472 8.8714 13.1597C9.0187 13.3746 9.1578 13.5775 9.08138 13.9774C9.04529 14.1663 9.16872 14.3647 9.45872 14.5841C9.72716 14.7872 10.1246 14.994 10.4958 15.1238C10.8156 15.2356 11.2543 15.3395 11.5288 15.1996C11.9156 15.0024 12.2868 15.0067 12.6971 15.2132C13.0759 15.4038 13.4315 15.7421 13.7452 16.0405C14.1533 16.4288 14.5058 16.7642 14.8773 16.7728C15.6463 16.7908 16.4742 17.3993 16.5155 17.5756C16.5813 18.034 16.0252 18.4865 15.5346 18.8858C15.1271 19.2173 14.7422 19.5305 14.6475 19.8826C14.5542 20.2294 14.023 20.5939 13.5962 20.8868ZM18.8374 18.915C18.7625 18.9982 18.6853 19.0799 18.6058 19.1598C17.3801 20.3911 15.7548 21.0747 14.0237 21.0892C14.474 20.7745 14.926 20.4194 15.0416 19.9896C15.1018 19.7657 15.4524 19.4804 15.7915 19.2045C16.3666 18.7366 17.0185 18.2061 16.9195 17.5171C16.8732 17.1942 16.3912 16.8852 16.1861 16.7673C15.755 16.5195 15.2814 16.3721 14.8868 16.3629H14.8867C14.6724 16.3579 14.3437 16.0452 14.0259 15.7428C13.3685 15.1174 12.4681 14.2608 11.344 14.8339C11.2232 14.8956 10.8436 14.844 10.3521 14.6262C9.80843 14.3853 9.52262 14.1273 9.48542 14.0379C9.5865 13.4799 9.36776 13.1608 9.20761 12.9272C9.06439 12.7182 9.01886 12.6376 9.09749 12.473C9.15799 12.3464 9.27065 12.1106 9.39642 12.0682C9.41427 12.0622 9.46854 12.0439 9.58166 12.1024C9.70049 12.1639 9.73856 12.2945 9.78312 12.4866C9.82571 12.6705 9.89659 12.9784 10.2223 12.9656C10.6297 12.9497 10.7302 12.4911 10.819 12.0864C10.8411 11.9856 10.864 11.8813 10.8903 11.7876C10.9281 11.6526 11.0132 11.6156 11.2131 11.5578C11.3624 11.5145 11.5482 11.4607 11.6435 11.2833L11.6613 11.2499C11.7857 11.0169 11.9939 10.6268 12.4349 10.3771C12.6245 10.2697 12.7411 10.15 12.7912 10.0111C12.84 9.87625 12.8143 9.75805 12.7973 9.67982C12.796 9.67366 12.7945 9.66677 12.7931 9.65996C12.8605 9.64017 12.995 9.62663 13.0895 9.61714C13.3771 9.58819 13.7032 9.5554 13.8521 9.33515C14.1602 8.87957 14.2914 8.35258 14.2194 7.91516C14.775 7.93649 15.3232 8.02817 15.851 8.18677C16.7233 9.28328 16.7936 9.5676 16.7989 9.61195C16.7374 9.92791 16.8879 10.2619 16.9855 10.4363C16.8202 10.714 16.4272 11.4517 16.4597 12.1376C16.4782 12.5271 16.6736 13.0797 16.9823 13.6158C17.4207 14.3769 17.7252 14.5293 17.8677 14.5524C18.0915 14.5887 18.3392 14.443 18.6016 14.2887C18.8292 14.155 19.1409 13.9719 19.2399 14.0652C19.6161 14.4189 19.5244 15.5609 19.4364 16.2101C19.2905 17.2856 18.9781 18.4302 18.8374 18.915Z" fill="#1089FF"/>
</svg>
