<svg width="33" height="34" viewBox="0 0 33 34" fill="none" xmlns="http://www.w3.org/2000/svg">
<rect y="33.5" width="33" height="33" rx="16.5" transform="rotate(-90 0 33.5)" fill="#F7F8FC"/>
<g clip-path="url(#clip0_5951_4542)">
<path d="M16.5 24.5C16.3057 24.5 16.1195 24.4228 15.9821 24.2855C15.8447 24.1481 15.7676 23.9618 15.7676 23.7676V10.2324C15.7676 10.0382 15.8447 9.85188 15.9821 9.71452C16.1195 9.57717 16.3057 9.5 16.5 9.5C16.6943 9.5 16.8805 9.57717 17.0179 9.71452C17.1553 9.85188 17.2324 10.0382 17.2324 10.2324V23.7676C17.2324 23.9618 17.1553 24.1481 17.0179 24.2855C16.8805 24.4228 16.6943 24.5 16.5 24.5Z" fill="#9298A8" stroke="#9298A8" stroke-width="0.5"/>
<path d="M23.2676 17.7324H9.73242C9.53817 17.7324 9.35188 17.6553 9.21452 17.5179C9.07717 17.3805 9 17.1943 9 17C9 16.8057 9.07717 16.6195 9.21452 16.4821C9.35188 16.3447 9.53817 16.2676 9.73242 16.2676H23.2676C23.4618 16.2676 23.6481 16.3447 23.7855 16.4821C23.9228 16.6195 24 16.8057 24 17C24 17.1943 23.9228 17.3805 23.7855 17.5179C23.6481 17.6553 23.4618 17.7324 23.2676 17.7324Z" fill="#9298A8" stroke="#9298A8" stroke-width="0.5"/>
</g>
<defs>
<clipPath id="clip0_5951_4542">
<rect width="15" height="15" fill="white" transform="translate(9 9.5)"/>
</clipPath>
</defs>
</svg>
