<svg width="33" height="34" viewBox="0 0 33 34" fill="none" xmlns="http://www.w3.org/2000/svg">
<rect y="33.5" width="33" height="33" rx="16.5" transform="rotate(-90 0 33.5)" fill="#1089FF"/>
<g clip-path="url(#clip0_5951_4551)">
<path d="M17.218 10.1882C16.8214 9.79135 16.1788 9.79135 15.7819 10.1882L10.7038 15.2663C10.3069 15.6629 10.3072 16.3056 10.7038 16.7024C11.1004 17.0993 11.743 17.0993 12.1399 16.7024L15.4843 13.358L15.4843 23.0937C15.4843 23.6546 15.9386 24.1094 16.5 24.1094C17.0614 24.1094 17.5156 23.6546 17.5156 23.0937L17.5156 13.358L20.86 16.7024C21.2566 17.0993 21.8993 17.0993 22.2961 16.7024C22.4944 16.5041 22.5937 16.2441 22.5937 15.9844C22.5937 15.7246 22.4944 15.4646 22.2961 15.2663L17.218 10.1882Z" fill="white"/>
</g>
<defs>
<clipPath id="clip0_5951_4551">
<rect width="15" height="15" fill="white" transform="translate(9 9.5)"/>
</clipPath>
</defs>
</svg>
