<svg width="20" height="20" viewBox="0 0 20 20" fill="none" xmlns="http://www.w3.org/2000/svg">
<path d="M18.5021 3.44824H1.49785C0.670586 3.44824 0 4.11883 0 4.94609V15.0539C0 15.8811 0.670586 16.5517 1.49785 16.5517H18.5021C19.3294 16.5517 20 15.8811 20 15.0539V4.94609C20 4.11883 19.3294 3.44824 18.5021 3.44824Z" fill="#F5F5F5"/>
<path d="M0.0823975 4.45621H19.9176C19.7146 3.86961 19.1577 3.44824 18.5022 3.44824H1.49787C0.842241 3.44824 0.285405 3.86961 0.0823975 4.45621Z" fill="#FF4B55"/>
<path d="M20 7.47998H0V8.48791H20V7.47998Z" fill="#FF4B55"/>
<path d="M20 5.46411H0V6.47204H20V5.46411Z" fill="#FF4B55"/>
<path d="M0 10.1592C0 10.3496 0.154414 10.5041 0.344844 10.5041H20V9.49609H0V10.1592Z" fill="#FF4B55"/>
<path d="M20 13.5281H0V14.536H20V13.5281Z" fill="#FF4B55"/>
<path d="M19.9176 15.5437H0.0823975C0.285405 16.1303 0.84228 16.5517 1.49787 16.5517H18.5022C19.1578 16.5517 19.7146 16.1303 19.9176 15.5437Z" fill="#FF4B55"/>
<path d="M20 11.512H0V12.5199H20V11.512Z" fill="#FF4B55"/>
<path d="M0.344844 10.504H8.96555C9.15598 10.504 9.31039 10.3496 9.31039 10.1591V3.79309C9.31039 3.60262 9.15598 3.44824 8.96555 3.44824H1.49785C0.670586 3.44828 0 4.11887 0 4.94613V10.1591C0 10.3496 0.154414 10.504 0.344844 10.504Z" fill="#41479B"/>
<path d="M0.968339 4.24L1.04467 4.46891L1.28596 4.47075C1.31721 4.47102 1.33014 4.51086 1.30502 4.52942L1.11092 4.67274L1.18373 4.90278C1.19318 4.93254 1.15924 4.95723 1.13381 4.93903L0.937519 4.79875L0.74123 4.93907C0.7158 4.95727 0.681933 4.93258 0.691308 4.90282L0.76412 4.67278L0.570019 4.52946C0.544902 4.51086 0.557831 4.47102 0.589081 4.47079L0.83037 4.46895L0.906699 4.24004C0.916542 4.21036 0.958417 4.21036 0.968339 4.24Z" fill="#F5F5F5"/>
<path d="M0.968339 5.43724L1.04467 5.66615L1.28596 5.66798C1.31721 5.66826 1.33014 5.70806 1.30502 5.72666L1.11092 5.87001L1.18373 6.10005C1.19318 6.12982 1.15924 6.15451 1.13381 6.1363L0.937519 5.99603L0.74123 6.13634C0.7158 6.15451 0.681933 6.12986 0.691308 6.10009L0.76412 5.87005L0.570019 5.72669C0.544902 5.7081 0.557831 5.6683 0.589081 5.66802L0.83037 5.66619L0.906699 5.43728C0.916542 5.40763 0.958417 5.40763 0.968339 5.43724Z" fill="#F5F5F5"/>
<path d="M0.968339 6.63454L1.04467 6.86344L1.28596 6.86528C1.31721 6.86555 1.33014 6.90536 1.30502 6.92395L1.11092 7.06731L1.18373 7.29735C1.19318 7.32711 1.15924 7.3518 1.13381 7.3336L0.937519 7.19333L0.74123 7.33364C0.7158 7.3518 0.681933 7.32719 0.691308 7.29739L0.76412 7.06735L0.570019 6.92399C0.544902 6.9054 0.557831 6.86559 0.589081 6.86532L0.83037 6.86348L0.906699 6.63458C0.916542 6.60489 0.958417 6.60489 0.968339 6.63454Z" fill="#F5F5F5"/>
<path d="M0.968339 7.83205L1.04467 8.06095L1.28596 8.06279C1.31721 8.06306 1.33014 8.10291 1.30502 8.12146L1.11092 8.26482L1.18373 8.49486C1.19318 8.52462 1.15924 8.54931 1.13381 8.53111L0.937519 8.39083L0.74123 8.53115C0.7158 8.54931 0.681933 8.52466 0.691308 8.4949L0.76412 8.26486L0.570019 8.1215C0.544902 8.10298 0.557831 8.0631 0.589081 8.06283L0.83037 8.06099L0.906699 7.83209C0.916542 7.8024 0.958417 7.8024 0.968339 7.83205Z" fill="#F5F5F5"/>
<path d="M0.968339 9.02953L1.04467 9.25843L1.28596 9.26027C1.31721 9.26054 1.33014 9.30035 1.30502 9.31894L1.11092 9.4623L1.18373 9.69234C1.19318 9.7221 1.15924 9.74679 1.13381 9.72859L0.937519 9.58832L0.74123 9.72863C0.7158 9.74679 0.681933 9.72214 0.691308 9.69238L0.76412 9.46234L0.570019 9.31898C0.544902 9.30039 0.557831 9.26058 0.589081 9.26031L0.83037 9.25847L0.906699 9.02957C0.916542 8.99992 0.958417 8.99992 0.968339 9.02953Z" fill="#F5F5F5"/>
<path d="M1.89778 4.82689L1.97411 5.0558L2.2154 5.05764C2.24665 5.05791 2.25958 5.09775 2.23446 5.11631L2.04036 5.25967L2.11317 5.48971C2.12263 5.51947 2.08868 5.54416 2.06325 5.52596L1.86696 5.38564L1.67067 5.52596C1.64524 5.54412 1.61138 5.51947 1.62075 5.48971L1.69356 5.25967L1.49946 5.11631C1.47435 5.09772 1.48727 5.05791 1.51852 5.05764L1.75981 5.0558L1.83614 4.82689C1.84599 4.79729 1.8879 4.79729 1.89778 4.82689Z" fill="#F5F5F5"/>
<path d="M1.89778 6.02419L1.97411 6.2531L2.2154 6.25493C2.24665 6.25521 2.25958 6.29505 2.23446 6.3136L2.04036 6.45696L2.11317 6.687C2.12263 6.71677 2.08868 6.74146 2.06325 6.72325L1.86696 6.58294L1.67067 6.72325C1.64524 6.74142 1.61138 6.71681 1.62075 6.687L1.69356 6.45696L1.49946 6.3136C1.47435 6.29509 1.48727 6.25521 1.51852 6.25493L1.75981 6.2531L1.83614 6.02419C1.84599 5.99454 1.8879 5.99454 1.89778 6.02419Z" fill="#F5F5F5"/>
<path d="M1.89778 7.2217L1.97411 7.45061L2.2154 7.45244C2.24665 7.45271 2.25958 7.49252 2.23446 7.51111L2.04036 7.65447L2.11317 7.88451C2.12263 7.91428 2.08868 7.93896 2.06325 7.92076L1.86696 7.78045L1.67067 7.92076C1.64524 7.93893 1.61138 7.91428 1.62075 7.88451L1.69356 7.65447L1.49946 7.51111C1.47435 7.49252 1.48727 7.45271 1.51852 7.45244L1.75981 7.45061L1.83614 7.2217C1.84599 7.19205 1.8879 7.19205 1.89778 7.2217Z" fill="#F5F5F5"/>
<path d="M1.89778 8.41918L1.97411 8.64809L2.2154 8.64992C2.24665 8.6502 2.25958 8.69 2.23446 8.70859L2.04036 8.85195L2.11317 9.08199C2.12263 9.11176 2.08868 9.13645 2.06325 9.11824L1.86696 8.97793L1.67067 9.11824C1.64524 9.13645 1.61138 9.11176 1.62075 9.08199L1.69356 8.85195L1.49946 8.70859C1.47435 8.69 1.48727 8.6502 1.51852 8.64992L1.75981 8.64809L1.83614 8.41918C1.84599 8.38957 1.8879 8.38957 1.89778 8.41918Z" fill="#F5F5F5"/>
<path d="M2.82723 4.23977L2.90355 4.46867L3.14484 4.47051C3.17609 4.47078 3.18902 4.51062 3.16391 4.52918L2.9698 4.6725L3.04262 4.90254C3.05207 4.9323 3.01812 4.95699 2.99269 4.93879L2.79641 4.79848L2.60012 4.93879C2.57469 4.95699 2.54082 4.9323 2.55019 4.90254L2.62301 4.6725L2.42891 4.52918C2.40379 4.51059 2.41672 4.47074 2.44797 4.47051L2.68926 4.46867L2.76559 4.23977C2.77543 4.21012 2.81734 4.21012 2.82723 4.23977Z" fill="#F5F5F5"/>
<path d="M2.82723 5.43725L2.90355 5.66615L3.14484 5.66799C3.17609 5.66826 3.18902 5.70807 3.16391 5.72666L2.9698 5.87002L3.04262 6.10006C3.05207 6.12982 3.01812 6.15451 2.99269 6.13631L2.79641 5.996L2.60012 6.13631C2.57469 6.15447 2.54082 6.12982 2.55019 6.10006L2.62301 5.87002L2.42891 5.72666C2.40379 5.70807 2.41672 5.66826 2.44797 5.66799L2.68926 5.66615L2.76559 5.43725C2.77543 5.40764 2.81734 5.40764 2.82723 5.43725Z" fill="#F5F5F5"/>
<path d="M2.82723 6.63454L2.90355 6.86345L3.14484 6.86528C3.17609 6.86556 3.18902 6.90536 3.16391 6.92396L2.9698 7.06731L3.04262 7.29735C3.05207 7.32712 3.01812 7.35181 2.99269 7.3336L2.79641 7.19329L2.60012 7.3336C2.57469 7.35177 2.54082 7.32716 2.55019 7.29735L2.62301 7.06731L2.42891 6.92396C2.40379 6.90536 2.41672 6.86556 2.44797 6.86528L2.68926 6.86345L2.76559 6.63454C2.77543 6.60489 2.81734 6.60489 2.82723 6.63454Z" fill="#F5F5F5"/>
<path d="M2.82723 7.83205L2.90355 8.06096L3.14484 8.06279C3.17609 8.06307 3.18902 8.10291 3.16391 8.12146L2.9698 8.26482L3.04262 8.49486C3.05207 8.52463 3.01812 8.54932 2.99269 8.53111L2.79641 8.3908L2.60012 8.53111C2.57469 8.54928 2.54082 8.52463 2.55019 8.49486L2.62301 8.26482L2.42891 8.12146C2.40379 8.10295 2.41672 8.06307 2.44797 8.06279L2.68926 8.06096L2.76559 7.83205C2.77543 7.8024 2.81734 7.8024 2.82723 7.83205Z" fill="#F5F5F5"/>
<path d="M2.82723 9.02953L2.90355 9.25844L3.14484 9.26027C3.17609 9.26055 3.18902 9.30035 3.16391 9.31895L2.9698 9.4623L3.04262 9.69234C3.05207 9.72211 3.01812 9.7468 2.99269 9.72859L2.79641 9.58828L2.60012 9.72859C2.57469 9.74676 2.54082 9.72211 2.55019 9.69234L2.62301 9.4623L2.42891 9.31895C2.40379 9.30035 2.41672 9.26055 2.44797 9.26027L2.68926 9.25844L2.76559 9.02953C2.77543 8.99992 2.81734 8.99992 2.82723 9.02953Z" fill="#F5F5F5"/>
<path d="M3.75667 4.82689L3.833 5.0558L4.07429 5.05764C4.10554 5.05791 4.11847 5.09775 4.09335 5.11631L3.89925 5.25967L3.97206 5.48971C3.98151 5.51947 3.94757 5.54416 3.92214 5.52596L3.72585 5.38564L3.52956 5.52596C3.50413 5.54412 3.47026 5.51947 3.47964 5.48971L3.55245 5.25967L3.35835 5.11631C3.33323 5.09772 3.34616 5.05791 3.37741 5.05764L3.6187 5.0558L3.69503 4.82689C3.70483 4.79729 3.74679 4.79729 3.75667 4.82689Z" fill="#F5F5F5"/>
<path d="M3.75667 6.02419L3.833 6.2531L4.07429 6.25493C4.10554 6.25521 4.11847 6.29505 4.09335 6.3136L3.89925 6.45696L3.97206 6.687C3.98151 6.71677 3.94757 6.74146 3.92214 6.72325L3.72585 6.58294L3.52956 6.72325C3.50413 6.74142 3.47026 6.71681 3.47964 6.687L3.55245 6.45696L3.35835 6.3136C3.33323 6.29509 3.34616 6.25521 3.37741 6.25493L3.6187 6.2531L3.69503 6.02419C3.70483 5.99454 3.74679 5.99454 3.75667 6.02419Z" fill="#F5F5F5"/>
<path d="M3.75667 7.2217L3.833 7.45061L4.07429 7.45244C4.10554 7.45271 4.11847 7.49252 4.09335 7.51111L3.89925 7.65447L3.97206 7.88451C3.98151 7.91428 3.94757 7.93896 3.92214 7.92076L3.72585 7.78045L3.52956 7.92076C3.50413 7.93893 3.47026 7.91428 3.47964 7.88451L3.55245 7.65447L3.35835 7.51111C3.33323 7.49252 3.34616 7.45271 3.37741 7.45244L3.6187 7.45061L3.69503 7.2217C3.70483 7.19205 3.74679 7.19205 3.75667 7.2217Z" fill="#F5F5F5"/>
<path d="M3.75667 8.41918L3.833 8.64809L4.07429 8.64992C4.10554 8.6502 4.11847 8.69 4.09335 8.70859L3.89925 8.85195L3.97206 9.08199C3.98151 9.11176 3.94757 9.13645 3.92214 9.11824L3.72585 8.97793L3.52956 9.11824C3.50413 9.13645 3.47026 9.11176 3.47964 9.08199L3.55245 8.85195L3.35835 8.70859C3.33323 8.69 3.34616 8.6502 3.37741 8.64992L3.6187 8.64809L3.69503 8.41918C3.70483 8.38957 3.74679 8.38957 3.75667 8.41918Z" fill="#F5F5F5"/>
<path d="M4.68603 4.23976L4.76236 4.46867L5.00365 4.4705C5.0349 4.47078 5.04783 4.51062 5.02271 4.52917L4.82861 4.67249L4.90142 4.90253C4.91087 4.9323 4.87693 4.95699 4.8515 4.93878L4.65517 4.79851L4.45888 4.93882C4.43345 4.95703 4.39958 4.93234 4.40896 4.90257L4.48177 4.67253L4.28767 4.52921C4.26255 4.51062 4.27548 4.47078 4.30673 4.47054L4.54802 4.46871L4.62435 4.2398C4.63423 4.21011 4.67615 4.21011 4.68603 4.23976Z" fill="#F5F5F5"/>
<path d="M4.68603 5.43725L4.76236 5.66615L5.00365 5.66799C5.0349 5.66826 5.04783 5.70807 5.02271 5.72666L4.82861 5.87002L4.90142 6.10006C4.91087 6.12982 4.87693 6.15451 4.8515 6.13631L4.65517 5.996L4.45888 6.13631C4.43345 6.15447 4.39958 6.12982 4.40896 6.10006L4.48177 5.87002L4.28767 5.72666C4.26255 5.70807 4.27548 5.66826 4.30673 5.66799L4.54802 5.66615L4.62435 5.43725C4.63423 5.40764 4.67615 5.40764 4.68603 5.43725Z" fill="#F5F5F5"/>
<path d="M4.68603 6.63455L4.76236 6.86345L5.00365 6.86529C5.0349 6.86556 5.04783 6.90537 5.02271 6.92396L4.82861 7.06732L4.90142 7.29736C4.91087 7.32712 4.87693 7.35181 4.8515 7.33361L4.65517 7.19326L4.45888 7.33357C4.43345 7.35173 4.39958 7.32709 4.40896 7.29732L4.48177 7.06728L4.28767 6.92392C4.26255 6.90533 4.27548 6.86552 4.30673 6.86525L4.54802 6.86341L4.62435 6.63451C4.63423 6.6049 4.67615 6.6049 4.68603 6.63455Z" fill="#F5F5F5"/>
<path d="M4.68603 7.83205L4.76236 8.06096L5.00365 8.06279C5.0349 8.06307 5.04783 8.10291 5.02271 8.12146L4.82861 8.26482L4.90142 8.49486C4.91087 8.52463 4.87693 8.54932 4.8515 8.53111L4.65517 8.3908L4.45888 8.53111C4.43345 8.54928 4.39958 8.52463 4.40896 8.49486L4.48177 8.26482L4.28767 8.12146C4.26255 8.10295 4.27548 8.06307 4.30673 8.06279L4.54802 8.06096L4.62435 7.83205C4.63423 7.8024 4.67615 7.8024 4.68603 7.83205Z" fill="#F5F5F5"/>
<path d="M4.68603 9.02953L4.76236 9.25844L5.00365 9.26027C5.0349 9.26055 5.04783 9.30035 5.02271 9.31895L4.82861 9.4623L4.90142 9.69234C4.91087 9.72211 4.87693 9.7468 4.8515 9.72859L4.65517 9.58828L4.45888 9.72859C4.43345 9.74676 4.39958 9.72211 4.40896 9.69234L4.48177 9.4623L4.28767 9.31895C4.26255 9.30035 4.27548 9.26055 4.30673 9.26027L4.54802 9.25844L4.62435 9.02953C4.63423 8.99992 4.67615 8.99992 4.68603 9.02953Z" fill="#F5F5F5"/>
<path d="M5.61543 4.82689L5.69176 5.0558L5.93305 5.05764C5.9643 5.05791 5.97723 5.09775 5.95211 5.11631L5.75801 5.25967L5.83082 5.48971C5.84028 5.51947 5.80633 5.54416 5.7809 5.52596L5.58461 5.38564L5.38832 5.52596C5.36289 5.54412 5.32903 5.51947 5.3384 5.48971L5.41121 5.25967L5.21711 5.11631C5.192 5.09772 5.20493 5.05791 5.23618 5.05764L5.47747 5.0558L5.55379 4.82689C5.56368 4.79729 5.60555 4.79729 5.61543 4.82689Z" fill="#F5F5F5"/>
<path d="M5.61543 6.02419L5.69176 6.2531L5.93305 6.25493C5.9643 6.25521 5.97723 6.29505 5.95211 6.3136L5.75801 6.45696L5.83082 6.687C5.84028 6.71677 5.80633 6.74146 5.7809 6.72325L5.58461 6.58294L5.38832 6.72325C5.36289 6.74142 5.32903 6.71681 5.3384 6.687L5.41121 6.45696L5.21711 6.3136C5.192 6.29509 5.20493 6.25521 5.23618 6.25493L5.47747 6.2531L5.55379 6.02419C5.56368 5.99454 5.60555 5.99454 5.61543 6.02419Z" fill="#F5F5F5"/>
<path d="M5.61543 7.2217L5.69176 7.45061L5.93305 7.45244C5.9643 7.45271 5.97723 7.49252 5.95211 7.51111L5.75801 7.65447L5.83082 7.88451C5.84028 7.91428 5.80633 7.93896 5.7809 7.92076L5.58461 7.78045L5.38832 7.92076C5.36289 7.93893 5.32903 7.91428 5.3384 7.88451L5.41121 7.65447L5.21711 7.51111C5.192 7.49252 5.20493 7.45271 5.23618 7.45244L5.47747 7.45061L5.55379 7.2217C5.56368 7.19205 5.60555 7.19205 5.61543 7.2217Z" fill="#F5F5F5"/>
<path d="M5.61543 8.41918L5.69176 8.64809L5.93305 8.64992C5.9643 8.6502 5.97723 8.69 5.95211 8.70859L5.75801 8.85195L5.83082 9.08199C5.84028 9.11176 5.80633 9.13645 5.7809 9.11824L5.58461 8.97793L5.38832 9.11824C5.36289 9.13645 5.32903 9.11176 5.3384 9.08199L5.41121 8.85195L5.21711 8.70859C5.192 8.69 5.20493 8.6502 5.23618 8.64992L5.47747 8.64809L5.55379 8.41918C5.56368 8.38957 5.60555 8.38957 5.61543 8.41918Z" fill="#F5F5F5"/>
<path d="M6.54488 4.23977L6.62121 4.46867L6.86249 4.47051C6.89374 4.47078 6.90667 4.51062 6.88156 4.52918L6.68746 4.6725L6.76027 4.90254C6.76972 4.9323 6.73578 4.95699 6.71035 4.93879L6.51406 4.79848L6.31777 4.93879C6.29234 4.95699 6.25847 4.9323 6.26785 4.90254L6.34066 4.6725L6.14656 4.52918C6.12144 4.51059 6.13437 4.47074 6.16562 4.47051L6.40691 4.46867L6.48324 4.23977C6.49304 4.21012 6.53499 4.21012 6.54488 4.23977Z" fill="#F5F5F5"/>
<path d="M6.54488 5.43725L6.62121 5.66615L6.86249 5.66799C6.89374 5.66826 6.90667 5.70807 6.88156 5.72666L6.68746 5.87002L6.76027 6.10006C6.76972 6.12982 6.73578 6.15451 6.71035 6.13631L6.51406 5.996L6.31777 6.13631C6.29234 6.15447 6.25847 6.12982 6.26785 6.10006L6.34066 5.87002L6.14656 5.72666C6.12144 5.70807 6.13437 5.66826 6.16562 5.66799L6.40691 5.66615L6.48324 5.43725C6.49304 5.40764 6.53499 5.40764 6.54488 5.43725Z" fill="#F5F5F5"/>
<path d="M6.54488 6.63454L6.62121 6.86345L6.86249 6.86528C6.89374 6.86556 6.90667 6.90536 6.88156 6.92396L6.68746 7.06731L6.76027 7.29735C6.76972 7.32712 6.73578 7.35181 6.71035 7.3336L6.51406 7.19329L6.31777 7.3336C6.29234 7.35177 6.25847 7.32716 6.26785 7.29735L6.34066 7.06731L6.14656 6.92396C6.12144 6.90536 6.13437 6.86556 6.16562 6.86528L6.40691 6.86345L6.48324 6.63454C6.49304 6.60489 6.53499 6.60489 6.54488 6.63454Z" fill="#F5F5F5"/>
<path d="M6.54488 7.83205L6.62121 8.06096L6.86249 8.06279C6.89374 8.06307 6.90667 8.10291 6.88156 8.12146L6.68746 8.26482L6.76027 8.49486C6.76972 8.52463 6.73578 8.54932 6.71035 8.53111L6.51406 8.3908L6.31777 8.53111C6.29234 8.54928 6.25847 8.52463 6.26785 8.49486L6.34066 8.26482L6.14656 8.12146C6.12144 8.10295 6.13437 8.06307 6.16562 8.06279L6.40691 8.06096L6.48324 7.83205C6.49304 7.8024 6.53499 7.8024 6.54488 7.83205Z" fill="#F5F5F5"/>
<path d="M6.54488 9.02953L6.62121 9.25844L6.86249 9.26027C6.89374 9.26055 6.90667 9.30035 6.88156 9.31895L6.68746 9.4623L6.76027 9.69234C6.76972 9.72211 6.73578 9.7468 6.71035 9.72859L6.51406 9.58828L6.31777 9.72859C6.29234 9.74676 6.25847 9.72211 6.26785 9.69234L6.34066 9.4623L6.14656 9.31895C6.12144 9.30035 6.13437 9.26055 6.16562 9.26027L6.40691 9.25844L6.48324 9.02953C6.49304 8.99992 6.53499 8.99992 6.54488 9.02953Z" fill="#F5F5F5"/>
<path d="M7.47432 4.82689L7.55065 5.0558L7.79194 5.05764C7.82319 5.05791 7.83612 5.09775 7.811 5.11631L7.6169 5.25967L7.68971 5.48971C7.69916 5.51947 7.66522 5.54416 7.63979 5.52596L7.4435 5.38564L7.24721 5.52596C7.22178 5.54412 7.18791 5.51947 7.19729 5.48971L7.2701 5.25967L7.076 5.11631C7.05088 5.09772 7.06381 5.05791 7.09506 5.05764L7.33635 5.0558L7.41268 4.82689C7.42252 4.79729 7.46444 4.79729 7.47432 4.82689Z" fill="#F5F5F5"/>
<path d="M7.47432 6.02419L7.55065 6.2531L7.79194 6.25493C7.82319 6.25521 7.83612 6.29505 7.811 6.3136L7.6169 6.45696L7.68971 6.687C7.69916 6.71677 7.66522 6.74146 7.63979 6.72325L7.4435 6.58294L7.24721 6.72325C7.22178 6.74142 7.18791 6.71681 7.19729 6.687L7.2701 6.45696L7.076 6.3136C7.05088 6.29509 7.06381 6.25521 7.09506 6.25493L7.33635 6.2531L7.41268 6.02419C7.42252 5.99454 7.46444 5.99454 7.47432 6.02419Z" fill="#F5F5F5"/>
<path d="M7.47432 7.2217L7.55065 7.45061L7.79194 7.45244C7.82319 7.45271 7.83612 7.49252 7.811 7.51111L7.6169 7.65447L7.68971 7.88451C7.69916 7.91428 7.66522 7.93896 7.63979 7.92076L7.4435 7.78045L7.24721 7.92076C7.22178 7.93893 7.18791 7.91428 7.19729 7.88451L7.2701 7.65447L7.076 7.51111C7.05088 7.49252 7.06381 7.45271 7.09506 7.45244L7.33635 7.45061L7.41268 7.2217C7.42252 7.19205 7.46444 7.19205 7.47432 7.2217Z" fill="#F5F5F5"/>
<path d="M7.47432 8.41918L7.55065 8.64809L7.79194 8.64992C7.82319 8.6502 7.83612 8.69 7.811 8.70859L7.6169 8.85195L7.68971 9.08199C7.69916 9.11176 7.66522 9.13645 7.63979 9.11824L7.4435 8.97793L7.24721 9.11824C7.22178 9.13645 7.18791 9.11176 7.19729 9.08199L7.2701 8.85195L7.076 8.70859C7.05088 8.69 7.06381 8.6502 7.09506 8.64992L7.33635 8.64809L7.41268 8.41918C7.42252 8.38957 7.46444 8.38957 7.47432 8.41918Z" fill="#F5F5F5"/>
<path d="M8.40376 4.23977L8.48009 4.46867L8.72138 4.47051C8.75263 4.47078 8.76556 4.51062 8.74044 4.52918L8.54634 4.6725L8.61915 4.90254C8.62861 4.9323 8.59466 4.95699 8.56923 4.93879L8.37294 4.79848L8.17665 4.93879C8.15123 4.95699 8.11736 4.9323 8.12673 4.90254L8.19955 4.6725L8.00544 4.52918C7.98033 4.51059 7.99326 4.47074 8.02451 4.47051L8.2658 4.46867L8.34212 4.23977C8.35197 4.21012 8.39384 4.21012 8.40376 4.23977Z" fill="#F5F5F5"/>
<path d="M8.40376 5.43725L8.48009 5.66615L8.72138 5.66799C8.75263 5.66826 8.76556 5.70807 8.74044 5.72666L8.54634 5.87002L8.61915 6.10006C8.62861 6.12982 8.59466 6.15451 8.56923 6.13631L8.37294 5.996L8.17665 6.13631C8.15123 6.15447 8.11736 6.12982 8.12673 6.10006L8.19955 5.87002L8.00544 5.72666C7.98033 5.70807 7.99326 5.66826 8.02451 5.66799L8.2658 5.66615L8.34212 5.43725C8.35197 5.40764 8.39384 5.40764 8.40376 5.43725Z" fill="#F5F5F5"/>
<path d="M8.40376 6.63454L8.48009 6.86345L8.72138 6.86528C8.75263 6.86556 8.76556 6.90536 8.74044 6.92396L8.54634 7.06731L8.61915 7.29735C8.62861 7.32712 8.59466 7.35181 8.56923 7.3336L8.37294 7.19329L8.17665 7.3336C8.15123 7.35177 8.11736 7.32716 8.12673 7.29735L8.19955 7.06731L8.00544 6.92396C7.98033 6.90536 7.99326 6.86556 8.02451 6.86528L8.2658 6.86345L8.34212 6.63454C8.35197 6.60489 8.39384 6.60489 8.40376 6.63454Z" fill="#F5F5F5"/>
<path d="M8.40376 7.83205L8.48009 8.06096L8.72138 8.06279C8.75263 8.06307 8.76556 8.10291 8.74044 8.12146L8.54634 8.26482L8.61915 8.49486C8.62861 8.52463 8.59466 8.54932 8.56923 8.53111L8.37294 8.3908L8.17665 8.53111C8.15123 8.54928 8.11736 8.52463 8.12673 8.49486L8.19955 8.26482L8.00544 8.12146C7.98033 8.10295 7.99326 8.06307 8.02451 8.06279L8.2658 8.06096L8.34212 7.83205C8.35197 7.8024 8.39384 7.8024 8.40376 7.83205Z" fill="#F5F5F5"/>
<path d="M8.40376 9.02953L8.48009 9.25844L8.72138 9.26027C8.75263 9.26055 8.76556 9.30035 8.74044 9.31895L8.54634 9.4623L8.61915 9.69234C8.62861 9.72211 8.59466 9.7468 8.56923 9.72859L8.37294 9.58828L8.17665 9.72859C8.15123 9.74676 8.11736 9.72211 8.12673 9.69234L8.19955 9.4623L8.00544 9.31895C7.98033 9.30035 7.99326 9.26055 8.02451 9.26027L8.2658 9.25844L8.34212 9.02953C8.35197 8.99992 8.39384 8.99992 8.40376 9.02953Z" fill="#F5F5F5"/>
</svg>
