<svg width="34" height="34" viewBox="0 0 34 34" fill="none" xmlns="http://www.w3.org/2000/svg">
<path d="M32.5 17C32.5 25.5604 25.5604 32.5 17 32.5C8.43959 32.5 1.5 25.5604 1.5 17C1.5 8.43959 8.43959 1.5 17 1.5C25.5604 1.5 32.5 8.43959 32.5 17Z" fill="#1089FF" stroke="#1089FF" stroke-width="3"/>
<path fill-rule="evenodd" clip-rule="evenodd" d="M23.3938 11.451C21.6833 10.185 19.4123 9.48779 16.9993 9.48779C14.5862 9.48779 12.3153 10.185 10.6048 11.451C8.8772 12.7297 7.92578 14.4345 7.92578 16.2515C7.92578 17.3446 8.28314 18.4302 8.95915 19.391C9.58305 20.2776 10.4784 21.0611 11.5551 21.6639C11.5054 21.9902 11.2379 22.9452 9.8002 24.0833C9.72622 24.1419 9.69605 24.2359 9.72333 24.3231C9.75062 24.4103 9.83018 24.4741 9.92616 24.4859C9.93486 24.487 10.144 24.5122 10.5155 24.5122C11.5749 24.5122 13.7398 24.3149 16.3864 23.0001C16.5906 23.0102 16.7965 23.0153 16.9993 23.0153C19.4123 23.0153 21.6832 22.3181 23.3938 21.0521C25.1214 19.7735 26.0728 18.0686 26.0728 16.2515C26.0728 14.4345 25.1214 12.7296 23.3938 11.451H23.3938Z" fill="white"/>
</svg>
