<svg width="25" height="24" viewBox="0 0 25 24" fill="none" xmlns="http://www.w3.org/2000/svg">
<path d="M20.8092 6.52379H20.0401C19.8045 6.52646 19.5729 6.46612 19.3723 6.34979C19.1716 6.23346 19.0102 6.06592 18.9068 5.86664L17.9961 4.16188C17.7668 3.72542 17.4119 3.35833 16.9718 3.1024C16.5317 2.84646 16.0241 2.71198 15.5068 2.71426H9.92106C9.40374 2.71198 8.89613 2.84646 8.45604 3.1024C8.01595 3.35833 7.66106 3.72542 7.43177 4.16188L6.52106 5.86664C6.41762 6.06592 6.2562 6.23346 6.05557 6.34979C5.85495 6.46612 5.62335 6.52646 5.38772 6.52379H4.61868C3.88065 6.52379 3.17285 6.79972 2.65098 7.29089C2.12912 7.78205 1.83594 8.44822 1.83594 9.14283V18.6666C1.83594 19.3613 2.12912 20.0274 2.65098 20.5186C3.17285 21.0098 3.88065 21.2857 4.61868 21.2857H20.8092C21.5472 21.2857 22.255 21.0098 22.7768 20.5186C23.2987 20.0274 23.5919 19.3613 23.5919 18.6666V9.14283C23.5919 8.44822 23.2987 7.78205 22.7768 7.29089C22.255 6.79972 21.5472 6.52379 20.8092 6.52379ZM12.7139 17.9524C11.6632 17.9524 10.6361 17.6591 9.76245 17.1097C8.88881 16.5603 8.20789 15.7794 7.8058 14.8658C7.40371 13.9521 7.29851 12.9468 7.50349 11.9769C7.70848 11.007 8.21444 10.1161 8.95741 9.41682C9.70038 8.71756 10.647 8.24136 11.6775 8.04843C12.708 7.8555 13.7762 7.95452 14.7469 8.33296C15.7177 8.7114 16.5473 9.35226 17.1311 10.1745C17.7148 10.9968 18.0264 11.9634 18.0264 12.9524C18.0237 14.2777 17.4632 15.548 16.4675 16.4851C15.4718 17.4222 14.1221 17.9498 12.7139 17.9524Z" fill="#9298A8"/>
<path d="M12.7141 16.5238C14.8098 16.5238 16.5087 14.9249 16.5087 12.9524C16.5087 10.98 14.8098 9.38098 12.7141 9.38098C10.6184 9.38098 8.91943 10.98 8.91943 12.9524C8.91943 14.9249 10.6184 16.5238 12.7141 16.5238Z" fill="#9298A8"/>
</svg>
