<svg width="20" height="14" viewBox="0 0 20 14" fill="none" xmlns="http://www.w3.org/2000/svg">
<g clip-path="url(#clip0_794_57040)">
<path d="M0.344843 0.449219C0.154414 0.449219 0 0.603593 0 0.794023V13.2078C0 13.3982 0.154414 13.5526 0.344843 13.5526H4.48277V0.449219H0.344843Z" fill="#FF4B55"/>
<path d="M19.6551 0.449219H15.5172V13.5526H19.6551C19.8456 13.5526 20 13.3982 20 13.2078V0.794023C20 0.603593 19.8456 0.449219 19.6551 0.449219Z" fill="#FF4B55"/>
<path d="M12.0926 8.51507L14.1388 7.34585L13.6692 7.11109C13.5376 7.04523 13.4622 6.90304 13.4817 6.75706L13.6344 5.61167L12.7681 5.86371C12.5768 5.91941 12.3782 5.80167 12.3351 5.6071L12.2522 5.23211L11.4388 6.18406C11.326 6.31601 11.1112 6.21523 11.1406 6.04413L11.488 4.0243L10.9562 4.16976C10.8008 4.21226 10.6367 4.14156 10.561 3.99945L10.001 2.94981V2.94824L10.0006 2.94902L10.0001 2.94824V2.94981L9.44011 3.99945C9.36429 4.14152 9.20022 4.21222 9.04487 4.16976L8.513 4.0243L8.86038 6.04413C8.88979 6.21515 8.67495 6.31597 8.56218 6.18406L7.74878 5.23211L7.66581 5.6071C7.62277 5.80171 7.42417 5.91937 7.2328 5.86371L6.36652 5.61167L6.51929 6.75706C6.53878 6.903 6.46339 7.04523 6.33171 7.11109L5.86218 7.34585L7.90839 8.51511C8.12034 8.63624 8.21323 8.89311 8.12773 9.12175L7.9528 9.5896L9.70612 9.43991C9.80315 9.43163 9.88573 9.50975 9.88288 9.60706L9.82764 11.4838H10.1725L10.1172 9.60698C10.1144 9.50964 10.1969 9.43155 10.294 9.43983L12.0481 9.5896L11.8732 9.12175C11.7878 8.89307 11.8806 8.63616 12.0926 8.51507Z" fill="#FF4B55"/>
</g>
<defs>
<clipPath id="clip0_794_57040">
<rect y="0.449219" width="20" height="13.1034" rx="2" fill="white"/>
</clipPath>
</defs>
</svg>
