<svg width="20" height="20" viewBox="0 0 20 20" fill="none" xmlns="http://www.w3.org/2000/svg">
<path fill-rule="evenodd" clip-rule="evenodd" d="M6.875 1.5625C7.04759 1.5625 7.1875 1.70241 7.1875 1.875C7.1875 4.80902 9.56598 7.1875 12.5 7.1875C12.6726 7.1875 12.8125 7.32741 12.8125 7.5C12.8125 7.67259 12.6726 7.8125 12.5 7.8125C9.56598 7.8125 7.1875 10.191 7.1875 13.125C7.1875 13.2976 7.04759 13.4375 6.875 13.4375C6.70241 13.4375 6.5625 13.2976 6.5625 13.125C6.5625 10.191 4.18402 7.8125 1.25 7.8125C1.07741 7.8125 0.9375 7.67259 0.9375 7.5C0.9375 7.32741 1.07741 7.1875 1.25 7.1875C4.18402 7.1875 6.5625 4.80902 6.5625 1.875C6.5625 1.70241 6.70241 1.5625 6.875 1.5625ZM6.875 3.78091C6.28358 5.52698 4.90198 6.90858 3.15591 7.5C4.90198 8.09142 6.28358 9.47302 6.875 11.2191C7.46642 9.47302 8.84802 8.09142 10.5941 7.5C8.84802 6.90858 7.46642 5.52698 6.875 3.78091Z" fill="black" stroke="black" stroke-width="0.4"/>
<path fill-rule="evenodd" clip-rule="evenodd" d="M9.53125 12.1875C9.70384 12.1875 9.84375 12.3274 9.84375 12.5C9.84375 13.967 11.033 15.1562 12.5 15.1562C12.6726 15.1562 12.8125 15.2962 12.8125 15.4688C12.8125 15.6414 12.6726 15.7812 12.5 15.7812C11.033 15.7812 9.84375 16.9705 9.84375 18.4375C9.84375 18.6102 9.70384 18.75 9.53125 18.75C9.35866 18.75 9.21875 18.6102 9.21875 18.4375C9.21875 16.9705 8.0295 15.7812 6.5625 15.7812C6.38991 15.7812 6.25 15.6414 6.25 15.4688C6.25 15.2962 6.38991 15.1562 6.5625 15.1562C8.0295 15.1562 9.21875 13.967 9.21875 12.5C9.21875 12.3274 9.35866 12.1875 9.53125 12.1875ZM9.53125 13.8994C9.20647 14.5872 8.64969 15.144 7.96186 15.4688C8.64969 15.7936 9.20647 16.3503 9.53125 17.0381C9.85603 16.3503 10.4128 15.7936 11.1006 15.4688C10.4128 15.144 9.85603 14.5872 9.53125 13.8994Z" fill="black" stroke="black" stroke-width="0.4"/>
<path fill-rule="evenodd" clip-rule="evenodd" d="M15.3906 7.73438C15.3906 7.56178 15.2507 7.42188 15.0781 7.42188C14.9055 7.42188 14.7656 7.56178 14.7656 7.73438C14.7656 9.41712 13.4015 10.7812 11.7188 10.7812C11.5462 10.7812 11.4062 10.9212 11.4062 11.0938C11.4062 11.2663 11.5462 11.4062 11.7188 11.4062C13.4015 11.4062 14.7656 12.7704 14.7656 14.4531C14.7656 14.6257 14.9055 14.7656 15.0781 14.7656C15.2507 14.7656 15.3906 14.6257 15.3906 14.4531C15.3906 12.7704 16.7547 11.4062 18.4375 11.4062C18.6102 11.4062 18.75 11.2663 18.75 11.0938C18.75 10.9212 18.6102 10.7812 18.4375 10.7812C16.7547 10.7812 15.3906 9.41712 15.3906 7.73438ZM13.2033 11.0938C14.0378 10.7245 14.7088 10.0534 15.0781 9.21897C15.4474 10.0534 16.1184 10.7245 16.953 11.0938C16.1184 11.463 15.4474 12.1341 15.0781 12.9685C14.7088 12.1341 14.0378 11.463 13.2033 11.0938Z" fill="black" stroke="black" stroke-width="0.4"/>
</svg>
