<svg width="20" height="20" viewBox="0 0 20 20" fill="none" xmlns="http://www.w3.org/2000/svg">
<path fill-rule="evenodd" clip-rule="evenodd" d="M10 20C15.5229 20 20 15.5228 20 10C20 4.47715 15.5228 0 10 0C4.47715 0 2.25165e-07 4.47715 5.02921e-07 10C7.80676e-07 15.5228 4.47715 20 10 20Z" fill="#EBEEF7"/>
<path fill-rule="evenodd" clip-rule="evenodd" d="M9.94973 12.3088C9.8579 12.3088 9.76598 12.2737 9.69587 12.2036L6.10523 8.61295C5.96493 8.47265 5.96492 8.24545 6.10523 8.10523C6.24553 7.96501 6.47273 7.96492 6.61295 8.10523L9.94974 11.442L13.2865 8.10523C13.4268 7.96492 13.654 7.96492 13.7942 8.10523C13.9345 8.24553 13.9345 8.47273 13.7942 8.61295L10.2036 12.2036C10.1335 12.2737 10.0416 12.3088 9.94974 12.3088H9.94973Z" fill="#9298A8" stroke="#9298A8"/>
</svg>
