<svg width="20" height="20" viewBox="0 0 20 20" fill="none" xmlns="http://www.w3.org/2000/svg">
<path d="M18.1827 4.82393L5.44103 16.7712H1.02881L1.33436 12.3712L10.8188 3.4856L13.6666 6.61449L14.6933 5.67338L11.8333 2.53838L14.076 0.436155C14.1483 0.367731 14.2335 0.314353 14.3266 0.279119C14.4197 0.243886 14.5189 0.227499 14.6184 0.23091C14.7179 0.234321 14.8157 0.257463 14.9062 0.298991C14.9967 0.340519 15.078 0.399606 15.1455 0.472822L18.201 3.76671C18.3378 3.90983 18.4126 4.10114 18.4092 4.29909C18.4058 4.49704 18.3244 4.68564 18.1827 4.82393Z" fill="#9298A8"/>
<path d="M0.222168 18.7711H19.7777V20.1706H0.222168V18.7711Z" fill="#9298A8"/>
</svg>
