<svg width="28" height="28" viewBox="0 0 28 28" fill="none" xmlns="http://www.w3.org/2000/svg">
<g clip-path="url(#clip0_565_19378)">
<path d="M18.4273 7.25337C17.3752 6.43146 17.4821 2.84242 17.667 1.15063L24.0985 7.62324C22.6465 7.84241 19.4793 8.07529 18.4273 7.25337Z" fill="#1089FF"/>
<path d="M18.042 0.161713C17.9136 0.0264894 17.7376 -0.0546875 17.5551 -0.0546875H6.63236C4.61682 -0.0546875 2.95312 1.60239 2.95312 3.61771V24.2728C2.95312 26.2883 4.61682 27.9454 6.63236 27.9454H21.4574C23.4729 27.9454 25.1366 26.2883 25.1366 24.2728V7.87181C25.1366 7.696 25.0555 7.52702 24.9405 7.39842L18.042 0.161713ZM18.2381 2.33277L22.8575 7.18202H19.8546C18.9619 7.18202 18.2381 6.4651 18.2381 5.57237V2.33277ZM21.4574 26.5927H6.63236C5.36771 26.5927 4.30579 25.5445 4.30579 24.2728V3.61771C4.30579 2.35306 5.36088 1.29798 6.63236 1.29798H16.8854V5.57237C16.8854 7.21577 18.2112 8.53468 19.8546 8.53468H23.784V24.2728C23.784 25.5445 22.7289 26.5927 21.4574 26.5927Z" fill="#2D3898"/>
<path d="M18.7034 20.7402H9.40109C9.09031 20.7402 8.83594 20.999 8.83594 21.3156C8.83594 21.632 9.09031 21.8909 9.40109 21.8909H18.7091C19.0199 21.8909 19.2743 21.632 19.2743 21.3156C19.2743 20.999 19.0199 20.7402 18.7034 20.7402Z" fill="#2D3898"/>
<path d="M11.1402 14.6493L13.4732 12.141V18.3239C13.4732 18.6353 13.7281 18.8901 14.0395 18.8901C14.3511 18.8901 14.6058 18.6353 14.6058 18.3239V12.141L16.9388 14.6493C17.052 14.7681 17.1994 14.8305 17.3521 14.8305C17.488 14.8305 17.6297 14.7795 17.7372 14.6776C17.9638 14.4625 17.9808 14.1057 17.7656 13.8793L14.4473 10.3179C14.3396 10.2047 14.1924 10.1367 14.034 10.1367C13.8753 10.1367 13.7281 10.2047 13.6206 10.3179L10.3023 13.8793C10.0871 14.1057 10.1041 14.468 10.3306 14.6776C10.5684 14.8927 10.9251 14.8758 11.1402 14.6493Z" fill="#2D3898"/>
</g>
<defs>
<clipPath id="clip0_565_19378">
<rect width="28" height="28" fill="white"/>
</clipPath>
</defs>
</svg>
