<svg width="40" height="40" viewBox="0 0 40 40" fill="none" xmlns="http://www.w3.org/2000/svg">
<path opacity="0.8" fill-rule="evenodd" clip-rule="evenodd" d="M20 0C31.0457 0 40 8.95431 40 20C40 31.0457 31.0457 40 20 40C8.95431 40 0 31.0457 0 20C0 8.95431 8.95431 0 20 0Z" fill="#131A1B" fill-opacity="0.81"/>
<path d="M18.8172 21.1825C18.9031 21.2678 18.9713 21.3691 19.0178 21.4808C19.0644 21.5926 19.0883 21.7124 19.0883 21.8334C19.0883 21.9544 19.0644 22.0742 19.0178 22.1859C18.9713 22.2976 18.9031 22.399 18.8172 22.4842L13.9588 27.3334H16.333C16.5761 27.3334 16.8093 27.43 16.9812 27.6019C17.1531 27.7738 17.2497 28.0069 17.2497 28.25C17.2497 28.4932 17.1531 28.7263 16.9812 28.8982C16.8093 29.0701 16.5761 29.1667 16.333 29.1667H11.7497C11.5066 29.1667 11.2734 29.0701 11.1015 28.8982C10.9296 28.7263 10.833 28.4932 10.833 28.25V23.6667C10.833 23.4236 10.9296 23.1904 11.1015 23.0185C11.2734 22.8466 11.5066 22.75 11.7497 22.75C11.9928 22.75 12.2259 22.8466 12.3979 23.0185C12.5698 23.1904 12.6663 23.4236 12.6663 23.6667V26.0409L17.5155 21.1825C17.6007 21.0966 17.7021 21.0284 17.8138 20.9819C17.9255 20.9354 18.0453 20.9114 18.1663 20.9114C18.2874 20.9114 18.4072 20.9354 18.5189 20.9819C18.6306 21.0284 18.732 21.0966 18.8172 21.1825ZM28.2497 10.8334H23.6663C23.4232 10.8334 23.1901 10.93 23.0182 11.1019C22.8463 11.2738 22.7497 11.5069 22.7497 11.75C22.7497 11.9932 22.8463 12.2263 23.0182 12.3982C23.1901 12.5701 23.4232 12.6667 23.6663 12.6667H26.0405L21.1822 17.5159C21.0963 17.6011 21.0281 17.7025 20.9815 17.8142C20.935 17.9259 20.911 18.0457 20.911 18.1667C20.911 18.2877 20.935 18.4075 20.9815 18.5192C21.0281 18.6309 21.0963 18.7323 21.1822 18.8175C21.2674 18.9035 21.3688 18.9717 21.4805 19.0182C21.5922 19.0647 21.712 19.0887 21.833 19.0887C21.954 19.0887 22.0738 19.0647 22.1855 19.0182C22.2972 18.9717 22.3986 18.9035 22.4838 18.8175L27.333 13.9592V16.3334C27.333 16.5765 27.4296 16.8096 27.6015 16.9816C27.7734 17.1535 28.0066 17.25 28.2497 17.25C28.4928 17.25 28.7259 17.1535 28.8979 16.9816C29.0698 16.8096 29.1663 16.5765 29.1663 16.3334V11.75C29.1663 11.5069 29.0698 11.2738 28.8979 11.1019C28.7259 10.93 28.4928 10.8334 28.2497 10.8334Z" fill="#EBEEF7"/>
</svg>
