<svg width="33" height="32" viewBox="0 0 33 32" fill="none" xmlns="http://www.w3.org/2000/svg">
<path d="M12.9176 14.3333C10.891 14.3333 9.25098 12.6933 9.25098 10.6667C9.25098 8.64 10.891 7 12.9176 7C14.9443 7 16.5843 8.64 16.5843 10.6667C16.5843 12.6933 14.9443 14.3333 12.9176 14.3333ZM12.9176 9C11.9976 9 11.251 9.74667 11.251 10.6667C11.251 11.5867 11.9976 12.3333 12.9176 12.3333C13.8376 12.3333 14.5843 11.5867 14.5843 10.6667C14.5843 9.74667 13.8376 9 12.9176 9Z" fill="#2D3898"/>
<path d="M26.5391 16C27.7391 16 29.3724 17.6667 30.0391 18.5C30.0391 20.3333 29.9391 24.3 29.5391 25.5C29.0391 27 27.5391 28.5 25.0391 29C22.5391 29.5 11.0391 29.5 8.53906 29C6.53906 28.6 5.03906 26.5 4.53906 25.5C6.53906 23.8333 11.0391 20.5 13.0391 20.5C15.5391 20.5 15.0391 22 17.0391 22C19.0391 22 25.0391 16 26.5391 16Z" fill="#1089FF"/>
<path d="M20.9178 30.3327H12.9178C5.67781 30.3327 2.58447 27.2394 2.58447 19.9994V11.9994C2.58447 4.75935 5.67781 1.66602 12.9178 1.66602H18.2511C18.7978 1.66602 19.2511 2.11935 19.2511 2.66602C19.2511 3.21268 18.7978 3.66602 18.2511 3.66602H12.9178C6.77114 3.66602 4.58447 5.85268 4.58447 11.9994V19.9994C4.58447 26.146 6.77114 28.3327 12.9178 28.3327H20.9178C27.0645 28.3327 29.2511 26.146 29.2511 19.9994V13.3327C29.2511 12.786 29.7045 12.3327 30.2511 12.3327C30.7978 12.3327 31.2511 12.786 31.2511 13.3327V19.9994C31.2511 27.2394 28.1578 30.3327 20.9178 30.3327Z" fill="#2D3898"/>
<path d="M24.918 11.6659C24.3713 11.6659 23.918 11.2126 23.918 10.6659V2.66593C23.918 2.26593 24.158 1.8926 24.5313 1.74593C24.9046 1.59927 25.3313 1.67927 25.6246 1.95927L28.2913 4.62593C28.678 5.0126 28.678 5.6526 28.2913 6.03927C27.9046 6.42593 27.2646 6.42593 26.878 6.03927L25.918 5.07927V10.6659C25.918 11.2126 25.4646 11.6659 24.918 11.6659Z" fill="#2D3898"/>
<path d="M22.2511 6.33325C21.9977 6.33325 21.7444 6.23992 21.5444 6.03992C21.1577 5.65325 21.1577 5.01325 21.5444 4.62659L24.2111 1.95992C24.5977 1.57326 25.2377 1.57326 25.6244 1.95992C26.0111 2.34659 26.0111 2.98659 25.6244 3.37325L22.9577 6.03992C22.7577 6.23992 22.5044 6.33325 22.2511 6.33325Z" fill="#2D3898"/>
<path d="M4.47755 26.2661C4.15755 26.2661 3.83755 26.1061 3.65088 25.8261C3.34421 25.3728 3.46421 24.7461 3.91755 24.4394L10.4909 20.0261C11.9309 19.0661 13.9175 19.1728 15.2242 20.2794L15.6642 20.6661C16.3309 21.2394 17.4642 21.2394 18.1175 20.6661L23.6642 15.9061C25.0775 14.6928 27.3042 14.6928 28.7309 15.9061L30.9042 17.7728C31.3175 18.1328 31.3709 18.7594 31.0109 19.1861C30.6509 19.5994 30.0109 19.6528 29.5975 19.2928L27.4242 17.4261C26.7575 16.8528 25.6375 16.8528 24.9709 17.4261L19.4242 22.1861C18.0109 23.3994 15.7842 23.3994 14.3575 22.1861L13.9175 21.7994C13.3042 21.2794 12.2909 21.2261 11.6109 21.6928L5.05088 26.1061C4.86421 26.2128 4.66421 26.2661 4.47755 26.2661Z" fill="#2D3898"/>
</svg>
