<svg width="34" height="34" viewBox="0 0 34 34" fill="none" xmlns="http://www.w3.org/2000/svg">
<g clip-path="url(#clip0_490_4856)">
<path d="M34 17C34 7.61116 26.3888 0 17 0C7.61116 0 0 7.61116 0 17C0 26.3888 7.61116 34 17 34C26.3888 34 34 26.3888 34 17Z" fill="#24292B"/>
<path d="M21.0264 8.05261H12.9738C11.6686 8.05261 10.417 8.57108 9.49408 9.49396C8.5712 10.4168 8.05273 11.6685 8.05273 12.9737V21.0263C8.05273 22.3314 8.5712 23.5831 9.49408 24.506C10.417 25.4289 11.6686 25.9473 12.9738 25.9473H21.0264C22.3316 25.9473 23.5833 25.4289 24.5061 24.506C25.429 23.5831 25.9475 22.3314 25.9475 21.0263V12.9737C25.9475 11.6685 25.429 10.4168 24.5061 9.49396C23.5833 8.57108 22.3316 8.05261 21.0264 8.05261ZM24.3817 20.3195C24.3817 21.3968 23.9537 22.43 23.1919 23.1918C22.4301 23.9536 21.3969 24.3816 20.3196 24.3816H13.6806C12.6033 24.3816 11.5701 23.9536 10.8083 23.1918C10.0465 22.43 9.61852 21.3968 9.61852 20.3195V13.6805C9.61852 12.6032 10.0465 11.57 10.8083 10.8082C11.5701 10.0464 12.6033 9.6184 13.6806 9.6184H20.3196C21.3969 9.6184 22.4301 10.0464 23.1919 10.8082C23.9537 11.57 24.3817 12.6032 24.3817 13.6805V20.3195Z" fill="white"/>
<path d="M20.2638 13.77L20.2213 13.7275L20.1855 13.6917C19.3397 12.8489 18.1942 12.3759 17.0002 12.3765C16.3973 12.3806 15.801 12.5034 15.2455 12.738C14.6901 12.9726 14.1863 13.3144 13.7629 13.7437C13.3396 14.1731 13.005 14.6817 12.7783 15.2404C12.5515 15.7991 12.4371 16.3971 12.4415 17C12.4406 18.2237 12.923 19.3982 13.7836 20.268C14.2052 20.6947 14.7076 21.0332 15.2614 21.2636C15.8152 21.4941 16.4093 21.6119 17.0092 21.6101C17.9089 21.5913 18.7837 21.311 19.5269 20.8035C20.2701 20.296 20.8495 19.5832 21.1946 18.752C21.5396 17.9208 21.6353 17.0072 21.47 16.1226C21.3048 15.238 20.8856 14.4205 20.2638 13.77ZM17.0002 20.0332C16.3986 20.0416 15.808 19.8709 15.3037 19.5428C14.7993 19.2147 14.4039 18.7439 14.1678 18.1905C13.9317 17.6371 13.8656 17.0259 13.9777 16.4348C14.0899 15.8436 14.3754 15.2992 14.7979 14.8707C15.2203 14.4423 15.7607 14.1491 16.3502 14.0286C16.9397 13.9081 17.5517 13.9656 18.1084 14.1939C18.6651 14.4222 19.1414 14.8109 19.4766 15.3106C19.8118 15.8102 19.9908 16.3983 19.9909 17C19.9938 17.3956 19.9188 17.7879 19.7701 18.1544C19.6213 18.521 19.4018 18.8546 19.1241 19.1363C18.8463 19.418 18.5158 19.6422 18.1514 19.7961C17.787 19.95 17.3958 20.0305 17.0002 20.0332Z" fill="white"/>
<path d="M22.9119 12.1639C22.913 12.3075 22.8859 12.4498 22.832 12.5829C22.7781 12.7159 22.6985 12.837 22.5977 12.9392C22.4969 13.0414 22.377 13.1228 22.2447 13.1786C22.1125 13.2344 21.9705 13.2636 21.827 13.2644C21.6847 13.2644 21.5438 13.2361 21.4124 13.1812C21.2811 13.1263 21.162 13.0458 21.062 12.9446C20.9105 12.7908 20.8074 12.596 20.7655 12.3842C20.7237 12.1724 20.7449 11.953 20.8266 11.7532C20.9083 11.5534 21.0469 11.3819 21.2251 11.2601C21.4033 11.1383 21.6134 11.0714 21.8292 11.0679C22.0819 11.0678 22.3265 11.1565 22.5204 11.3184L22.5428 11.3408C22.5789 11.3701 22.6118 11.4031 22.6412 11.4392L22.6658 11.466C22.8259 11.6633 22.9129 11.9099 22.9119 12.1639Z" fill="white"/>
</g>
<defs>
<clipPath id="clip0_490_4856">
<rect width="34" height="34" fill="white"/>
</clipPath>
</defs>
</svg>
