<svg width="14" height="14" viewBox="0 0 14 14" fill="none" xmlns="http://www.w3.org/2000/svg">
<path d="M5.04011 3.91979C5.04011 2.83619 5.91651 1.95979 7.00011 1.95979C8.08371 1.95979 8.96011 2.83619 8.96011 3.91979V6.29979H10.6401V3.91979C10.6401 1.90939 9.01051 0.279785 7.00011 0.279785C4.98971 0.279785 3.36011 1.90939 3.36011 3.91979L3.36011 6.29979H5.04011L5.04011 3.91979Z" fill="#9298A8"/>
<path d="M10.92 7L3.07999 7C2.61519 7 2.23999 7.3752 2.23999 7.84L2.23999 12.88C2.23999 13.3448 2.61519 13.72 3.07999 13.72H10.92C11.3848 13.72 11.76 13.3448 11.76 12.88V7.84C11.76 7.3752 11.3848 7 10.92 7ZM7.34999 11.48C7.34999 11.6732 7.19319 11.83 6.99999 11.83C6.80679 11.83 6.64999 11.6732 6.64999 11.48L6.64999 10.36C6.64999 10.1668 6.80679 10.01 6.99999 10.01C7.19319 10.01 7.34999 10.1668 7.34999 10.36L7.34999 11.48Z" fill="#9298A8"/>
</svg>
