<svg width="20" height="20" viewBox="0 0 20 20" fill="none" xmlns="http://www.w3.org/2000/svg">
<g clip-path="url(#clip0_851_82936)">
<path d="M18.4177 8.8015L2.29409 0.936296C2.15542 0.868654 2.00315 0.833496 1.84886 0.833496C1.28801 0.833496 0.833344 1.28816 0.833344 1.84901V1.87832C0.833344 2.01459 0.850052 2.15035 0.883102 2.28255L2.42974 8.46908C2.47199 8.63808 2.61486 8.76291 2.78796 8.78216L9.58593 9.5375C9.82168 9.56366 10 9.76291 10 10.0002C10 10.2374 9.82168 10.4367 9.58593 10.4628L2.78796 11.2182C2.61486 11.2374 2.47199 11.3622 2.42974 11.5312L0.883102 17.7177C0.850052 17.85 0.833344 17.9857 0.833344 18.122V18.1513C0.833344 18.7122 1.28801 19.1668 1.84886 19.1668C2.00315 19.1668 2.15542 19.1317 2.29409 19.064L18.4177 11.1988C18.8759 10.9753 19.1667 10.5101 19.1667 10.0002C19.1667 9.49025 18.8759 9.025 18.4177 8.8015Z" fill="#1089FF"/>
</g>
<defs>
<clipPath id="clip0_851_82936">
<rect width="20" height="20" fill="white"/>
</clipPath>
</defs>
</svg>
