<svg width="40" height="40" viewBox="0 0 40 40" fill="none" xmlns="http://www.w3.org/2000/svg">
<path opacity="0.8" fill-rule="evenodd" clip-rule="evenodd" d="M20 0C31.0457 0 40 8.95431 40 20C40 31.0457 31.0457 40 20 40C8.95431 40 0 31.0457 0 20C0 8.95431 8.95431 0 20 0Z" fill="#131A1B" fill-opacity="0.81"/>
<path d="M26.4449 19.0552L21.8615 19.0552C21.6184 19.0552 21.3853 18.9586 21.2134 18.7867C21.0415 18.6148 20.9449 18.3816 20.9449 18.1385L20.9449 13.5552C20.9449 13.3121 21.0415 13.0789 21.2134 12.907C21.3853 12.7351 21.6184 12.6385 21.8615 12.6385C22.1047 12.6385 22.3378 12.7351 22.5097 12.907C22.6816 13.0789 22.7782 13.3121 22.7782 13.5552L22.7782 15.9293L27.6274 11.071C27.7126 10.9851 27.814 10.9169 27.9257 10.8704C28.0374 10.8238 28.1572 10.7999 28.2782 10.7999C28.3992 10.7999 28.519 10.8238 28.6307 10.8704C28.7424 10.9169 28.8438 10.9851 28.929 11.071C29.015 11.1562 29.0832 11.2576 29.1297 11.3693C29.1762 11.481 29.2002 11.6008 29.2002 11.7218C29.2002 11.8429 29.1762 11.9627 29.1297 12.0744C29.0832 12.1861 29.015 12.2875 28.929 12.3727L24.0707 17.2218L26.4449 17.2218C26.688 17.2218 26.9212 17.3184 27.0931 17.4903C27.265 17.6622 27.3615 17.8954 27.3615 18.1385C27.3615 18.3816 27.265 18.6148 27.0931 18.7867C26.9212 18.9586 26.688 19.0552 26.4449 19.0552Z" fill="#EBEEF7"/>
<path d="M13.6 20.9448H18.1834C18.4265 20.9448 18.6596 21.0414 18.8316 21.2133C19.0035 21.3852 19.1 21.6184 19.1 21.8615V26.4448C19.1 26.6879 19.0035 26.9211 18.8316 27.093C18.6596 27.2649 18.4265 27.3615 18.1834 27.3615C17.9403 27.3615 17.7071 27.2649 17.5352 27.093C17.3633 26.9211 17.2667 26.6879 17.2667 26.4448V24.0707L12.4175 28.929C12.3323 29.0149 12.2309 29.0831 12.1192 29.1296C12.0075 29.1762 11.8877 29.2001 11.7667 29.2001C11.6457 29.2001 11.5259 29.1762 11.4142 29.1296C11.3025 29.0831 11.2011 29.0149 11.1159 28.929C11.03 28.8438 10.9618 28.7424 10.9152 28.6307C10.8687 28.519 10.8447 28.3992 10.8447 28.2782C10.8447 28.1571 10.8687 28.0373 10.9152 27.9256C10.9618 27.8139 11.03 27.7125 11.1159 27.6273L15.9742 22.7782H13.6C13.3569 22.7782 13.1238 22.6816 12.9519 22.5097C12.78 22.3378 12.6834 22.1046 12.6834 21.8615C12.6834 21.6184 12.78 21.3852 12.9519 21.2133C13.1238 21.0414 13.3569 20.9448 13.6 20.9448Z" fill="#EBEEF7"/>
</svg>
