<svg width="50" height="50" viewBox="0 0 50 50" fill="none" xmlns="http://www.w3.org/2000/svg">
<circle cx="25" cy="25" r="24.5" fill="white" stroke="#1089FF"/>
<g clip-path="url(#clip0_662_126263)">
<path d="M35.8163 18.1068L30.1288 12.2006C29.9433 12.0082 29.6589 11.9478 29.4114 12.0474C29.1629 12.148 29.0001 12.3887 29.0001 12.6564V15.5002H28.7814C24.0775 15.5002 20.2502 19.3274 20.2502 24.0314V25.3439C20.2502 25.6483 20.4646 25.9021 20.7612 25.9713C20.8094 25.9834 20.8575 25.9887 20.9055 25.9887C21.1532 25.9887 21.3903 25.8434 21.5049 25.6151C22.7352 23.1537 25.2088 21.6251 27.9606 21.6251H29.0001V24.4688C29.0001 24.7366 29.1629 24.9773 29.4114 25.0769C29.6573 25.1776 29.9433 25.1164 30.1288 24.9238L35.8163 19.0176C36.0613 18.763 36.0613 18.3623 35.8163 18.1068Z" fill="#1089FF"/>
<path d="M33.3751 32.9997H17.6253C16.178 32.9997 15.0003 31.8221 15.0003 30.3747V18.125C15.0003 16.6777 16.178 15.5 17.6253 15.5H20.2502C20.7341 15.5 21.1252 15.8911 21.1252 16.3749C21.1252 16.8588 20.7341 17.2499 20.2502 17.2499H17.6253C17.1422 17.2499 16.7502 17.6419 16.7502 18.125V30.3747C16.7502 30.8578 17.1422 31.2498 17.6253 31.2498H33.3751C33.858 31.2498 34.25 30.8578 34.25 30.3747V23.3749C34.25 22.8911 34.6411 22.4998 35.125 22.4998C35.609 22.4998 36.0001 22.8911 36.0001 23.3749V30.3747C36.0001 31.8221 34.8223 32.9997 33.3751 32.9997Z" fill="#1089FF"/>
</g>
<defs>
<clipPath id="clip0_662_126263">
<rect width="21" height="21" fill="white" transform="translate(15 12)"/>
</clipPath>
</defs>
</svg>
