<svg width="50" height="50" viewBox="0 0 50 50" fill="none" xmlns="http://www.w3.org/2000/svg">
<circle cx="25" cy="25" r="24.5" fill="white" stroke="#1089FF"/>
<path d="M26.8386 27.7171C26.2913 28.082 25.6555 28.2749 25 28.2749C24.3446 28.2749 23.7088 28.082 23.1615 27.7171L14.1465 21.7069C14.0965 21.6736 14.0477 21.6388 14 21.6031V31.4514C14 32.5805 14.9163 33.4766 16.0252 33.4766H33.9747C35.1038 33.4766 36 32.5603 36 31.4514V21.603C35.9521 21.6389 35.9033 21.6737 35.8532 21.7071L26.8386 27.7171Z" fill="#1089FF"/>
<path d="M15.4162 19.8028L15.416 19.8026C15.1549 19.6286 15 19.3393 15 19.0256C15 18.4602 15.4608 18 16.0246 18C16.0246 18 16.0246 18 16.0246 18H33.9754C34.5395 18 35 18.4605 35 19.0246C35 19.3397 34.8449 19.6288 34.584 19.8026L34.5838 19.8028L25.5689 25.8129C25.5688 25.813 25.5688 25.813 25.5688 25.813C25.3943 25.9293 25.1967 25.9863 25 25.9863C24.8032 25.9863 24.6057 25.9293 24.4312 25.813L24.4312 25.813L15.4162 19.8028Z" stroke="#1089FF" stroke-width="2"/>
</svg>
