<svg width="50" height="50" viewBox="0 0 50 50" fill="none" xmlns="http://www.w3.org/2000/svg">
<circle cx="25" cy="25" r="24.5" fill="white" stroke="#1089FF"/>
<g clip-path="url(#clip0_662_126252)">
<path d="M35.1333 19.2768H32.5878V14.6467C32.5878 14.2049 32.2297 13.8467 31.7878 13.8467H18.2122C17.7704 13.8467 17.4122 14.2049 17.4122 14.6467V19.2768H14.8667C13.8374 19.2768 13 20.1142 13 21.1435V29.192C13 30.2213 13.8374 31.0587 14.8667 31.0587H17.4123V35.3531C17.4123 35.7949 17.7704 36.1531 18.2123 36.1531H31.7877C32.2295 36.1531 32.5877 35.7949 32.5877 35.3531V31.0587H35.1333C36.1626 31.0587 37 30.2213 37 29.192V21.1435C37 20.1142 36.1626 19.2768 35.1333 19.2768ZM19.0121 15.4467H30.9879V19.2768H19.0121V15.4467ZM30.9877 34.5531H19.0123C19.0123 34.3967 19.0123 28.2014 19.0123 28.008H30.9878C30.9877 28.2062 30.9877 34.4027 30.9877 34.5531ZM31.7878 23.9744H29.7514C29.3096 23.9744 28.9514 23.6162 28.9514 23.1743C28.9514 22.7325 29.3096 22.3743 29.7514 22.3743H31.7878C32.2296 22.3743 32.5878 22.7325 32.5878 23.1743C32.5878 23.6162 32.2297 23.9744 31.7878 23.9744Z" fill="#1089FF"/>
</g>
<defs>
<clipPath id="clip0_662_126252">
<rect width="24" height="24" fill="white" transform="translate(13 13)"/>
</clipPath>
</defs>
</svg>
