<svg width="24" height="15" viewBox="0 0 24 15" fill="none" xmlns="http://www.w3.org/2000/svg">
<g clip-path="url(#clip0_794_57129)">
<path d="M0 0H5.49858V15H0V0Z" fill="#F5F5F5"/>
<path d="M5.44714 0H24V15H5.44714V0Z" fill="#0C590B"/>
<path d="M15.4286 11.0373C14.4784 11.0486 13.5513 10.7548 12.7931 10.2021C12.0348 9.64937 11.4883 8.86908 11.2395 7.98389C10.9908 7.09869 11.0538 6.1588 11.4188 5.31196C11.7837 4.46513 12.4299 3.75938 13.2557 3.30566C12.6241 3.37492 12.0163 3.57895 11.4765 3.90295C10.9366 4.22695 10.4782 4.66281 10.1344 5.17896C9.79067 5.6951 9.57017 6.2786 9.4889 6.88717C9.40763 7.49574 9.46764 8.11413 9.66457 8.69755C9.8615 9.28097 10.1904 9.81479 10.6275 10.2603C11.0646 10.7059 11.5989 11.052 12.1917 11.2736C12.7845 11.4952 13.4209 11.5867 14.0549 11.5416C14.6889 11.4964 15.3045 11.3157 15.8571 11.0125C15.7148 11.0276 15.5718 11.0359 15.4286 11.0373Z" fill="white"/>
<path d="M15.78 5.57657L16.6586 5.30768L16.3414 6.14331L16.8772 6.86725L15.96 6.83829L15.4114 7.54982L15.1586 6.69764L14.2843 6.41634L15.0472 5.91993L15.0557 5.03052L15.78 5.57657Z" fill="white"/>
</g>
<defs>
<clipPath id="clip0_794_57129">
<rect width="24" height="15" rx="2" fill="white"/>
</clipPath>
</defs>
</svg>
