<svg width="28" height="34" viewBox="0 0 28 34" fill="none" xmlns="http://www.w3.org/2000/svg">
<rect x="0.138086" y="0.1" width="26.8" height="32.9364" rx="2.9" fill="#E6FFF8" stroke="#008D61" stroke-width="0.2"/>
<path d="M7.80896 20.7791C7.52669 20.7791 7.33646 20.8067 7.23828 20.8343V22.6414C7.35487 22.6691 7.50061 22.6767 7.70158 22.6767C8.43641 22.6767 8.88896 22.3055 8.88896 21.678C8.88896 21.1166 8.4993 20.7791 7.80896 20.7791ZM13.1583 20.7975C12.8515 20.7975 12.6521 20.8251 12.5339 20.8527V24.8567C12.6521 24.8843 12.8423 24.8843 13.0141 24.8843C14.2675 24.8935 15.0836 24.2031 15.0836 22.7427C15.0928 21.4694 14.3488 20.7975 13.1583 20.7975Z" fill="#008D61"/>
<path d="M16.6056 1.32495H4.33283C3.5191 1.32495 2.7387 1.6482 2.1633 2.22361C1.5879 2.799 1.26465 3.57941 1.26465 4.39313V28.9386C1.26465 29.7523 1.5879 30.5327 2.1633 31.1081C2.7387 31.6835 3.5191 32.0068 4.33283 32.0068H22.7419C23.5556 32.0068 24.336 31.6835 24.9114 31.1081C25.4869 30.5327 25.8101 29.7523 25.8101 28.9386V10.5295L16.6056 1.32495ZM9.69908 23.0937C9.22505 23.5386 8.5255 23.738 7.7109 23.738C7.55295 23.7397 7.39508 23.7305 7.2384 23.7104V25.898H5.86692V19.8598C6.48585 19.7675 7.11125 19.7255 7.73698 19.734C8.59147 19.734 9.19897 19.8967 9.60857 20.2234C9.99823 20.5333 10.2621 21.0411 10.2621 21.6394C10.2606 22.2407 10.0611 22.7485 9.69908 23.0937ZM15.5394 25.1724C14.895 25.7078 13.9148 25.9625 12.7166 25.9625C11.9987 25.9625 11.4909 25.9164 11.1457 25.8704V19.8614C11.7649 19.771 12.39 19.7284 13.0158 19.734C14.1771 19.734 14.9319 19.9427 15.521 20.3876C16.1576 20.8601 16.5565 21.6133 16.5565 22.6948C16.5565 23.8653 16.1285 24.6738 15.5394 25.1724ZM21.2078 20.9153H18.8576V22.3128H21.0544V23.4389H18.8576V25.8996H17.4677V19.7801H21.2078V20.9153ZM16.6056 12.0636H15.0715V4.39313L22.7419 12.0636H16.6056Z" fill="#008D61"/>
</svg>
