<svg width="40" height="40" viewBox="0 0 40 40" fill="none" xmlns="http://www.w3.org/2000/svg">
<path fill-rule="evenodd" clip-rule="evenodd" d="M20 0C31.0457 0 40 8.95431 40 20C40 31.0457 31.0457 40 20 40C8.95431 40 0 31.0457 0 20C0 8.95431 8.95431 0 20 0Z" fill="#EBEEF7"/>
<path fill-rule="evenodd" clip-rule="evenodd" d="M8.68018 20.4797C8.68018 18.0059 10.6856 16.0005 13.1593 16.0005H19.576C22.0497 16.0005 24.0551 18.0059 24.0551 20.4797V26.8962C24.0551 29.3701 22.0497 31.3754 19.576 31.3754H13.1593C10.6855 31.3754 8.68018 29.3701 8.68018 26.8962V20.4797ZM13.1593 17.7922C11.6751 17.7922 10.4718 18.9954 10.4718 20.4797V26.8962C10.4718 28.3805 11.6751 29.5837 13.1593 29.5837H19.576C21.0602 29.5837 22.2635 28.3805 22.2635 26.8962V20.4797C22.2635 18.9954 21.0602 17.7922 19.576 17.7922H13.1593Z" fill="#9298A8"/>
<path fill-rule="evenodd" clip-rule="evenodd" d="M15.4015 13.7565C15.4015 11.2827 17.4069 9.27734 19.8807 9.27734H26.2972C28.7711 9.27734 30.7764 11.2827 30.7764 13.7565V20.1731C30.7764 22.6468 28.7711 24.6523 26.2972 24.6523H23.3779V22.8606H26.2972C27.7815 22.8606 28.9847 21.6573 28.9847 20.1731V13.7565C28.9847 12.2722 27.7815 11.069 26.2972 11.069H19.8807C18.3964 11.069 17.1932 12.2722 17.1932 13.7565V16.9588H15.4015V13.7565Z" fill="#9298A8"/>
<path d="M20.6606 20.9295C20.6606 21.7736 19.9763 22.4578 19.1323 22.4578C18.2883 22.4578 17.604 21.7736 17.604 20.9295C17.604 20.0855 18.2883 19.4014 19.1323 19.4014C19.9763 19.4014 20.6606 20.0855 20.6606 20.9295Z" fill="#9298A8"/>
<path fill-rule="evenodd" clip-rule="evenodd" d="M17.5658 30.2841C17.2082 26.4929 14.1247 23.4008 10.1349 22.8812L10.3663 21.1045C15.127 21.7246 18.9079 25.4346 19.3496 30.1158L17.5658 30.2841Z" fill="#9298A8"/>
<path fill-rule="evenodd" clip-rule="evenodd" d="M11.929 8.34588C12.2789 7.99604 12.8461 7.99604 13.1959 8.34588L14.143 9.29294C14.9593 10.1092 14.9593 11.4327 14.143 12.249L13.1959 13.1961C12.8461 13.5459 12.2789 13.5459 11.929 13.1961C11.5792 12.8463 11.5792 12.279 11.929 11.9292L12.8761 10.9821C12.9927 10.8655 12.9927 10.6764 12.8761 10.5598L11.929 9.61277C11.5792 9.26293 11.5792 8.69572 11.929 8.34588Z" fill="#9298A8"/>
<path fill-rule="evenodd" clip-rule="evenodd" d="M28.1262 31.1127C27.7763 31.4625 27.2091 31.4625 26.8592 31.1127L25.9121 30.1656C25.0959 29.3493 25.0959 28.0257 25.9121 27.2095L26.8592 26.2624C27.2091 25.9125 27.7763 25.9125 28.1262 26.2624C28.476 26.6122 28.476 27.1795 28.1262 27.5293L27.1791 28.4764C27.0624 28.593 27.0624 28.7821 27.1791 28.8986L28.1262 29.8457C28.476 30.1956 28.476 30.7628 28.1262 31.1127Z" fill="#9298A8"/>
<path fill-rule="evenodd" clip-rule="evenodd" d="M8.08325 13.1602C8.08325 11.3461 9.55386 9.87549 11.368 9.87549H13.7569C14.2516 9.87549 14.6527 10.2766 14.6527 10.7713C14.6527 11.2661 14.2516 11.6672 13.7569 11.6672H11.368C10.5434 11.6672 9.87492 12.3356 9.87492 13.1602V14.3546C9.87492 14.8494 9.47383 15.2505 8.97908 15.2505C8.48432 15.2505 8.08325 14.8494 8.08325 14.3546V13.1602Z" fill="#9298A8"/>
<path fill-rule="evenodd" clip-rule="evenodd" d="M31.972 26.2993C31.972 28.1134 30.5014 29.584 28.6873 29.584H26.2984C25.8037 29.584 25.4026 29.183 25.4026 28.6881C25.4026 28.1934 25.8037 27.7923 26.2984 27.7923H28.6873C29.5119 27.7923 30.1804 27.1239 30.1804 26.2993V25.1048C30.1804 24.6101 30.5815 24.209 31.0762 24.209C31.5709 24.209 31.972 24.6101 31.972 25.1048V26.2993Z" fill="#9298A8"/>
</svg>
