<svg width="24" height="24" viewBox="0 0 24 24" fill="none" xmlns="http://www.w3.org/2000/svg">
<path fill-rule="evenodd" clip-rule="evenodd" d="M11.2469 24H12.7531C13.9714 24 14.9626 23.0089 14.9626 21.7906V21.281C15.4805 21.1156 15.9837 20.9067 16.4671 20.6565L16.8282 21.0177C17.7029 21.8934 19.1039 21.8677 19.9531 21.0173L21.0177 19.9528C21.8685 19.103 21.8929 17.7024 21.0174 16.8279L20.6566 16.467C20.9068 15.9836 21.1156 15.4805 21.2811 14.9625H21.7906C23.0088 14.9625 24 13.9714 24 12.7531V11.2469C24 10.0286 23.0088 9.0375 21.7906 9.0375H21.2811C21.1155 8.51953 20.9067 8.01638 20.6565 7.53296L21.0177 7.17188C21.8926 6.29784 21.8685 4.89712 21.0174 4.04695L19.9527 2.98233C19.1015 2.12996 17.7008 2.10868 16.8279 2.98261L16.4671 3.3434C15.9836 3.09328 15.4804 2.8844 14.9625 2.71888V2.20936C14.9625 0.991125 13.9714 0 12.7531 0H11.2469C10.0286 0 9.03751 0.991125 9.03751 2.20936V2.71893C8.51959 2.8844 8.01639 3.09328 7.53297 3.34345L7.17184 2.98233C6.2972 2.10661 4.89615 2.13229 4.04692 2.98266L2.98235 4.04719C2.13161 4.89699 2.10715 6.29756 2.98263 7.17211L3.34347 7.53296C3.0933 8.01637 2.88447 8.51949 2.71895 9.0375H2.20942C0.991194 9.0375 1.90735e-05 10.0286 1.90735e-05 11.2469V12.7531C1.90735e-05 13.9714 0.991194 14.9625 2.20942 14.9625H2.71895C2.88447 15.4805 3.09329 15.9836 3.34347 16.467L2.98235 16.8282C2.10738 17.7022 2.13152 19.1029 2.98263 19.9531L4.04729 21.0177C4.89849 21.8701 6.29921 21.8914 7.17217 21.0174L7.53296 20.6566C8.01638 20.9068 8.51959 21.1156 9.0375 21.2812V21.7907C9.0375 23.0089 10.0286 24 11.2469 24L11.2469 24ZM16.232 19.1798C15.5605 19.577 14.8376 19.877 14.0837 20.0716C13.7732 20.1517 13.5563 20.4318 13.5563 20.7524V21.7906C13.5563 22.2335 13.1959 22.5937 12.7531 22.5937H11.2469C10.804 22.5937 10.4437 22.2335 10.4437 21.7906V20.7524C10.4437 20.4318 10.2268 20.1517 9.91629 20.0716C9.16236 19.877 8.43955 19.577 7.76796 19.1798C7.49164 19.0164 7.13984 19.0609 6.91282 19.2879L6.17744 20.0233C5.86039 20.3407 5.35123 20.3334 5.04195 20.0236L3.97662 18.9583C3.66809 18.6502 3.65777 18.1409 3.97634 17.8228L4.71203 17.0871C4.939 16.8601 4.98344 16.5083 4.82008 16.232C4.4229 15.5605 4.12291 14.8377 3.92833 14.0837C3.84818 13.7732 3.56814 13.5563 3.24752 13.5563H2.20938C1.76655 13.5563 1.40623 13.196 1.40623 12.7532V11.2469C1.40623 10.8041 1.76655 10.4438 2.20938 10.4438H3.24752C3.5682 10.4438 3.84818 10.2268 3.92833 9.91639C4.12291 9.16241 4.42296 8.4396 4.82008 7.76806C4.98344 7.49178 4.939 7.13994 4.71203 6.91297L3.97662 6.17755C3.65871 5.86001 3.66701 5.35095 3.97634 5.042L5.04156 3.97676C5.35033 3.66757 5.85958 3.65853 6.17711 3.97648L6.91277 4.71219C7.13974 4.9392 7.49167 4.98364 7.76791 4.82023C8.43949 4.42306 9.1623 4.12301 9.91623 3.92843C10.2267 3.84833 10.4437 3.5683 10.4437 3.24762V2.20935C10.4437 1.76652 10.804 1.40624 11.2468 1.40624H12.7531C13.1959 1.40624 13.5562 1.76652 13.5562 2.20935V3.24753C13.5562 3.5682 13.7731 3.84823 14.0836 3.92834C14.8376 4.12292 15.5604 4.42296 16.232 4.82014C16.5084 4.98349 16.8602 4.93905 17.0871 4.71209L17.8225 3.97667C18.1396 3.65923 18.6488 3.6666 18.958 3.97634L20.0233 5.04162C20.3319 5.34978 20.3422 5.85898 20.0236 6.17717L19.2879 6.91288C19.0609 7.13985 19.0165 7.49169 19.1799 7.76797C19.577 8.4395 19.877 9.16231 20.0716 9.9163C20.1518 10.2268 20.4318 10.4437 20.7524 10.4437H21.7906C22.2334 10.4437 22.5938 10.804 22.5938 11.2468V12.7531C22.5938 13.196 22.2334 13.5562 21.7906 13.5562H20.7525C20.4318 13.5562 20.1518 13.7732 20.0717 14.0836C19.8771 14.8376 19.577 15.5604 19.1799 16.232C19.0165 16.5082 19.061 16.8601 19.2879 17.087L20.0234 17.8225C20.3413 18.14 20.333 18.6491 20.0236 18.958L18.9584 20.0232C18.6496 20.3324 18.1404 20.3415 17.8229 20.0235L17.0872 19.2878C16.92 19.1206 16.572 18.9787 16.232 19.1798H16.232Z" fill="#131A1B"/>
<path fill-rule="evenodd" clip-rule="evenodd" d="M12.0003 17.2216C14.8797 17.2216 17.2222 14.8791 17.2222 11.9997C17.2222 9.12037 14.8797 6.77783 12.0003 6.77783C9.12089 6.77783 6.77841 9.12036 6.77841 11.9997C6.77841 14.8791 9.12089 17.2216 12.0003 17.2216ZM12.0003 8.18409C14.1043 8.18409 15.8159 9.89577 15.8159 11.9997C15.8159 14.1036 14.1042 15.8153 12.0003 15.8153C9.89636 15.8153 8.18467 14.1036 8.18467 11.9997C8.18467 9.89577 9.8963 8.18409 12.0003 8.18409Z" fill="#131A1B"/>
</svg>
