<svg width="13" height="12" viewBox="0 0 13 12" fill="none" xmlns="http://www.w3.org/2000/svg">
<path fill-rule="evenodd" clip-rule="evenodd" d="M8.00763 7L11.7465 3.26074C11.8493 3.1578 11.9061 3.02047 11.9062 2.87404C11.9062 2.72753 11.8495 2.59004 11.7465 2.48727L11.4189 2.15969C11.3158 2.05651 11.1785 2 11.0319 2C10.8856 2 10.7483 2.05651 10.6453 2.15969L6.90641 5.8987L3.16738 2.15969C3.06453 2.05651 2.92713 2 2.78064 2C2.63429 2 2.49689 2.05651 2.39405 2.15969L2.06625 2.48727C1.85292 2.70062 1.85292 3.04763 2.06625 3.26074L5.80519 7L2.06625 10.7391C1.96332 10.8422 1.90666 10.9795 1.90666 11.126C1.90666 11.2724 1.96332 11.4097 2.06625 11.5127L2.39398 11.8403C2.49683 11.9434 2.6343 12 2.78056 12C2.92707 12 3.06446 11.9434 3.16731 11.8403L6.90633 8.10121L10.6452 11.8403C10.7482 11.9434 10.8855 12 11.0319 12H11.032C11.1785 12 11.3158 11.9434 11.4188 11.8403L11.7464 11.5127C11.8493 11.4098 11.906 11.2724 11.906 11.126C11.906 10.9795 11.8493 10.8422 11.7464 10.7392L8.00763 7Z" fill="#9298A8"/>
</svg>
