<svg width="17" height="16" viewBox="0 0 17 16" fill="none" xmlns="http://www.w3.org/2000/svg">
<path fill-rule="evenodd" clip-rule="evenodd" d="M11.0142 5.9718C10.7951 5.9718 10.6014 5.82909 10.5366 5.61975L9.08961 0.948723C8.9442 0.47933 8.2798 0.479325 8.13439 0.948717L6.68734 5.61976C6.62249 5.82909 6.42889 5.9718 6.20974 5.9718H1.48129C1.0027 5.9718 0.797581 6.57947 1.17827 6.86952L5.04619 9.81646C5.21316 9.94368 5.28289 10.1616 5.22078 10.3621L3.75343 15.0989C3.60938 15.5639 4.14724 15.9396 4.53429 15.6444L8.30884 12.7652C8.48789 12.6286 8.73615 12.6286 8.91523 12.7651L12.6926 15.6451C13.0797 15.9402 13.6174 15.5644 13.4734 15.0995L12.0059 10.3621C11.9437 10.1616 12.0135 9.94368 12.1804 9.81646L16.0483 6.86951C16.429 6.57947 16.2239 5.9718 15.7453 5.9718H11.0142Z" fill="#1089FF"/>
</svg>
