<svg width="34" height="34" viewBox="0 0 34 34" fill="none" xmlns="http://www.w3.org/2000/svg">
<path d="M25.7181 7.59543H22.2578V7.10142C22.2578 5.94268 21.3152 5 20.1564 5H13.8426C12.6838 5 11.7412 5.94268 11.7412 7.10142V7.59543H8.28094C7.37454 7.59543 6.63672 8.33298 6.63672 9.23938V10.0188C6.63672 10.8673 7.28304 11.5675 8.10888 11.654L9.80192 26.5106C9.9633 27.9294 11.1623 28.9993 12.5905 28.9993H21.4083C22.8364 28.9993 24.0354 27.9294 24.1968 26.5106L25.8898 11.654C26.716 11.5678 27.362 10.8673 27.362 10.0188V9.23938C27.362 8.33298 26.6245 7.59543 25.7181 7.59543ZM12.8084 7.10142C12.8084 6.53085 13.2723 6.06698 13.8428 6.06698H20.1567C20.7273 6.06698 21.1911 6.53085 21.1911 7.10142V7.59543H12.8084V7.10142ZM23.137 26.3898C23.037 27.2692 22.2939 27.9323 21.4088 27.9323H12.591C11.7059 27.9323 10.9628 27.2692 10.8628 26.3898L9.18467 11.663H24.8154L23.137 26.3898ZM26.2956 10.0188C26.2956 10.337 26.0366 10.596 25.7183 10.596H8.28094C7.96271 10.596 7.7037 10.337 7.7037 10.0188V9.23938C7.7037 8.92142 7.96271 8.66241 8.28094 8.66241H25.7178C26.036 8.66241 26.295 8.92142 26.295 9.23938V10.0188H26.2956Z" fill="#FF1E1E"/>
<path d="M16.9993 25.0448C17.2938 25.0448 17.5328 24.8058 17.5328 24.5113V15.084C17.5328 14.7895 17.2938 14.5505 16.9993 14.5505C16.7048 14.5505 16.4658 14.7895 16.4658 15.084V24.5113C16.4658 24.8058 16.7048 25.0448 16.9993 25.0448Z" fill="#FF1E1E"/>
<path d="M20.1889 25.0201C20.2065 25.022 20.2241 25.0228 20.2412 25.0228C20.5127 25.0228 20.7448 24.8169 20.7715 24.5411L21.6854 15.158C21.7139 14.8646 21.4994 14.6037 21.2063 14.5752C20.9089 14.5451 20.652 14.7611 20.6234 15.0543L19.7096 24.4373C19.681 24.7307 19.8958 24.9916 20.1889 25.0201Z" fill="#FF1E1E"/>
<path d="M13.7575 25.0228C13.7746 25.0228 13.7922 25.022 13.8098 25.0201C14.103 24.9918 14.3174 24.7307 14.2889 24.4372L13.375 15.0542C13.3465 14.7611 13.0896 14.5453 12.7922 14.5752C12.499 14.6034 12.2846 14.8646 12.3131 15.158L13.227 24.541C13.2539 24.8166 13.4862 25.0228 13.7575 25.0228Z" fill="#FF1E1E"/>
</svg>
