<svg width="20" height="20" viewBox="0 0 20 20" fill="none" xmlns="http://www.w3.org/2000/svg">
<path fill-rule="evenodd" clip-rule="evenodd" d="M10 20C15.5229 20 20 15.5228 20 10C20 4.47715 15.5228 0 10 0C4.47715 0 2.25165e-07 4.47715 5.02921e-07 10C7.80676e-07 15.5228 4.47715 20 10 20Z" fill="#9298A8"/>
<path fill-rule="evenodd" clip-rule="evenodd" d="M9.94973 7.00004C9.8579 7.00004 9.76598 7.03514 9.69587 7.10525L6.10522 10.6959C5.96492 10.8362 5.96492 11.0634 6.10523 11.2036C6.24553 11.3438 6.47273 11.3439 6.61295 11.2036L9.94974 7.86682L13.2865 11.2036C13.4268 11.3439 13.654 11.3439 13.7942 11.2036C13.9345 11.0633 13.9345 10.8361 13.7942 10.6959L10.2036 7.10525C10.1335 7.03514 10.0416 7.00004 9.94974 7.00004H9.94973Z" fill="white" stroke="white"/>
</svg>
