<svg width="32" height="32" viewBox="0 0 32 32" fill="none" xmlns="http://www.w3.org/2000/svg">
<g clip-path="url(#clip0_1454_106998)">
<path d="M31.8035 5.18664C31.6791 5.08538 31.5157 5.04544 31.3586 5.07798L0.427867 11.4772C0.179 11.5274 0 11.7461 0 12V26.4C0 26.6945 0.2388 26.9333 0.533333 26.9333H31.4667C31.7612 26.9333 32 26.6945 32 26.4V5.59998C31.9999 5.43964 31.9278 5.28791 31.8035 5.18664ZM24.5333 25.8666H5.33333V24.8H24.5333V25.8666ZM19.2957 20C19.4083 19.9999 19.5179 19.9643 19.609 19.8981L20.7735 19.052C21.0002 19.1821 21.2228 19.3214 21.4386 19.472L22.5159 20.224C22.5913 20.2765 22.6789 20.3087 22.7703 20.3174L24.0497 20.44C24.3239 20.465 24.5337 20.6952 24.5333 20.9706V21.803L23.8693 22.1333H23.36C23.0474 21.0164 21.8885 20.3645 20.7717 20.6771C20.0653 20.8748 19.5132 21.4269 19.3155 22.1333H15.9555L16.4505 21.3521C16.5045 21.2667 16.5333 21.1677 16.5333 21.0666V20H19.2957ZM16.5333 18.9333V17.8708C17.3707 17.8906 18.2011 18.0284 19 18.2804C19.2321 18.3519 19.4606 18.4331 19.6854 18.524L19.1223 18.9333H16.5333ZM22.3714 22.6996C22.3713 23.2705 21.9085 23.7333 21.3376 23.7332C20.7667 23.7332 20.3039 23.2704 20.3039 22.6994C20.304 22.1286 20.7668 21.6658 21.3377 21.6658C21.9083 21.6664 22.3708 22.1289 22.3714 22.6996ZM19.2979 23.2C19.3439 23.3867 19.4153 23.5662 19.5103 23.7333H10.6283C10.7233 23.5662 10.7948 23.3867 10.8407 23.2H19.2979ZM15.4667 18.9333H12.0733C13.1245 18.3678 14.2783 18.019 15.4667 17.9075V18.9333ZM15.4667 20V20.9119L14.6927 22.1333H10.8232C10.5106 21.0164 9.35173 20.3645 8.23487 20.6771C7.52847 20.8748 6.9764 21.4269 6.77867 22.1333H5.39373C5.49007 21.7167 5.69773 21.3341 5.99453 21.0263L6.28647 20.7236C6.73387 20.2635 7.34753 20.0027 7.98933 20H15.4667ZM9.83473 22.6996C9.83473 23.2705 9.37187 23.7334 8.80093 23.7334C8.23 23.7334 7.76713 23.2705 7.76713 22.6996C7.76713 22.1286 8.23 21.6658 8.80093 21.6658C9.3716 21.6664 9.83413 22.1289 9.83473 22.6996ZM25.6 25.8666V24.8C25.5993 24.2112 25.1221 23.734 24.5333 23.7333H23.165C23.26 23.5662 23.3315 23.3867 23.3774 23.2H23.9947C24.0771 23.2 24.1584 23.1808 24.2322 23.1442L25.3042 22.6108C25.4854 22.5207 25.6 22.3357 25.6 22.1333V20.9706C25.6021 20.1452 24.9741 19.4546 24.1522 19.3784L23.0117 19.2691L22.0493 18.5973C21.2137 18.0132 20.2922 17.5627 19.318 17.262C18.3464 16.9554 17.3335 16.7995 16.3147 16.8C16.2047 16.8 16.0911 16.8 15.9776 16.8058C14.0409 16.8688 12.1642 17.4928 10.5755 18.6022L10.0994 18.9333H7.98933C7.0588 18.9368 6.16887 19.3146 5.52 19.9816L5.226 20.2864C4.6094 20.9252 4.26533 21.7788 4.26667 22.6666C4.26667 22.9612 4.50547 23.2 4.8 23.2H6.7612C6.80713 23.3867 6.8786 23.5662 6.9736 23.7333H5.33333C4.74453 23.734 4.26733 24.2112 4.26667 24.8V25.8666H3.2V15.7333H29.1596L26.2643 25.8666H25.6ZM30.9333 25.8666H27.3737L30.269 15.7333H30.9333V25.8666ZM30.9333 14.6666H2.66667C2.37213 14.6666 2.13333 14.9054 2.13333 15.2V25.8666H1.06667V12.5333H30.9333V14.6666ZM30.9333 11.4666H26.1862L30.9333 10.5172V11.4666ZM30.9333 9.42938L20.7471 11.4666H15.9208L30.9333 8.38718V9.42938ZM30.9333 7.29824L10.6125 11.4666H5.74347L30.9333 6.25498V7.29824Z" fill="#9298A8"/>
</g>
<defs>
<clipPath id="clip0_1454_106998">
<rect width="32" height="32" fill="white"/>
</clipPath>
</defs>
</svg>
