<svg width="37" height="37" viewBox="0 0 37 37" fill="none" xmlns="http://www.w3.org/2000/svg">
<path d="M21.8301 27.232C20.9872 27.2317 20.1643 26.9753 19.4705 26.4967C18.7767 26.0181 18.2447 25.3399 17.9451 24.5521C17.1758 24.898 16.3195 25.0018 15.4899 24.8496C14.6602 24.6974 13.8965 24.2965 13.3001 23.7001C12.7036 23.1036 12.3027 22.3399 12.1505 21.5102C11.9983 20.6806 12.1021 19.8243 12.448 19.055C11.66 18.7553 10.9816 18.2231 10.503 17.529C10.0244 16.8348 9.76807 16.0116 9.76807 15.1685C9.76807 14.3254 10.0244 13.5021 10.503 12.808C10.9816 12.1139 11.66 11.5817 12.448 11.282C12.1031 10.5128 12.0001 9.65699 12.1527 8.82793C12.3053 7.99887 12.7063 7.23578 13.3025 6.63986C13.8988 6.04394 14.6621 5.64334 15.4912 5.49118C16.3203 5.33902 17.1762 5.4425 17.9451 5.78789C18.2448 4.99982 18.777 4.32149 19.4712 3.84286C20.1653 3.36422 20.9885 3.10791 21.8316 3.10791C22.6747 3.10791 23.498 3.36422 24.1921 3.84286C24.8862 4.32149 25.4184 4.99982 25.7181 5.78789C26.4873 5.44291 27.3431 5.3399 28.1722 5.4925C29.0012 5.64511 29.7643 6.04612 30.3603 6.64236C30.9562 7.2386 31.3568 8.00191 31.5089 8.83105C31.6611 9.66019 31.5576 10.516 31.2122 11.285C32.0003 11.5847 32.6786 12.1169 33.1573 12.811C33.6359 13.5051 33.8922 14.3283 33.8922 15.1715C33.8922 16.0146 33.6359 16.8378 33.1573 17.5319C32.6786 18.226 32.0003 18.7582 31.2122 19.0579C31.5572 19.8271 31.6602 20.683 31.5076 21.512C31.355 22.3411 30.954 23.1042 30.3578 23.7001C29.7615 24.296 28.9982 24.6966 28.1691 24.8488C27.3399 25.0009 26.4841 24.8975 25.7151 24.5521C25.4155 25.3399 24.8836 26.0181 24.1898 26.4967C23.4959 26.9753 22.673 27.2317 21.8301 27.232ZM18.3129 23.0691C18.4531 23.0691 18.5887 23.1189 18.6956 23.2096C18.8025 23.3002 18.8738 23.4259 18.8968 23.5642C19.0128 24.2583 19.3712 24.8888 19.9083 25.3436C20.4454 25.7983 21.1264 26.0479 21.8301 26.0479C22.5339 26.0479 23.2149 25.7983 23.7519 25.3436C24.289 24.8888 24.6475 24.2583 24.7635 23.5642C24.7799 23.4649 24.8213 23.3715 24.8839 23.2927C24.9464 23.2139 25.028 23.1523 25.121 23.1138C25.2139 23.0753 25.3151 23.0611 25.4151 23.0726C25.515 23.0841 25.6104 23.1208 25.6922 23.1794C26.2649 23.588 26.964 23.7803 27.6651 23.7221C28.3663 23.6639 29.0241 23.3589 29.5216 22.8614C30.0191 22.3639 30.324 21.7061 30.3822 21.005C30.4405 20.3038 30.2482 19.6048 29.8395 19.032C29.781 18.9502 29.7442 18.8549 29.7327 18.7549C29.7213 18.655 29.7355 18.5537 29.774 18.4608C29.8125 18.3679 29.874 18.2863 29.9528 18.2237C30.0316 18.1612 30.1251 18.1197 30.2243 18.1033C30.9185 17.9873 31.549 17.6289 32.0037 17.0918C32.4585 16.5547 32.7081 15.8737 32.7081 15.17C32.7081 14.4662 32.4585 13.7853 32.0037 13.2482C31.549 12.7111 30.9185 12.3526 30.2243 12.2366C30.1251 12.2202 30.0316 12.1788 29.9528 12.1162C29.874 12.0537 29.8125 11.9721 29.774 11.8792C29.7355 11.7862 29.7213 11.685 29.7327 11.585C29.7442 11.4851 29.781 11.3897 29.8395 11.3079C30.2482 10.7352 30.4405 10.0361 30.3822 9.33497C30.324 8.63382 30.0191 7.97603 29.5216 7.47854C29.0241 6.98104 28.3663 6.67608 27.6651 6.61787C26.964 6.55965 26.2649 6.75195 25.6922 7.16059C25.6104 7.21915 25.515 7.2559 25.4151 7.26738C25.3151 7.27885 25.2139 7.26466 25.121 7.22615C25.028 7.18764 24.9464 7.12608 24.8839 7.04728C24.8213 6.96848 24.7799 6.87504 24.7635 6.77579C24.6475 6.08166 24.289 5.45116 23.7519 4.9964C23.2149 4.54163 22.5339 4.29206 21.8301 4.29206C21.1264 4.29206 20.4454 4.54163 19.9083 4.9964C19.3712 5.45116 19.0128 6.08166 18.8968 6.77579C18.8804 6.87504 18.8389 6.96848 18.7764 7.04728C18.7138 7.12608 18.6322 7.18764 18.5393 7.22615C18.4464 7.26466 18.3451 7.27885 18.2452 7.26738C18.1452 7.2559 18.0499 7.21915 17.9681 7.16059C17.3953 6.75195 16.6963 6.55965 15.9951 6.61787C15.294 6.67608 14.6362 6.98104 14.1387 7.47854C13.6412 7.97603 13.3362 8.63382 13.278 9.33497C13.2198 10.0361 13.4121 10.7352 13.8207 11.3079C13.8793 11.3897 13.9161 11.4851 13.9275 11.585C13.939 11.685 13.9248 11.7862 13.8863 11.8792C13.8478 11.9721 13.7862 12.0537 13.7074 12.1162C13.6286 12.1788 13.5352 12.2202 13.4359 12.2366C12.7418 12.3526 12.1113 12.7111 11.6566 13.2482C11.2018 13.7853 10.9522 14.4662 10.9522 15.17C10.9522 15.8737 11.2018 16.5547 11.6566 17.0918C12.1113 17.6289 12.7418 17.9873 13.4359 18.1033C13.5352 18.1197 13.6286 18.1612 13.7074 18.2237C13.7862 18.2863 13.8478 18.3679 13.8863 18.4608C13.9248 18.5537 13.939 18.655 13.9275 18.7549C13.9161 18.8549 13.8793 18.9502 13.8207 19.032C13.4121 19.6048 13.2198 20.3038 13.278 21.005C13.3362 21.7061 13.6412 22.3639 14.1387 22.8614C14.6362 23.3589 15.294 23.6639 15.9951 23.7221C16.6963 23.7803 17.3953 23.588 17.9681 23.1794C18.0687 23.1075 18.1893 23.069 18.3129 23.0691Z" fill="#2D3898"/>
<path d="M5.54991 33.8918C5.06693 33.8918 4.59479 33.7486 4.19321 33.4803C3.79162 33.2119 3.47863 32.8305 3.2938 32.3843C3.10897 31.9381 3.06061 31.4471 3.15483 30.9734C3.24906 30.4997 3.48164 30.0646 3.82316 29.7231C4.16468 29.3815 4.5998 29.149 5.0735 29.0547C5.5472 28.9605 6.03821 29.0089 6.48442 29.1937C6.93064 29.3785 7.31203 29.6915 7.58036 30.0931C7.84869 30.4947 7.99191 30.9668 7.99191 31.4498C7.99113 32.0972 7.73359 32.7179 7.2758 33.1757C6.81801 33.6335 6.19733 33.891 5.54991 33.8918ZM5.54991 30.1918C5.3011 30.1918 5.05788 30.2656 4.851 30.4038C4.64413 30.5421 4.48289 30.7385 4.38767 30.9684C4.29246 31.1983 4.26754 31.4512 4.31608 31.6952C4.36462 31.9393 4.48444 32.1634 4.66037 32.3394C4.83631 32.5153 5.06046 32.6351 5.30449 32.6836C5.54852 32.7322 5.80146 32.7073 6.03133 32.6121C6.2612 32.5168 6.45767 32.3556 6.5959 32.1487C6.73413 31.9418 6.80791 31.6986 6.80791 31.4498C6.80791 31.1162 6.67537 30.7962 6.43945 30.5603C6.20353 30.3244 5.88355 30.1918 5.54991 30.1918Z" fill="#2D3898"/>
<path d="M10.0325 29.9278C9.3666 29.9278 8.71562 29.7304 8.16192 29.3604C7.60822 28.9904 7.17667 28.4646 6.92183 27.8493C6.66699 27.2341 6.60031 26.5571 6.73022 25.904C6.86014 25.2508 7.18082 24.6509 7.6517 24.18C8.12258 23.7091 8.72253 23.3885 9.37566 23.2585C10.0288 23.1286 10.7058 23.1953 11.321 23.4501C11.9363 23.705 12.4621 24.1365 12.8321 24.6902C13.2021 25.2439 13.3995 25.8949 13.3995 26.5608C13.3985 27.4535 13.0435 28.3094 12.4123 28.9406C11.7811 29.5718 10.9252 29.9269 10.0325 29.9278ZM10.0325 24.3778C9.60077 24.3778 9.17871 24.5059 8.81972 24.7458C8.46073 24.9856 8.18093 25.3266 8.0157 25.7255C7.85047 26.1243 7.80724 26.5633 7.89147 26.9867C7.97571 27.4102 8.18362 27.7992 8.48891 28.1045C8.79421 28.4098 9.18319 28.6177 9.60665 28.7019C10.0301 28.7861 10.469 28.7429 10.8679 28.5777C11.2668 28.4125 11.6078 28.1327 11.8476 27.7737C12.0875 27.4147 12.2155 26.9926 12.2155 26.5608C12.2148 25.9821 11.9846 25.4272 11.5754 25.018C11.1661 24.6087 10.6113 24.3785 10.0325 24.3778Z" fill="#2D3898"/>
<path d="M30.118 17.269H28.527C28.37 17.269 28.2194 17.2066 28.1084 17.0956C27.9973 16.9846 27.935 16.834 27.935 16.677C27.935 16.52 27.9973 16.3694 28.1084 16.2584C28.2194 16.1474 28.37 16.085 28.527 16.085H29.7787L30.3503 15.1126C30.1044 14.865 29.8314 14.646 29.5363 14.4596C28.6816 13.9231 27.7862 13.7725 26.8749 14.0123H26.8708C25.9728 14.2549 25.0471 14.38 24.1169 14.3845H21.2961C18.9993 14.384 16.7088 14.1448 14.4614 13.6708C14.3854 13.6547 14.3132 13.6238 14.2491 13.5799C14.1849 13.5359 14.1301 13.4798 14.0877 13.4146C14.002 13.2831 13.972 13.1229 14.0045 12.9692C14.0369 12.8156 14.129 12.6812 14.2606 12.5955C14.3922 12.5098 14.5524 12.4798 14.706 12.5123C16.8729 12.9693 19.0815 13.2 21.2961 13.2005H24.1177C24.9442 13.1957 25.7667 13.0838 26.5645 12.8675L26.5752 12.8649C27.8129 12.5393 29.069 12.752 30.2068 13.4802C30.7175 13.8052 31.1721 14.211 31.5528 14.6816C31.6232 14.7751 31.6642 14.8873 31.6708 15.0042C31.6774 15.121 31.6492 15.2372 31.5898 15.338L30.6278 16.9745C30.5759 17.0638 30.5016 17.138 30.4121 17.1896C30.3227 17.2413 30.2213 17.2687 30.118 17.269Z" fill="#2D3898"/>
<path d="M23.5 12.1376C21.9 11.7376 18.8333 12.3042 17.5 12.6376L17 13.1377C17.3333 13.3044 18.7 13.6377 21.5 13.6377C24.3 13.6377 25.6667 13.3044 26 13.1377C25.8333 12.971 25.1 12.5376 23.5 12.1376Z" fill="#1089FF"/>
<path d="M16.5872 17.269H15.7517C15.3896 17.2699 15.0317 17.1919 14.7029 17.0402C14.3741 16.8886 14.0824 16.667 13.8481 16.391C13.2838 15.725 12.8809 14.82 12.7421 13.9083C12.7159 13.7342 12.7276 13.5565 12.7764 13.3873C12.8252 13.2181 12.9099 13.0614 13.0247 12.9279C13.1396 12.7944 13.2819 12.6873 13.4419 12.6139C13.6019 12.5404 13.7759 12.5024 13.952 12.5023H14.5403C14.6365 12.4849 15.0528 12.3961 16.7725 11.9473C17.7082 11.7019 18.6579 11.5135 19.6164 11.3831C21.2614 11.1636 22.5734 11.1921 23.7452 11.473C25.1271 11.806 26.2209 12.2951 27.0896 12.9729L27.0948 12.977C27.2212 13.0702 27.3054 13.2099 27.3288 13.3651C27.3523 13.5204 27.3131 13.6787 27.2199 13.8051C27.1266 13.9315 26.987 14.0157 26.8317 14.0391C26.6764 14.0626 26.5182 14.0234 26.3918 13.9301C26.38 13.9213 26.3692 13.9131 26.3585 13.9042C25.6263 13.3337 24.6813 12.9152 23.4688 12.6244C22.4432 12.3787 21.2688 12.3573 19.7725 12.5567C18.8622 12.6809 17.9602 12.86 17.0715 13.0932C14.9037 13.6563 14.7261 13.6737 14.641 13.6819C14.6221 13.6837 14.604 13.6845 14.5847 13.6845H13.9531C13.9471 13.6843 13.941 13.6856 13.9355 13.6881C13.93 13.6907 13.9251 13.6945 13.9213 13.6993C13.9177 13.703 13.915 13.7076 13.9134 13.7126C13.9119 13.7176 13.9115 13.7229 13.9124 13.7281C14.0179 14.4189 14.3313 15.1275 14.7516 15.6236C14.8746 15.7684 15.0277 15.8846 15.2003 15.9642C15.3728 16.0437 15.5606 16.0847 15.7506 16.0843H16.5872C16.7442 16.0843 16.8948 16.1466 17.0058 16.2577C17.1168 16.3687 17.1792 16.5193 17.1792 16.6763C17.1792 16.8333 17.1168 16.9839 17.0058 17.0949C16.8948 17.2059 16.7442 17.2683 16.5872 17.2683V17.269Z" fill="#2D3898"/>
<path d="M25.9519 17.269H19.1628C19.0058 17.269 18.8552 17.2066 18.7442 17.0956C18.6332 16.9845 18.5708 16.834 18.5708 16.677C18.5708 16.52 18.6332 16.3694 18.7442 16.2584C18.8552 16.1473 19.0058 16.085 19.1628 16.085H25.9519C26.1089 16.085 26.2595 16.1473 26.3705 16.2584C26.4816 16.3694 26.5439 16.52 26.5439 16.677C26.5439 16.834 26.4816 16.9845 26.3705 17.0956C26.2595 17.2066 26.1089 17.269 25.9519 17.269Z" fill="#2D3898"/>
<path d="M17.8746 19.1027C17.4867 19.1027 17.1076 18.9877 16.7851 18.7722C16.4626 18.5567 16.2113 18.2504 16.0628 17.8921C15.9144 17.5338 15.8756 17.1395 15.9513 16.7591C16.0269 16.3787 16.2137 16.0293 16.4879 15.755C16.7622 15.4808 17.1116 15.294 17.492 15.2183C17.8724 15.1427 18.2667 15.1815 18.625 15.3299C18.9833 15.4784 19.2896 15.7297 19.5051 16.0522C19.7206 16.3747 19.8356 16.7538 19.8356 17.1417C19.8356 17.6618 19.629 18.1605 19.2612 18.5283C18.8935 18.8961 18.3947 19.1027 17.8746 19.1027ZM17.8746 16.3647C17.7209 16.3647 17.5707 16.4102 17.4429 16.4956C17.3151 16.581 17.2155 16.7023 17.1567 16.8443C17.0979 16.9863 17.0825 17.1425 17.1125 17.2932C17.1425 17.444 17.2165 17.5824 17.3252 17.6911C17.4338 17.7998 17.5723 17.8738 17.723 17.9037C17.8737 17.9337 18.0299 17.9183 18.1719 17.8595C18.3139 17.8007 18.4352 17.7011 18.5206 17.5733C18.606 17.4456 18.6516 17.2953 18.6516 17.1417C18.6515 16.9357 18.5696 16.7381 18.4239 16.5925C18.2782 16.4468 18.0806 16.365 17.8746 16.365V16.3647Z" fill="#2D3898"/>
<path d="M27.2393 19.1027C26.8515 19.1027 26.4723 18.9877 26.1498 18.7722C25.8274 18.5567 25.576 18.2504 25.4276 17.8921C25.2792 17.5338 25.2403 17.1395 25.316 16.7591C25.3917 16.3787 25.5784 16.0293 25.8527 15.755C26.1269 15.4808 26.4764 15.294 26.8567 15.2183C27.2371 15.1427 27.6314 15.1815 27.9898 15.3299C28.3481 15.4784 28.6544 15.7297 28.8698 16.0522C29.0853 16.3747 29.2003 16.7538 29.2003 17.1417C29.2003 17.6618 28.9937 18.1605 28.626 18.5283C28.2582 18.8961 27.7594 19.1027 27.2393 19.1027ZM27.2393 16.3647C27.0856 16.3647 26.9354 16.4102 26.8076 16.4956C26.6799 16.581 26.5803 16.7023 26.5215 16.8443C26.4627 16.9863 26.4473 17.1425 26.4773 17.2932C26.5072 17.444 26.5812 17.5824 26.6899 17.6911C26.7986 17.7998 26.937 17.8738 27.0877 17.9037C27.2385 17.9337 27.3947 17.9183 27.5367 17.8595C27.6786 17.8007 27.8 17.7011 27.8854 17.5733C27.9708 17.4456 28.0163 17.2953 28.0163 17.1417C28.0162 16.9357 27.9343 16.7381 27.7886 16.5925C27.6429 16.4468 27.4453 16.365 27.2393 16.365V16.3647Z" fill="#2D3898"/>
<circle cx="18" cy="17" r="1" fill="#1089FF"/>
<circle cx="27" cy="17" r="1" fill="#1089FF"/>
</svg>
