<svg width="30" height="30" viewBox="0 0 30 30" fill="none" xmlns="http://www.w3.org/2000/svg">
<path d="M11.7187 20.6248C8.90625 20.1561 7.5 20.6248 7.03125 21.5623V24.3749C9.375 27.1874 16.4062 28.1249 20.625 26.2499C24 24.7499 23.9062 23.1249 23.4375 22.4999C23.5937 22.1874 23.4375 21.8437 21.5625 22.9687C19.2187 24.3749 14.5312 21.0936 11.7187 20.6248Z" fill="#1089FF"/>
<path d="M25.8938 9.45009C25.7798 9.49729 25.6762 9.56655 25.589 9.65389C25.5018 9.74122 25.4327 9.84491 25.3857 9.95902C25.3386 10.0731 25.3146 10.1954 25.3149 10.3188C25.3152 10.4422 25.3399 10.5644 25.3876 10.6782C26.1607 12.5442 26.4172 14.5839 26.1302 16.5832C25.8432 18.5825 25.0232 20.4676 23.7563 22.0407C22.9221 19.8092 21.2695 17.979 19.1345 16.922C19.8757 16.1184 20.3668 15.1163 20.5476 14.0381C20.7284 12.9599 20.5911 11.8524 20.1525 10.8511C19.7139 9.84966 18.993 8.99778 18.0779 8.3996C17.1629 7.80141 16.0933 7.48284 15.0001 7.48284C13.9068 7.48284 12.8373 7.80141 11.9222 8.3996C11.0072 8.99778 10.2863 9.84966 9.84765 10.8511C9.40904 11.8524 9.27174 12.9599 9.45255 14.0381C9.63335 15.1163 10.1244 16.1184 10.8657 16.922C8.73066 17.979 7.07811 19.8092 6.24383 22.0407C4.632 20.0284 3.7603 17.5234 3.77464 14.9452C3.78897 12.3669 4.68847 9.87184 6.32257 7.87753C7.95667 5.88322 10.2262 4.51072 12.7513 3.98976C15.2764 3.4688 17.9039 3.83099 20.1938 5.01571C20.3035 5.08318 20.426 5.12732 20.5535 5.14537C20.681 5.16343 20.8109 5.15501 20.935 5.12065C21.0592 5.08629 21.1749 5.02672 21.275 4.94566C21.3751 4.8646 21.4574 4.76378 21.5168 4.6495C21.5762 4.53522 21.6114 4.40993 21.6202 4.28143C21.6291 4.15294 21.6113 4.024 21.5681 3.90267C21.5249 3.78133 21.4572 3.6702 21.3691 3.57621C21.2811 3.48221 21.1746 3.40736 21.0563 3.35634C18.3139 1.9378 15.1591 1.53154 12.1467 2.20899C9.13428 2.88643 6.45715 4.60421 4.58601 7.06028C2.71488 9.51636 1.76953 12.5535 1.91619 15.6376C2.06285 18.7218 3.29213 21.6555 5.38789 23.9229C7.48365 26.1903 10.3117 27.6463 13.3748 28.0348C16.4379 28.4234 19.5399 27.7196 22.1354 26.0472C24.7309 24.3748 26.6537 21.841 27.5657 18.8911C28.4778 15.9413 28.3206 12.7643 27.122 9.91884C27.0196 9.69526 26.8335 9.52084 26.6038 9.43315C26.3741 9.34547 26.1191 9.35155 25.8938 9.45009ZM15.0001 9.37509C15.7418 9.37509 16.4668 9.59502 17.0835 10.0071C17.7002 10.4191 18.1808 11.0048 18.4646 11.69C18.7485 12.3752 18.8227 13.1292 18.678 13.8567C18.5333 14.5841 18.1762 15.2523 17.6517 15.7767C17.1273 16.3012 16.4591 16.6583 15.7317 16.803C15.0042 16.9477 14.2502 16.8735 13.565 16.5896C12.8798 16.3058 12.2941 15.8252 11.8821 15.2085C11.47 14.5918 11.2501 13.8668 11.2501 13.1251C11.2501 12.1305 11.6452 11.1767 12.3484 10.4734C13.0517 9.77018 14.0055 9.37509 15.0001 9.37509ZM7.72508 23.5688C8.02243 22.3345 8.62827 21.1958 9.48584 20.2595C10.3434 19.3233 11.4246 18.62 12.6282 18.2157C13.3694 18.5675 14.1796 18.7501 15.0001 18.7501C15.8206 18.7501 16.6308 18.5675 17.372 18.2157C18.5755 18.62 19.6568 19.3233 20.5143 20.2595C21.3719 21.1958 21.9777 22.3345 22.2751 23.5688C20.2427 25.2919 17.6646 26.2376 15.0001 26.2376C12.3356 26.2376 9.75752 25.2919 7.72508 23.5688Z" fill="#2D3898"/>
<path d="M20.625 5.625C20.3764 5.625 20.1379 5.72377 19.9621 5.89959C19.7863 6.0754 19.6875 6.31386 19.6875 6.5625C19.6875 6.81114 19.7863 7.0496 19.9621 7.22541C20.1379 7.40123 20.3764 7.5 20.625 7.5H22.5V9.375C22.5 9.62364 22.5988 9.8621 22.7746 10.0379C22.9504 10.2137 23.1889 10.3125 23.4375 10.3125C23.6861 10.3125 23.9246 10.2137 24.1004 10.0379C24.2762 9.8621 24.375 9.62364 24.375 9.375V7.5H26.25C26.4986 7.5 26.7371 7.40123 26.9129 7.22541C27.0887 7.0496 27.1875 6.81114 27.1875 6.5625C27.1875 6.31386 27.0887 6.0754 26.9129 5.89959C26.7371 5.72377 26.4986 5.625 26.25 5.625H24.375V3.75C24.375 3.50136 24.2762 3.2629 24.1004 3.08709C23.9246 2.91127 23.6861 2.8125 23.4375 2.8125C23.1889 2.8125 22.9504 2.91127 22.7746 3.08709C22.5988 3.2629 22.5 3.50136 22.5 3.75V5.625H20.625Z" fill="#1089FF"/>
</svg>
