<svg width="28" height="29" viewBox="0 0 28 29" fill="none" xmlns="http://www.w3.org/2000/svg">
<path d="M6.5 19C4.9 18.6 1.83333 18.1667 0.5 18V21L6 22C5.33333 23 5.9 25 13.5 25C21.1 25 22.6667 23 22.5 22L26.5 21L27 18L22 19.5C11.5 24 8.5 19.5 6.5 19Z" fill="#1089FF"/>
<path d="M14.0011 25.5369C11.7425 25.5369 9.48314 25.3116 7.23981 24.8616C6.87848 24.7896 6.64514 24.4375 6.71714 24.0769C6.78914 23.7162 7.14048 23.4816 7.50181 23.5542C11.8145 24.4196 16.1878 24.4196 20.5005 23.5542C20.8611 23.4822 21.2118 23.7155 21.2851 24.0769C21.3571 24.4382 21.1238 24.7896 20.7625 24.8616C18.5191 25.3116 16.2605 25.5369 14.0011 25.5369Z" fill="#2D3898"/>
<path d="M22.2961 22.8444C21.9274 22.8444 21.6294 22.5458 21.6294 22.1778V20.8991C21.6294 20.5311 21.9274 20.2324 22.2961 20.2324C22.6647 20.2324 22.9627 20.5311 22.9627 20.8991V22.1771C22.9627 22.5458 22.6647 22.8444 22.2961 22.8444Z" fill="#2D3898"/>
<path d="M5.70426 22.843C5.33626 22.843 5.0376 22.5444 5.0376 22.1764V20.8977C5.0376 18.3177 6.3596 15.811 8.48893 14.3557C10.9356 12.6824 14.5436 12.317 17.6796 13.425C18.0269 13.5477 18.2089 13.9284 18.0856 14.2757C17.9629 14.623 17.5829 14.805 17.2356 14.6824C14.4856 13.711 11.3489 14.0144 9.2416 15.4564C7.47093 16.667 6.37093 18.7524 6.37093 20.8984V22.1764C6.37093 22.5444 6.07226 22.843 5.70426 22.843Z" fill="#2D3898"/>
<path d="M20.6281 24.874C20.3168 24.874 20.0388 24.6553 19.9754 24.3387C19.9034 23.978 20.1368 23.6267 20.4974 23.554C21.1528 23.4227 21.6281 22.842 21.6281 22.174C21.6281 21.806 21.9261 21.5073 22.2948 21.5073C22.6634 21.5073 22.9614 21.806 22.9614 22.174C22.9614 23.4747 22.0354 24.6047 20.7601 24.8613C20.7161 24.87 20.6721 24.874 20.6281 24.874Z" fill="#2D3898"/>
<path d="M7.37093 24.8747C7.3276 24.8747 7.2836 24.8707 7.23893 24.8613C5.96293 24.6047 5.0376 23.4747 5.0376 22.174C5.0376 21.806 5.33626 21.5073 5.70426 21.5073C6.07226 21.5073 6.37093 21.806 6.37093 22.174C6.37093 22.842 6.84626 23.4227 7.5016 23.554C7.86293 23.6267 8.09693 23.978 8.02426 24.3387C7.9596 24.656 7.6816 24.8747 7.37093 24.8747Z" fill="#2D3898"/>
<path d="M22.2961 22.3457C21.9321 22.3457 21.6348 22.053 21.6295 21.6883C21.6241 21.3203 21.9188 21.0177 22.2868 21.0123C23.5741 20.995 24.8675 20.8577 26.1315 20.6037C26.4915 20.5323 26.8428 20.765 26.9161 21.1263C26.9881 21.4877 26.7548 21.8383 26.3935 21.911C25.0501 22.1803 23.6748 22.327 22.3055 22.3457C22.3021 22.3457 22.2988 22.3457 22.2961 22.3457Z" fill="#2D3898"/>
<path d="M27.3332 20.6205C26.9645 20.6205 26.6665 20.3218 26.6665 19.9538V19.1325C26.6665 18.7645 26.9645 18.4658 27.3332 18.4658C27.7018 18.4658 27.9998 18.7645 27.9998 19.1325V19.9538C27.9998 20.3218 27.7018 20.6205 27.3332 20.6205Z" fill="#2D3898"/>
<path d="M26.2614 21.9317C25.9501 21.9317 25.6721 21.713 25.6087 21.3963C25.5367 21.035 25.7701 20.6837 26.1314 20.6117C26.4407 20.549 26.6661 20.2737 26.6661 19.9577C26.6661 19.5897 26.9641 19.291 27.3327 19.291C27.7014 19.291 27.9994 19.5897 27.9994 19.9577C27.9994 20.907 27.3234 21.7317 26.3927 21.9184C26.3481 21.927 26.3047 21.9317 26.2614 21.9317Z" fill="#2D3898"/>
<path d="M0.666667 20.6205C0.298667 20.6205 0 20.3218 0 19.9538V19.1325C0 18.7645 0.298667 18.4658 0.666667 18.4658C1.03467 18.4658 1.33333 18.7645 1.33333 19.1325V19.9538C1.33333 20.3218 1.03467 20.6205 0.666667 20.6205Z" fill="#2D3898"/>
<path d="M5.70384 22.346C5.70051 22.346 5.69784 22.346 5.69451 22.346C4.32584 22.3274 2.95051 22.1807 1.60651 21.9114C1.24517 21.8394 1.01184 21.4874 1.08384 21.1267C1.15584 20.766 1.50517 20.5314 1.86851 20.604C3.13251 20.8574 4.42517 20.9947 5.71251 21.0127C6.08051 21.018 6.37517 21.32 6.36984 21.6887C6.36517 22.0534 6.06784 22.346 5.70384 22.346Z" fill="#2D3898"/>
<path d="M1.73867 21.9317C1.69533 21.9317 1.65133 21.9277 1.60667 21.9184C0.676001 21.7317 0 20.907 0 19.9577C0 19.5897 0.298667 19.291 0.666667 19.291C1.03467 19.291 1.33333 19.5897 1.33333 19.9577C1.33333 20.2743 1.55867 20.549 1.86867 20.611C2.23 20.6837 2.464 21.035 2.39133 21.3957C2.32867 21.7123 2.05 21.9317 1.73867 21.9317Z" fill="#2D3898"/>
<path d="M19.226 15.6395C18.9826 15.6395 18.7473 15.5055 18.63 15.2735C18.464 14.9448 18.5953 14.5442 18.924 14.3775C20.544 13.5582 22.608 13.4575 24.4453 14.1068C24.7926 14.2295 24.974 14.6108 24.8506 14.9575C24.728 15.3042 24.3446 15.4868 24.0006 15.3635C22.5 14.8322 20.8266 14.9088 19.5253 15.5668C19.43 15.6162 19.3266 15.6395 19.226 15.6395Z" fill="#2D3898"/>
<path d="M8.77658 15.6401C8.67524 15.6401 8.57258 15.6168 8.47591 15.5681C7.17524 14.9101 5.50258 14.8334 4.00124 15.3648C3.65458 15.4881 3.27391 15.3061 3.15058 14.9588C3.02791 14.6114 3.20991 14.2308 3.55658 14.1081C5.39458 13.4568 7.45924 13.5581 9.07857 14.3788C9.40724 14.5454 9.53858 14.9461 9.37191 15.2748C9.25458 15.5068 9.01991 15.6401 8.77658 15.6401Z" fill="#2D3898"/>
<path d="M22.0002 15.016C20.0128 15.016 18.3335 13.3366 18.3335 11.3493C18.3335 9.36195 20.0128 7.68262 22.0002 7.68262C23.9875 7.68262 25.6668 9.36195 25.6668 11.3493C25.6668 13.3366 23.9875 15.016 22.0002 15.016ZM22.0002 9.01595C20.7355 9.01595 19.6668 10.0846 19.6668 11.3493C19.6668 12.614 20.7355 13.6826 22.0002 13.6826C23.2648 13.6826 24.3335 12.614 24.3335 11.3493C24.3335 10.0846 23.2648 9.01595 22.0002 9.01595Z" fill="#2D3898"/>
<path d="M27.3321 19.7991C26.9635 19.7991 26.6655 19.5005 26.6655 19.1325C26.6655 17.4405 25.5941 15.9251 23.9988 15.3611C23.6515 15.2385 23.4695 14.8578 23.5928 14.5105C23.7155 14.1638 24.0948 13.9811 24.4428 14.1045C26.5695 14.8565 27.9988 16.8771 27.9988 19.1325C27.9988 19.5005 27.7008 19.7991 27.3321 19.7991Z" fill="#2D3898"/>
<path d="M0.666667 19.7992C0.298667 19.7992 0 19.5005 0 19.1325C0 16.8765 1.42867 14.8559 3.55533 14.1045C3.902 13.9812 4.28333 14.1632 4.406 14.5105C4.52867 14.8579 4.34667 15.2385 4 15.3612C2.40467 15.9252 1.33333 17.4405 1.33333 19.1325C1.33333 19.5005 1.03467 19.7992 0.666667 19.7992Z" fill="#2D3898"/>
<path d="M6.00016 15.016C4.01283 15.016 2.3335 13.3366 2.3335 11.3493C2.3335 9.36195 4.01283 7.68262 6.00016 7.68262C7.9875 7.68262 9.66683 9.36195 9.66683 11.3493C9.66683 13.3366 7.9875 15.016 6.00016 15.016ZM6.00016 9.01595C4.7355 9.01595 3.66683 10.0846 3.66683 11.3493C3.66683 12.614 4.7355 13.6826 6.00016 13.6826C7.26483 13.6826 8.3335 12.614 8.3335 11.3493C8.3335 10.0846 7.26483 9.01595 6.00016 9.01595Z" fill="#2D3898"/>
<path d="M22.2974 21.5681C21.9288 21.5681 21.6308 21.2694 21.6308 20.9014C21.6308 18.1128 19.8648 15.6154 17.2361 14.6861C16.8888 14.5634 16.7068 14.1828 16.8301 13.8354C16.9528 13.4888 17.3328 13.3054 17.6801 13.4294C20.8408 14.5468 22.9641 17.5501 22.9641 20.9021C22.9641 21.2694 22.6661 21.5681 22.2974 21.5681Z" fill="#2D3898"/>
<path d="M13.9998 14.1325C11.1092 14.1325 8.6665 11.6898 8.6665 8.79915C8.6665 5.90849 11.1092 3.46582 13.9998 3.46582C16.8912 3.46582 19.3332 5.90849 19.3332 8.79915C19.3332 11.6898 16.8912 14.1325 13.9998 14.1325ZM13.9998 4.79915C11.8318 4.79915 9.99984 6.63115 9.99984 8.79915C9.99984 10.9672 11.8318 12.7992 13.9998 12.7992C16.1678 12.7992 17.9998 10.9672 17.9998 8.79915C17.9998 6.63115 16.1678 4.79915 13.9998 4.79915Z" fill="#2D3898"/>
</svg>
