<svg width="20" height="20" viewBox="0 0 20 20" fill="none" xmlns="http://www.w3.org/2000/svg">
<path fill-rule="evenodd" clip-rule="evenodd" d="M20 10C20 4.47715 15.5228 -2.38419e-06 10 -2.38419e-06C4.47715 -2.38419e-06 0 4.47715 0 10C0 15.5228 4.47715 20 10 20C15.5228 20 20 15.5228 20 10Z" fill="#EBEEF7"/>
<path fill-rule="evenodd" clip-rule="evenodd" d="M12.3088 10.0503C12.3088 10.1421 12.2737 10.234 12.2036 10.3041L8.61295 13.8948C8.47265 14.0351 8.24545 14.0351 8.10523 13.8948C7.96501 13.7545 7.96492 13.5273 8.10523 13.3871L11.442 10.0503L8.10523 6.71347C7.96492 6.57317 7.96492 6.34597 8.10523 6.20575C8.24553 6.06554 8.47273 6.06545 8.61295 6.20575L12.2036 9.7964C12.2737 9.86651 12.3088 9.95843 12.3088 10.0503V10.0503Z" fill="#9298A8" stroke="#9298A8" stroke-width="0.5"/>
</svg>
