<svg width="28" height="28" viewBox="0 0 28 28" fill="none" xmlns="http://www.w3.org/2000/svg">
<path d="M21.6562 2.1875C21.3544 2.1875 21.1094 2.4325 21.1094 2.73438C21.1094 3.03625 21.3544 3.28125 21.6562 3.28125C21.9581 3.28125 22.2031 3.03625 22.2031 2.73438C22.2031 2.4325 21.9581 2.1875 21.6562 2.1875Z" fill="#2D3898"/>
<path d="M21.6562 24.7188C21.3544 24.7188 21.1094 24.9638 21.1094 25.2656C21.1094 25.5675 21.3544 25.8125 21.6562 25.8125C21.9581 25.8125 22.2031 25.5675 22.2031 25.2656C22.2031 24.9638 21.9581 24.7188 21.6562 24.7188Z" fill="#2D3898"/>
<path d="M14 15.9688C13.6981 15.9688 13.4531 16.2138 13.4531 16.5156C13.4531 16.8175 13.6981 17.0625 14 17.0625C14.3019 17.0625 14.5469 16.8175 14.5469 16.5156C14.5469 16.2138 14.3019 15.9688 14 15.9688Z" fill="#2D3898"/>
<path d="M14 19.25C13.6981 19.25 13.4531 19.495 13.4531 19.7969C13.4531 20.0987 13.6981 20.3438 14 20.3438C14.3019 20.3438 14.5469 20.0987 14.5469 19.7969C14.5469 19.495 14.3019 19.25 14 19.25Z" fill="#2D3898"/>
<path d="M14 22.5312C13.6981 22.5312 13.4531 22.7763 13.4531 23.0781C13.4531 23.38 13.6981 23.625 14 23.625C14.3019 23.625 14.5469 23.38 14.5469 23.0781C14.5469 22.7763 14.3019 22.5312 14 22.5312Z" fill="#2D3898"/>
<path d="M6.34375 2.1875C6.04188 2.1875 5.79688 2.4325 5.79688 2.73438C5.79688 3.03625 6.04188 3.28125 6.34375 3.28125C6.64562 3.28125 6.89062 3.03625 6.89062 2.73438C6.89062 2.4325 6.64562 2.1875 6.34375 2.1875Z" fill="#2D3898"/>
<path d="M6.34375 24.7188C6.04188 24.7188 5.79688 24.9638 5.79688 25.2656C5.79688 25.5675 6.04188 25.8125 6.34375 25.8125C6.64562 25.8125 6.89062 25.5675 6.89062 25.2656C6.89062 24.9638 6.64562 24.7188 6.34375 24.7188Z" fill="#2D3898"/>
<path d="M22.75 0H5.25C4.34536 0 3.60938 0.735984 3.60938 1.64062V26.3594C3.60938 27.264 4.34536 28 5.25 28H22.75C23.6546 28 24.3906 27.264 24.3906 26.3594V1.64062C24.3906 0.735984 23.6546 0 22.75 0ZM23.2969 26.3594C23.2969 26.6609 23.0515 26.9062 22.75 26.9062H5.25C4.94845 26.9062 4.70312 26.6609 4.70312 26.3594V1.64062C4.70312 1.33908 4.94845 1.09375 5.25 1.09375H22.75C23.0515 1.09375 23.2969 1.33908 23.2969 1.64062V26.3594Z" fill="#2D3898"/>
<path d="M10.9998 7.5L8 10.5L7.5 12.5C9.2793 13 16.5 13 19 13C21 13 20.3874 11.8333 20.2207 11.5L17 8.5L14.2207 11L10.9998 7.5Z" fill="#1089FF"/>
<path d="M19.4688 4.70312H8.53125C7.62661 4.70312 6.89062 5.43911 6.89062 6.34375C6.89062 7.0408 6.89062 11.138 6.89062 11.8125C6.89062 12.7171 7.62661 13.4531 8.53125 13.4531H19.4688C20.3732 13.4531 21.109 12.7175 21.1094 11.8131C21.1094 11.8128 21.1094 11.8125 21.1094 11.8122V6.34375C21.1094 5.43911 20.3734 4.70312 19.4688 4.70312ZM8.53125 12.3594C8.2297 12.3594 7.98438 12.114 7.98438 11.8125V10.9453L10.7188 8.21095C11.3576 8.8498 14.2208 11.713 14.8672 12.3594H8.53125ZM19.4688 12.3594H16.4141L15.3203 11.2656L17.2812 9.30464L19.9804 12.0038C19.9026 12.2112 19.7029 12.3594 19.4688 12.3594ZM20.0156 10.4922L17.6679 8.1445C17.4543 7.93094 17.1082 7.93094 16.8945 8.1445L14.5469 10.4922L11.1054 7.05075C10.8918 6.83719 10.5457 6.83719 10.332 7.05075L7.98438 9.39843V6.34375C7.98438 6.0422 8.2297 5.79688 8.53125 5.79688H19.4688C19.7703 5.79688 20.0156 6.0422 20.0156 6.34375V10.4922Z" fill="#2D3898"/>
<path d="M11.8125 15.9688H7.4375C7.13552 15.9688 6.89062 16.2136 6.89062 16.5156C6.89062 16.8177 7.13552 17.0625 7.4375 17.0625H11.8125C12.1145 17.0625 12.3594 16.8177 12.3594 16.5156C12.3594 16.2136 12.1145 15.9688 11.8125 15.9688Z" fill="#2D3898"/>
<path d="M11.8125 19.25H7.4375C7.13552 19.25 6.89062 19.4948 6.89062 19.7969C6.89062 20.0989 7.13552 20.3438 7.4375 20.3438H11.8125C12.1145 20.3438 12.3594 20.0989 12.3594 19.7969C12.3594 19.4948 12.1145 19.25 11.8125 19.25Z" fill="#2D3898"/>
<path d="M11.8125 22.5312H7.4375C7.13552 22.5312 6.89062 22.7761 6.89062 23.0781C6.89062 23.3802 7.13552 23.625 7.4375 23.625H11.8125C12.1145 23.625 12.3594 23.3802 12.3594 23.0781C12.3594 22.7761 12.1145 22.5312 11.8125 22.5312Z" fill="#2D3898"/>
<path d="M20.5625 15.9688H16.1875C15.8855 15.9688 15.6406 16.2136 15.6406 16.5156C15.6406 16.8177 15.8855 17.0625 16.1875 17.0625H20.5625C20.8645 17.0625 21.1094 16.8177 21.1094 16.5156C21.1094 16.2136 20.8645 15.9688 20.5625 15.9688Z" fill="#2D3898"/>
<path d="M20.5625 19.25H16.1875C15.8855 19.25 15.6406 19.4948 15.6406 19.7969C15.6406 20.0989 15.8855 20.3438 16.1875 20.3438H20.5625C20.8645 20.3438 21.1094 20.0989 21.1094 19.7969C21.1094 19.4948 20.8645 19.25 20.5625 19.25Z" fill="#2D3898"/>
<path d="M20.5625 22.5312H16.1875C15.8855 22.5312 15.6406 22.7761 15.6406 23.0781C15.6406 23.3802 15.8855 23.625 16.1875 23.625H20.5625C20.8645 23.625 21.1094 23.3802 21.1094 23.0781C21.1094 22.7761 20.8645 22.5312 20.5625 22.5312Z" fill="#2D3898"/>
</svg>
