<svg width="25" height="25" viewBox="0 0 25 25" fill="none" xmlns="http://www.w3.org/2000/svg">
<path d="M12.0764 3C7.62559 3 4 6.62558 4 11.0764C4 15.5272 7.62559 19.1599 12.0764 19.1599C13.9775 19.1599 15.7259 18.4936 17.1077 17.3875L20.4718 20.7498C20.6416 20.9126 20.8684 21.0024 21.1035 21C21.3387 20.9975 21.5636 20.9032 21.73 20.737C21.8964 20.5708 21.9911 20.3461 21.9938 20.111C21.9965 19.8758 21.9071 19.6489 21.7446 19.4789L18.3804 16.1148C19.4875 14.7308 20.1545 12.9797 20.1545 11.0764C20.1545 6.62558 16.5272 3 12.0764 3ZM12.0764 4.79517C15.557 4.79517 18.3576 7.59577 18.3576 11.0764C18.3576 14.557 15.557 17.3647 12.0764 17.3647C8.59576 17.3647 5.79514 14.557 5.79514 11.0764C5.79514 7.59577 8.59576 4.79517 12.0764 4.79517Z" fill="#9298A8"/>
</svg>
