<svg width="28" height="29" viewBox="0 0 28 29" fill="none" xmlns="http://www.w3.org/2000/svg">
<g clip-path="url(#clip0_1300_91065)">
<path d="M26.5 14C26.5 21.1797 20.6797 27 13.5 27C6.3203 27 0.5 21.1797 0.5 14C0.5 6.8203 6.3203 1 13.5 1C20.6797 1 26.5 6.8203 26.5 14Z" stroke="#2D3898"/>
<path d="M20.1899 12.7284C20.4101 12.7284 20.5202 12.8385 20.5202 13.0587V15.1399C20.5202 15.3602 20.4101 15.4703 20.1899 15.4703H15.0033C14.9152 15.4703 14.8712 15.5143 14.8712 15.6024V20.6899C14.8712 20.9101 14.7611 21.0202 14.5408 21.0202H12.4596C12.2394 21.0202 12.1293 20.9101 12.1293 20.6899V15.6024C12.1293 15.5143 12.0852 15.4703 11.9971 15.4703H6.81058C6.59034 15.4703 6.48022 15.3602 6.48022 15.1399V13.0587C6.48022 12.8385 6.59034 12.7284 6.81058 12.7284H11.9971C12.0852 12.7284 12.1293 12.6843 12.1293 12.5962V7.31058C12.1293 7.09034 12.2394 6.98022 12.4596 6.98022H14.5408C14.7611 6.98022 14.8712 7.09034 14.8712 7.31058V12.5962C14.8712 12.6843 14.9152 12.7284 15.0033 12.7284H20.1899Z" fill="#1089FF" stroke="white"/>
</g>
<defs>
<clipPath id="clip0_1300_91065">
<rect width="28" height="28" fill="white" transform="translate(0 0.5)"/>
</clipPath>
</defs>
</svg>
