<svg width="26" height="27" viewBox="0 0 26 27" fill="none" xmlns="http://www.w3.org/2000/svg">
<path d="M23.9975 10.4948C23.6398 10.4948 23.3499 10.7846 23.3499 11.1423V23.132C23.3487 24.2045 22.4798 25.0736 21.4073 25.0746H3.23774C2.16524 25.0736 1.29636 24.2045 1.2951 23.132V6.25752C1.29636 5.18527 2.16524 4.31614 3.23774 4.31487H13.1473C13.505 4.31487 13.7949 4.02499 13.7949 3.66732C13.7949 3.30991 13.505 3.01978 13.1473 3.01978H3.23774C1.45041 3.0218 0.00202359 4.47018 0 6.25752V23.1322C0.00202359 24.9196 1.45041 26.3679 3.23774 26.37H21.4073C23.1946 26.3679 24.643 24.9196 24.645 23.1322V11.1423C24.645 10.7846 24.3551 10.4948 23.9975 10.4948Z" fill="#2D3898"/>
<path d="M20.0093 3.20978L20.2802 1.96121C22.7762 0.297171 24.9603 1.96098 24.4403 4.04187L22.3602 6.64172L22.6093 6.32984L21.5693 5.28965L20.0093 3.20978Z" fill="#1089FF"/>
<path d="M24.3883 1.35351C23.2503 0.215496 21.4053 0.215496 20.2673 1.35351L8.71465 12.9062C8.63548 12.9853 8.57831 13.0835 8.54846 13.1912L6.59382 18.491C6.53134 18.7159 6.59483 18.9567 6.75975 19.1219C6.92493 19.2868 7.16574 19.3503 7.39061 19.2881L12.6027 17.2816C12.7105 17.2518 12.8086 17.1946 12.8878 17.1155L24.4402 5.56254C25.5764 4.42377 25.5764 2.58028 24.4402 1.4415L24.3883 1.35351ZM10.1256 13.3271L19.5806 3.87187L21.9218 6.2493L12.4666 15.7045L10.1256 13.3271ZM9.5165 14.5493L11.2446 16.3139L8.14743 17.7344L9.5165 14.5493ZM23.5245 4.64687L22.8378 5.33362L20.4962 2.95594L21.1832 2.26918C21.8154 1.63707 22.8403 1.63707 23.4724 2.26918L23.5245 2.35718C24.1556 2.99005 24.1556 4.01424 23.5245 4.64687Z" fill="#2D3898"/>
</svg>
