<svg width="20" height="22" viewBox="0 0 20 22" fill="none" xmlns="http://www.w3.org/2000/svg">
<g clip-path="url(#clip0_4610_21241)">
<path d="M0.0560684 10.7704C1.04745 8.88544 2.47296 7.30444 4.17853 6.19847C5.93594 5.05889 7.94899 4.45654 10 4.45654C12.0511 4.45654 14.0642 5.05889 15.8216 6.19847C17.5272 7.30448 18.9527 8.88544 19.944 10.7704C20.0187 10.9124 20.0187 11.0875 19.944 11.2295C18.9527 13.1145 17.5272 14.6955 15.8216 15.8014C14.0641 16.941 12.0511 17.5434 10 17.5434C7.94899 17.5434 5.93594 16.941 4.17853 15.8014C2.47296 14.6955 1.04745 13.1145 0.0560684 11.2295C-0.0185795 11.0874 -0.0185795 10.9124 0.0560684 10.7704ZM4.60175 15.0118C6.23106 16.0682 8.09774 16.6267 10.0001 16.6267C11.9024 16.6267 13.7691 16.0682 15.3984 15.0118C16.9109 14.031 18.1861 12.6475 19.0988 10.9999C18.1861 9.35233 16.9109 7.96888 15.3984 6.98809C13.7691 5.9316 11.9024 5.37315 10.0001 5.37315C8.09774 5.37315 6.23106 5.9316 4.60175 6.98809C3.08927 7.96888 1.81416 9.35228 0.901365 10.9999C1.81416 12.6475 3.08923 14.031 4.60175 15.0118Z" fill="#131A1B" stroke="#131A1B" stroke-width="0.5"/>
<path d="M10.0001 6.88135C12.0646 6.88135 13.7441 8.72885 13.7441 10.9998C13.7441 13.2708 12.0646 15.1183 10.0001 15.1183C7.93558 15.1183 6.25599 13.2708 6.25599 10.9998C6.25599 8.72889 7.93562 6.88135 10.0001 6.88135ZM10.0001 14.2017C11.6051 14.2017 12.9108 12.7653 12.9108 10.9998C12.9108 9.23433 11.6051 7.798 10.0001 7.798C8.39506 7.798 7.08931 9.23433 7.08931 10.9998C7.08931 12.7653 8.39506 14.2017 10.0001 14.2017Z" fill="#131A1B" stroke="#131A1B" stroke-width="0.5"/>
</g>
<defs>
<clipPath id="clip0_4610_21241">
<rect width="20" height="22" fill="white" transform="matrix(-1 0 0 1 20 0)"/>
</clipPath>
</defs>
</svg>
