<svg width="12" height="12" viewBox="0 0 12 12" fill="none" xmlns="http://www.w3.org/2000/svg">
<path fill-rule="evenodd" clip-rule="evenodd" d="M0.590258 0.586558C0.995538 0.181205 1.65263 0.181207 2.05791 0.586563L10.8638 9.39403C11.2691 9.79938 11.2691 10.4566 10.8638 10.8619C10.4585 11.2673 9.80144 11.2673 9.39615 10.8619L0.590264 2.05448C0.184981 1.64912 0.184977 0.99191 0.590258 0.586558Z" fill="#131A1B"/>
<path fill-rule="evenodd" clip-rule="evenodd" d="M0.590258 0.586558C0.995538 0.181205 1.65263 0.181207 2.05791 0.586563L10.8638 9.39403C11.2691 9.79938 11.2691 10.4566 10.8638 10.8619C10.4585 11.2673 9.80144 11.2673 9.39615 10.8619L0.590264 2.05448C0.184981 1.64912 0.184977 0.99191 0.590258 0.586558Z" fill="#131A1B"/>
<path fill-rule="evenodd" clip-rule="evenodd" d="M10.8635 0.586959C10.4582 0.181603 9.80112 0.181601 9.39584 0.586954L0.589937 9.39443C0.184657 9.79978 0.18466 10.457 0.589944 10.8623C0.995227 11.2677 1.65232 11.2677 2.0576 10.8624L10.8635 2.05488C11.2688 1.64953 11.2688 0.992315 10.8635 0.586959Z" fill="#131A1B"/>
<path fill-rule="evenodd" clip-rule="evenodd" d="M10.8635 0.586959C10.4582 0.181603 9.80112 0.181601 9.39584 0.586954L0.589937 9.39443C0.184657 9.79978 0.18466 10.457 0.589944 10.8623C0.995227 11.2677 1.65232 11.2677 2.0576 10.8624L10.8635 2.05488C11.2688 1.64953 11.2688 0.992315 10.8635 0.586959Z" fill="#131A1B"/>
</svg>
