<svg width="28" height="28" viewBox="0 0 28 28" fill="none" xmlns="http://www.w3.org/2000/svg">
<path d="M18.197 6.50854V1.78687L23.4433 6.50854H18.197Z" fill="#1089FF"/>
<path d="M13.541 19.8211C13.541 20.0745 13.3358 20.2802 13.0819 20.2802H8.03234C7.77849 20.2802 7.57329 20.0745 7.57329 19.8211C7.57329 19.5677 7.77849 19.3621 8.03234 19.3621H13.0819C13.3358 19.3621 13.541 19.5677 13.541 19.8211ZM8.03234 12.9353H19.9677C20.2215 12.9353 20.4267 12.7297 20.4267 12.4763C20.4267 12.2229 20.2215 12.0172 19.9677 12.0172H8.03234C7.77849 12.0172 7.57329 12.2229 7.57329 12.4763C7.57329 12.7297 7.77849 12.9353 8.03234 12.9353ZM8.03234 9.26293H19.9677C20.2215 9.26293 20.4267 9.05728 20.4267 8.80388C20.4267 8.55048 20.2215 8.34483 19.9677 8.34483H8.03234C7.77849 8.34483 7.57329 8.55048 7.57329 8.80388C7.57329 9.05728 7.77849 9.26293 8.03234 9.26293ZM8.03234 5.59052H16.2953C16.5491 5.59052 16.7543 5.38486 16.7543 5.13147C16.7543 4.87807 16.5491 4.67241 16.2953 4.67241H8.03234C7.77849 4.67241 7.57329 4.87807 7.57329 5.13147C7.57329 5.38486 7.77849 5.59052 8.03234 5.59052ZM24.0992 25.3297C24.0992 26.5953 23.0695 27.625 21.8039 27.625H6.19614C4.93053 27.625 3.90088 26.5953 3.90088 25.3297V3.29526C3.90088 2.02965 4.93053 1 6.19614 1H18.1315C18.2499 1.01331 18.3693 1.04682 18.4565 1.13496L23.9642 6.64266C24.0422 6.723 24.0854 6.82904 24.0932 6.93967C24.1097 6.96354 24.0936 25.3017 24.0992 25.3297ZM18.5905 5.13147C18.5905 5.89074 19.2084 6.50862 19.9677 6.50862H22.5319L18.5905 2.5672V5.13147ZM23.181 25.3297V7.42672H19.9677C18.7021 7.42672 17.6724 6.39707 17.6724 5.13147V1.9181H6.19614C5.43687 1.9181 4.81898 2.53599 4.81898 3.29526V25.3297C4.81898 26.089 5.43687 26.7069 6.19614 26.7069H21.8039C22.5632 26.7069 23.181 26.089 23.181 25.3297ZM13.0819 15.6897H8.03234C7.77849 15.6897 7.57329 15.8953 7.57329 16.1487C7.57329 16.4021 7.77849 16.6078 8.03234 16.6078H13.0819C13.3358 16.6078 13.541 16.4021 13.541 16.1487C13.541 15.8953 13.3358 15.6897 13.0819 15.6897Z" fill="#2D3898"/>
</svg>
