<svg width="28" height="28" viewBox="0 0 28 28" fill="none" xmlns="http://www.w3.org/2000/svg">
<g clip-path="url(#clip0_1300_91077)">
<path d="M26.092 14.0928C26.058 13.9888 26.058 13.8767 26.092 13.7726L27.135 10.5625C27.2341 10.2586 27.2343 9.93111 27.1355 9.62712C27.0367 9.32313 26.844 9.05832 26.5852 8.87081L23.8546 6.88709C23.7663 6.82268 23.7005 6.73206 23.6666 6.62811L22.6236 3.4182C22.5253 3.11398 22.333 2.84882 22.0743 2.6609C21.8157 2.47299 21.504 2.37201 21.1843 2.37253H17.8092C17.6998 2.37278 17.5932 2.33814 17.5048 2.27365L14.7743 0.289696C14.5159 0.101432 14.2045 0 13.8848 0C13.5651 0 13.2537 0.101432 12.9953 0.289696L10.2648 2.27365C10.1764 2.33814 10.0698 2.37278 9.96037 2.37253C4.7455 2.42532 5.76578 1.65087 4.10303 6.62838C4.06904 6.73222 4.00324 6.82273 3.91495 6.88709L1.18441 8.87081C0.92552 9.05836 0.732809 9.32321 0.634008 9.62724C0.535208 9.93128 0.535414 10.2588 0.634596 10.5627L1.67759 13.7726C1.71161 13.8767 1.71161 13.9888 1.67759 14.0928L0.634606 17.303C0.535444 17.6069 0.535249 17.9344 0.63405 18.2384C0.73285 18.5424 0.925551 18.8072 1.18442 18.9947L3.91497 20.9784C4.00333 21.0428 4.06913 21.1334 4.10302 21.2374C5.76477 26.1806 4.71292 25.4496 9.96039 25.4929C10.0698 25.4927 10.1764 25.5273 10.2648 25.5918L12.9956 27.5758C13.2539 27.7641 13.5653 27.8656 13.8849 27.8656C14.2046 27.8656 14.516 27.7641 14.7743 27.5758L17.5048 25.5918C17.5932 25.5273 17.6998 25.4927 17.8092 25.4929H21.1843C21.504 25.4935 21.8157 25.3925 22.0743 25.2046C22.333 25.0167 22.5253 24.7515 22.6236 24.4473L23.6666 21.2371C23.7006 21.1333 23.7663 21.0428 23.8546 20.9784C28.0423 17.871 27.6724 19.0964 26.092 14.0928ZM26.0002 18.1895L23.2696 20.1732C23.0107 20.3606 22.8182 20.6256 22.72 20.9298L21.677 24.1397C21.6435 24.2439 21.5776 24.3347 21.4891 24.3991C21.4005 24.4635 21.2938 24.498 21.1843 24.4978H17.8092C17.4896 24.4971 17.178 24.5982 16.9198 24.7867L14.1892 26.7706C14.1008 26.8351 13.9942 26.8698 13.8848 26.8698C13.7754 26.8698 13.6688 26.8351 13.5804 26.7706L10.8498 24.7867C10.5916 24.5983 10.28 24.4971 9.96037 24.4978H6.58526C6.47578 24.4981 6.36906 24.4635 6.2805 24.3991C6.19194 24.3348 6.12613 24.2439 6.09255 24.1397L5.04955 20.93C4.95151 20.6258 4.759 20.3606 4.49999 20.1732L1.76944 18.1895C1.68077 18.1254 1.61477 18.0347 1.58093 17.9306C1.54709 17.8265 1.54717 17.7144 1.58115 17.6103L2.62415 14.4004C2.72352 14.0966 2.72352 13.7689 2.62415 13.4651L1.58115 10.2554C1.54715 10.1513 1.54706 10.0391 1.5809 9.935C1.61474 9.83087 1.68075 9.74016 1.76944 9.67595L4.49999 7.69223C4.75893 7.50487 4.95143 7.23986 5.04955 6.93568L6.09255 3.72578C6.12613 3.62157 6.19194 3.53073 6.2805 3.46637C6.36906 3.402 6.47578 3.36744 6.58526 3.36766H9.96037C10.28 3.36842 10.5916 3.26723 10.8498 3.0788L13.5804 1.09484C13.6688 1.03042 13.7754 0.995712 13.8848 0.995712C13.9942 0.995712 14.1008 1.03042 14.1892 1.09484L16.9198 3.07878C17.178 3.26721 17.4896 3.3684 17.8092 3.36765H21.1843C21.2938 3.36742 21.4005 3.40198 21.4891 3.46635C21.5776 3.53072 21.6435 3.62156 21.677 3.72576L22.72 6.93542C22.8181 7.23971 23.0106 7.50481 23.2696 7.69222L26.0002 9.67593C26.0888 9.7401 26.1548 9.83077 26.1887 9.93486C26.2225 10.0389 26.2224 10.1511 26.1884 10.2551L25.1454 13.465C25.0461 13.7689 25.0461 14.0965 25.1454 14.4004L26.1884 17.6101C26.2224 17.7141 26.2225 17.8263 26.1887 17.9305C26.1549 18.0346 26.0888 18.1253 26.0002 18.1895Z" fill="#2D3898"/>
<path d="M13.8855 4.93433C11.4998 4.937 9.2125 5.88592 7.52553 7.57289C5.83856 9.25986 4.88964 11.5471 4.88696 13.9329C5.38119 25.8706 22.3916 25.8671 22.884 13.9328C22.8813 11.5471 21.9324 9.25983 20.2454 7.57287C18.5585 5.88592 16.2712 4.93701 13.8855 4.93433ZM13.8855 21.9362C11.7636 21.9338 9.72931 21.0898 8.22891 19.5894C6.7285 18.089 5.88452 16.0547 5.8821 13.9329C6.32183 3.31531 21.4507 3.3184 21.8889 13.9329C21.8864 16.0548 21.0424 18.0891 19.542 19.5895C18.0416 21.0898 16.0074 21.9338 13.8855 21.9362Z" fill="#2D3898"/>
<path d="M8.15283 13.2967L10.0635 12.023L13.2479 14.5705L17.7061 10.1123L19.6168 11.3861L13.9534 17.6158C13.5693 18.0383 12.9101 18.054 12.5064 17.6503L8.15283 13.2967Z" fill="#1089FF"/>
<path d="M18.6686 9.71419C18.3756 9.61586 18.0609 9.60152 17.7602 9.6728C17.4595 9.74407 17.1847 9.89812 16.967 10.1175L13.0581 14.0261C13.0482 14.0399 13.0352 14.0511 13.0201 14.0588C13.005 14.0666 12.9883 14.0706 12.9714 14.0706C12.9544 14.0706 12.9377 14.0666 12.9226 14.0588C12.9075 14.0511 12.8945 14.0399 12.8846 14.0261L10.9281 12.0696C10.6853 11.8331 10.379 11.6722 10.0465 11.6066C9.71397 11.5409 9.36952 11.5733 9.05505 11.6998C8.74058 11.8263 8.46964 12.0414 8.27518 12.319C8.08073 12.5966 7.97113 12.9248 7.95973 13.2636C7.95406 13.498 7.99627 13.7312 8.08378 13.9488C8.1713 14.1663 8.30227 14.3638 8.4687 14.529L11.6895 17.7499C12.0021 18.0618 12.4256 18.237 12.8671 18.237C13.3087 18.237 13.7322 18.0618 14.0447 17.7499L19.3219 12.4724C19.5201 12.2703 19.6638 12.0213 19.7397 11.7487C19.8156 11.476 19.8212 11.1886 19.7559 10.9132C19.6907 10.6377 19.5568 10.3833 19.3666 10.1737C19.1765 9.96403 18.9364 9.80595 18.6686 9.71419ZM18.6183 11.7688L13.3412 17.0463C13.2154 17.1718 13.0449 17.2423 12.8671 17.2423C12.6894 17.2423 12.5189 17.1718 12.3931 17.0463L9.17256 13.8255C9.10131 13.7548 9.04524 13.6704 9.00776 13.5773C8.97029 13.4842 8.95221 13.3845 8.95462 13.2842C8.95947 13.1392 9.00634 12.9988 9.08952 12.88C9.1727 12.7612 9.28861 12.6691 9.42316 12.615C9.5577 12.5609 9.70507 12.547 9.84735 12.5751C9.98963 12.6032 10.1207 12.672 10.2246 12.7732L12.181 14.7297C12.3908 14.939 12.675 15.0566 12.9714 15.0566C13.2677 15.0566 13.5519 14.939 13.7617 14.7297L17.6708 10.8211C17.7971 10.6982 17.9666 10.63 18.1428 10.6312C18.319 10.6324 18.4876 10.7029 18.6122 10.8275C18.7368 10.9521 18.8072 11.1207 18.8084 11.2969C18.8095 11.4731 18.7413 11.6426 18.6183 11.7688Z" fill="#2D3898"/>
</g>
<defs>
<clipPath id="clip0_1300_91077">
<rect width="28" height="28" fill="white"/>
</clipPath>
</defs>
</svg>
