<svg width="26" height="25" viewBox="0 0 26 25" fill="none" xmlns="http://www.w3.org/2000/svg">
<mask id="mask0_1300_91091" style="mask-type:luminance" maskUnits="userSpaceOnUse" x="0" y="0" width="26" height="25">
<path d="M0.5 0H25.5V25H0.5V0Z" fill="white"/>
</mask>
<g mask="url(#mask0_1300_91091)">
<path d="M10.6391 11.8379L7.11224 15.3643C5.46136 14.8203 3.57172 15.2051 2.25873 16.5176C0.401794 18.3745 0.402283 21.3848 2.25873 23.2412C2.59271 23.5752 2.96332 23.8486 3.35834 24.062V20.5239C3.35834 19.3428 4.31537 18.3857 5.49652 18.3857C6.08685 18.3857 6.62103 18.625 7.00824 19.0117C7.39496 19.3989 7.63422 19.9331 7.63422 20.5239V24.1875C8.1225 23.96 8.58002 23.6445 8.98285 23.2417C10.2953 21.9287 10.6796 20.0386 10.1357 18.3877L11.559 16.9644" stroke="#9298A8" stroke-miterlimit="10" stroke-linecap="round" stroke-linejoin="round"/>
<path d="M18.3654 3.80566V4.47705C18.3654 5.06738 18.6046 5.60205 18.9913 5.98877C19.3785 6.37598 19.9127 6.61523 20.5031 6.61523C21.6842 6.61523 22.6412 5.65771 22.6412 4.47705V0.938965C23.0363 1.15234 23.4069 1.42578 23.7408 1.75977C25.5973 3.61621 25.5978 6.62646 23.7408 8.4834C22.4279 9.7959 20.5382 10.1807 18.8873 9.63672L17.464 11.0601" stroke="#9298A8" stroke-miterlimit="10" stroke-linecap="round" stroke-linejoin="round"/>
<path d="M12.339 10.1394L15.8654 6.61304C15.3214 4.96167 15.7057 3.07153 17.0182 1.75903C17.421 1.3562 17.8785 1.04077 18.3668 0.813232V2.3523" stroke="#9298A8" stroke-miterlimit="10" stroke-linecap="round" stroke-linejoin="round"/>
<path d="M13.6207 16.1094C13.5885 16.9453 13.8912 17.7915 14.5289 18.4297L17.2951 21.1953" stroke="#9298A8" stroke-miterlimit="10" stroke-linecap="round" stroke-linejoin="round"/>
<path d="M16.6086 13.1223C17.4446 13.0901 18.2908 13.3928 18.929 14.0305L23.3713 18.4734C23.9788 19.0808 24.2825 19.8767 24.2825 20.6726C24.2825 21.469 23.9788 22.2649 23.3713 22.8723C22.1565 24.0872 20.1873 24.0872 18.9724 22.8723L18.3313 22.2312" stroke="#9298A8" stroke-miterlimit="10" stroke-linecap="round" stroke-linejoin="round"/>
<path d="M15.5854 10.7917L11.2901 15.0869C10.8271 15.55 10.8271 16.3007 11.2901 16.7638C11.7532 17.2269 12.504 17.2269 12.967 16.7638L17.2622 12.4686C17.7253 12.0055 17.7253 11.2547 17.2622 10.7917C16.7992 10.3287 16.0484 10.3287 15.5854 10.7917Z" fill="#F7F8FC" stroke="#9298A8" stroke-miterlimit="10" stroke-linecap="round" stroke-linejoin="round"/>
<path d="M3.45647 1.21821L1.71692 2.95781L3.44016 6.42065L5.16653 6.40747L5.18704 6.38696L12.5886 13.7886L14.2872 12.0899L6.88562 4.68833L6.90613 4.66787L6.91931 2.9415L3.45647 1.21821Z" stroke="#9298A8" stroke-miterlimit="10" stroke-linecap="round" stroke-linejoin="round"/>
</g>
</svg>
